<?xml version="1.0" encoding="utf-8"?>
<!-- Generator: Adobe Illustrator 16.0.0, SVG Export Plug-In . SVG Version: 6.00 Build 0)  -->
<!DOCTYPE svg PUBLIC "-//W3C//DTD SVG 1.1//EN" "http://www.w3.org/Graphics/SVG/1.1/DTD/svg11.dtd">
<svg version="1.1" id="Capa_1" xmlns="http://www.w3.org/2000/svg" xmlns:xlink="http://www.w3.org/1999/xlink" x="0px" y="0px"
	 width="200px" height="200px" viewBox="0 0 200 200" enable-background="new 0 0 200 200" xml:space="preserve">
<g>
	<rect x="66.202" y="46.488" fill="none" width="74.764" height="104.688"/>
	<path fill="#FFFFFF" d="M137.27,19.983H69.898c-5.598,0-10.137,4.539-10.137,10.137v137.91c0,5.599,4.539,10.137,10.137,10.137
		h67.372c5.599,0,10.138-4.538,10.138-10.137V30.121C147.407,24.522,142.868,19.983,137.27,19.983z M91.124,30.015h24.922
		c1.106,0,2.005,0.898,2.005,2.007c0,1.107-0.898,2.006-2.005,2.006H91.124c-1.108,0-2.007-0.898-2.007-2.006
		C89.117,30.913,90.016,30.015,91.124,30.015z M103.584,172.359c-4.199,0-7.604-3.404-7.604-7.602c0-4.2,3.404-7.604,7.604-7.604
		s7.603,3.404,7.603,7.604C111.187,168.955,107.783,172.359,103.584,172.359z M140.966,151.176H66.202V46.488h74.764V151.176z"/>
</g>
</svg>
