<?xml version="1.0" encoding="utf-8"?>
<!-- Generator: Adobe Illustrator 16.0.0, SVG Export Plug-In . SVG Version: 6.00 Build 0)  -->
<!DOCTYPE svg PUBLIC "-//W3C//DTD SVG 1.1//EN" "http://www.w3.org/Graphics/SVG/1.1/DTD/svg11.dtd">
<svg version="1.1" id="Capa_1" xmlns="http://www.w3.org/2000/svg" xmlns:xlink="http://www.w3.org/1999/xlink" x="0px" y="0px" width="100px" height="100px" viewBox="0 0 200 200" enable-background="new 0 0 200 200" xml:space="preserve">
<g>
	<path fill="#FFFFFF" d="M102.184,147.699V22.487c0,0-3.326-4.334-5.241,2.62c0,0-11.926,43.305-24.021,65.882
		c-12.094,22.575-29.027,53.215-56.172,72.836v0.806v14.217c0,0,27.146-23.623,81.168-29.535L102.184,147.699z"/>
	<path fill="#FFFFFF" d="M141.591,160.061c0,0,3.283-0.504,4.08-1.359c0.074-0.081,0.127-0.165,0.153-0.252
		c0.303-1.008,0-107.942,0-107.942s-2.016-2.116-2.52-2.116c-0.505,0-1.613,2.52-2.621,4.938
		c-1.009,2.419-19.451,39.105-36.283,53.114v43.236c0,0-2.721,1.612-12.396,2.219c0,0-26.003,2.016-55.836,17.737
		c0,0,24.391-10.28,59.867-12.899C96.035,156.734,121.333,155.425,141.591,160.061z"/>
	<path fill="#FFFFFF" d="M179.756,75.804c-4.568,6.584-32.117,29.967-32.117,29.967l0.201,54.692l-6.249,2.218
		c-11.69-3.427-23.987-4.031-50.528-3.226c-26.541,0.808-46.428,10.18-46.428,10.18c34.065-9.372,72.768-5.745,72.768-5.745
		c31.445,1.814,62.354,13.773,62.354,13.773c1.21,0.134,3.494-1.479,3.494-1.479V75.804
		C182.041,72.578,179.756,75.804,179.756,75.804z"/>
</g>
<g>
	<path fill="#FFFFFF" d="M29.98,49.979c-1.765,0.73-3.605,1.095-5.522,1.095c-2.981,0-5.414-1.001-7.295-3.004
		s-2.822-4.617-2.822-7.843c0-3.539,1.02-6.376,3.058-8.511c2.039-2.135,4.63-3.203,7.774-3.203c1.674,0,3.276,0.269,4.808,0.806
		v1.598c-1.532-0.69-3.144-1.035-4.837-1.035c-2.739,0-4.965,0.928-6.679,2.784s-2.571,4.326-2.571,7.409
		c0,2.972,0.819,5.317,2.457,7.036c1.638,1.719,3.714,2.579,6.229,2.579c2.008,0,3.809-0.391,5.401-1.171V49.979z"/>
	<path fill="#FFFFFF" d="M45.221,50.694l-2.906-6.389c-0.599-1.318-1.197-2.204-1.795-2.655c-0.599-0.451-1.349-0.677-2.251-0.677
		h-2.708v9.721h-1.506V28.879h6.055c1.927,0,3.44,0.52,4.541,1.559c1.1,1.04,1.651,2.411,1.651,4.116
		c0,1.572-0.452,2.885-1.354,3.939c-0.903,1.056-2.166,1.734-3.788,2.039v0.061c0.862,0.345,1.704,1.395,2.525,3.149l3.24,6.952
		H45.221z M35.561,30.263v9.341h3.758c1.663,0,2.984-0.437,3.963-1.309c0.979-0.873,1.468-2.069,1.468-3.59
		c0-1.39-0.441-2.477-1.323-3.263c-0.883-0.786-2.146-1.179-3.789-1.179H35.561z"/>
	<path fill="#FFFFFF" d="M69.483,50.694V35.208c0-0.375,0.056-1.445,0.167-3.21h-0.061c-0.314,0.822-0.578,1.456-0.791,1.901
		L61.04,50.694h-0.487L52.764,33.99c-0.254-0.537-0.492-1.222-0.715-2.054h-0.076c0.071,0.974,0.106,1.942,0.106,2.906v15.852
		h-1.506V28.879h1.399l8.139,17.571c0.05,0.101,0.106,0.238,0.167,0.41c0.061,0.173,0.126,0.345,0.197,0.518
		c0.101,0.264,0.208,0.558,0.32,0.883h0.091l0.168-0.487c0.009-0.04,0.183-0.522,0.517-1.445l8.017-17.45h1.339v21.815H69.483z"/>
</g>
</svg>
