<?xml version="1.0" encoding="utf-8"?>
<!-- Generator: Adobe Illustrator 16.0.0, SVG Export Plug-In . SVG Version: 6.00 Build 0)  -->
<!DOCTYPE svg PUBLIC "-//W3C//DTD SVG 1.1//EN" "http://www.w3.org/Graphics/SVG/1.1/DTD/svg11.dtd">
<svg version="1.1" id="Capa_1" xmlns="http://www.w3.org/2000/svg" xmlns:xlink="http://www.w3.org/1999/xlink" x="0px" y="0px"
	 width="200px" height="200px" viewBox="0 0 200 200" enable-background="new 0 0 200 200" xml:space="preserve">
<g>
	<path fill="#FFFFFF" d="M102.184,147.699V22.487c0,0-3.326-4.334-5.241,2.62c0,0-11.926,43.305-24.021,65.882
		c-12.094,22.575-29.027,53.215-56.172,72.836v0.806v14.217c0,0,27.146-23.623,81.168-29.535L102.184,147.699z"/>
	<path fill="#FFFFFF" d="M141.591,160.061c0,0,3.283-0.504,4.08-1.359c0.074-0.081,0.127-0.165,0.153-0.252
		c0.303-1.008,0-107.942,0-107.942s-2.016-2.116-2.52-2.116c-0.505,0-1.613,2.52-2.621,4.938
		c-1.009,2.419-19.451,39.105-36.283,53.114v43.236c0,0-2.721,1.612-12.396,2.219c0,0-26.003,2.016-55.836,17.737
		c0,0,24.391-10.28,59.867-12.899C96.035,156.734,121.333,155.425,141.591,160.061z"/>
	<path fill="#FFFFFF" d="M179.756,75.804c-4.568,6.584-32.117,29.967-32.117,29.967l0.201,54.692l-6.249,2.218
		c-11.69-3.427-23.987-4.031-50.528-3.226c-26.541,0.808-46.428,10.18-46.428,10.18c34.065-9.372,72.768-5.745,72.768-5.745
		c31.445,1.814,62.354,13.773,62.354,13.773c1.21,0.134,3.494-1.479,3.494-1.479V75.804
		C182.041,72.578,179.756,75.804,179.756,75.804z"/>
</g>
<g>
	<path fill="#FFFFFF" d="M33.336,57l-3.203-8.711H17.984L14.781,57h-2.129l10.566-28.008h1.836L35.504,57H33.336z M24.742,33.563
		c-0.144-0.391-0.261-0.774-0.352-1.152c-0.091-0.325-0.188-0.651-0.293-0.977H24.02c-0.222,0.859-0.437,1.556-0.645,2.09
		l-4.707,12.988h10.801L24.742,33.563z"/>
	<path fill="#FFFFFF" d="M58.426,57L51.98,46.316c-0.403-0.664-0.749-1.315-1.035-1.953h-0.098
		c-0.352,0.716-0.723,1.367-1.113,1.953L43.172,57h-2.324l8.848-14.121l-8.32-13.887h2.324l6.27,10.527
		c0.325,0.547,0.664,1.172,1.016,1.875h0.078l1.035-1.875l6.23-10.527h2.246L52.176,42.84L60.77,57H58.426z"/>
</g>
</svg>
