<?xml version="1.0" encoding="utf-8"?>
<!-- Generator: Adobe Illustrator 16.0.0, SVG Export Plug-In . SVG Version: 6.00 Build 0)  -->
<!DOCTYPE svg PUBLIC "-//W3C//DTD SVG 1.1//EN" "http://www.w3.org/Graphics/SVG/1.1/DTD/svg11.dtd">
<svg version="1.1" id="Capa_1" xmlns="http://www.w3.org/2000/svg" xmlns:xlink="http://www.w3.org/1999/xlink" x="0px" y="0px"
	 width="200px" height="200px" viewBox="0 0 200 200" enable-background="new 0 0 200 200" xml:space="preserve">
<g>
	<path fill="#FFFFFF" d="M102.184,147.699V22.487c0,0-3.326-4.334-5.241,2.62c0,0-11.926,43.305-24.021,65.882
		c-12.094,22.576-29.027,53.215-56.172,72.836v0.806v14.216c0,0,27.146-23.623,81.168-29.535L102.184,147.699z"/>
	<path fill="#FFFFFF" d="M141.591,160.061c0,0,3.283-0.504,4.08-1.36c0.074-0.081,0.127-0.165,0.153-0.252
		c0.303-1.008,0-107.942,0-107.942s-2.016-2.116-2.52-2.116s-1.612,2.52-2.621,4.938c-1.008,2.419-19.451,39.105-36.283,53.114
		v43.237c0,0-2.721,1.612-12.396,2.218c0,0-26.003,2.016-55.836,17.738c0,0,24.391-10.28,59.867-12.9
		C96.035,156.735,121.333,155.425,141.591,160.061z"/>
	<path fill="#FFFFFF" d="M179.756,75.804c-4.568,6.584-32.117,29.967-32.117,29.967l0.201,54.693l-6.249,2.218
		c-11.691-3.427-23.987-4.031-50.528-3.226c-26.541,0.807-46.428,10.18-46.428,10.18c34.065-9.373,72.768-5.745,72.768-5.745
		c31.445,1.814,62.354,13.773,62.354,13.773c1.21,0.134,3.494-1.478,3.494-1.478V75.804
		C182.041,72.578,179.756,75.804,179.756,75.804z"/>
</g>
</svg>
