<?xml version="1.0" encoding="utf-8"?>
<!-- Generator: Adobe Illustrator 16.0.0, SVG Export Plug-In . SVG Version: 6.00 Build 0)  -->
<!DOCTYPE svg PUBLIC "-//W3C//DTD SVG 1.1//EN" "http://www.w3.org/Graphics/SVG/1.1/DTD/svg11.dtd">
<svg version="1.1" id="Capa_1" xmlns="http://www.w3.org/2000/svg" xmlns:xlink="http://www.w3.org/1999/xlink" x="0px" y="0px"
	                 width="100px" height="100px" viewBox="0 0 200 200" enable-background="new 0 0 200 200" xml:space="preserve">
                <g>
	                <g>
		                <path fill="#FFFFFF" d="M114,124v-20H98.837c-0.846-7-2.422-9.174-4.598-12.973l13.184-13.457L92.886,62.896L80.265,75.88
			                C76.687,73.745,74,72.088,69,71.142V55H48v16.84c-2,0.904-6.083,2.152-8.754,3.696L26.364,62.758L11.776,77.295L24.454,90.55
			                C22.137,94.474,20.438,97,19.556,104H3v20h17.968c0.914,3,2.102,5.002,3.539,7.412l-12.785,12.645l14.539,14.47l13.122-12.946
			                c2.631,1.507,6.618,2.695,8.618,3.582V170h21v-20.139c3-0.936,7.587-2.496,11.13-4.59l12.972,13.186l14.426-14.537l-13.313-12.986
			                c1.314-2.271,2.356-3.934,3.211-6.934H114z M74.337,123.457c-1.756,1.887-3.852,3.438-6.199,4.57
			                c-1.326,0.637-2.729,1.143-4.195,1.488c-1.543,0.367-3.145,0.58-4.799,0.58c-1.406,0-2.781-0.145-4.111-0.41
			                c-2.713-0.545-5.232-1.617-7.451-3.107c-1.332-0.895-2.539-1.951-3.629-3.121c-1.947-2.092-3.467-4.584-4.422-7.342
			                c-0.736-2.131-1.158-4.412-1.158-6.791c0-1.654,0.213-3.256,0.58-4.801c0.131-0.549,0.271-1.092,0.445-1.625
			                c1.451-4.463,4.363-8.264,8.184-10.83c1.646-1.105,3.463-1.985,5.4-2.586c1.949-0.604,4.018-0.931,6.162-0.931
			                c2.383,0,4.66,0.421,6.789,1.158c0.758,0.263,1.492,0.567,2.205,0.912c5.066,2.442,8.994,6.864,10.754,12.276
			                c0.244,0.756,0.455,1.525,0.613,2.314c0.268,1.328,0.41,2.703,0.41,4.111c0,2.145-0.326,4.215-0.928,6.162
			                C78.052,118.498,76.433,121.203,74.337,123.457z"/>
		                <path fill="#FFFFFF" d="M162.728,113.467l13.959-6.125l-4.818-11c2.078-1.594,4.916-4.117,6.852-6.724l12.764,5.078l5.492-14.177
			                l-12.68-4.752c0.383-3.064,0.141-6.492-0.24-9.102l11.447-5.016l-6.117-13.961l-11.924,5.221c-1.633-2.057-3.303-3.564-5.146-4.92
			                l4.828-12.591l-14.223-5.601l-4.646,12.287c-3.354-0.406-7.414-0.014-10.002,0.408l-4.729-10.783l-13.959,6.117l5.143,11.742
			                c-2.057,1.643-3.172,3.092-4.383,4.785l-12.596-4.83l-5.6,14.224l12.682,5.157c-0.238,2.238-0.305,4.426,0.115,7.02l-13.521,5.924
			                l6.119,13.964l13.043-5.718c1.654,2.047,3.99,4.484,6.463,6.268l-5.078,12.77l14.174,5.494l5.268-13.072
			                c1.934,0.213,3.49,0.385,6.072-0.055L162.728,113.467z M150.175,86.01c-1.801-0.632-3.479-1.596-4.947-2.848
			                c-0.83-0.714-1.586-1.516-2.262-2.41c-0.707-0.938-1.326-1.961-1.82-3.086c-0.418-0.956-0.729-1.93-0.945-2.914
			                c-0.438-2.004-0.457-4.035-0.105-5.985c0.207-1.17,0.568-2.307,1.039-3.392c0.842-1.947,2.082-3.721,3.666-5.189
			                c1.232-1.137,2.652-2.102,4.271-2.809c1.123-0.494,2.275-0.824,3.432-1.036c0.414-0.073,0.822-0.14,1.236-0.179
			                c3.465-0.344,6.912,0.502,9.791,2.332c1.248,0.793,2.385,1.763,3.369,2.9c0.988,1.143,1.826,2.452,2.465,3.909
			                c0.709,1.617,1.098,3.288,1.23,4.956c0.047,0.592,0.059,1.184,0.039,1.768c-0.15,4.168-1.984,8.152-5.139,10.96
			                c-0.441,0.388-0.898,0.761-1.389,1.103c-0.822,0.58-1.711,1.084-2.666,1.503c-1.461,0.64-2.965,1.034-4.467,1.202
			                C154.649,87.058,152.329,86.764,150.175,86.01z"/>
	                </g>
                </g>
                </svg>