<?xml version="1.0" encoding="utf-8"?>
<!-- Generator: Adobe Illustrator 16.0.0, SVG Export Plug-In . SVG Version: 6.00 Build 0)  -->
<!DOCTYPE svg PUBLIC "-//W3C//DTD SVG 1.1//EN" "http://www.w3.org/Graphics/SVG/1.1/DTD/svg11.dtd">
<svg version="1.1" id="Capa_1" xmlns="http://www.w3.org/2000/svg" xmlns:xlink="http://www.w3.org/1999/xlink" x="0px" y="0px"
	 width="200px" height="200px" viewBox="0 0 200 200" enable-background="new 0 0 200 200" xml:space="preserve">
<g>
	<g>
		<path fill="#FFFFFF" d="M181.955,141.956l-33.121-25.365v17.532h-19.783H87.676h-3.708v0.064
			c-22.276-0.576-40.162-18.854-40.162-41.334c0-22.843,18.465-41.361,41.243-41.361c22.775,0,41.242,18.519,41.242,41.361
			c0,15.81-8.848,29.542-21.844,36.504h28.674c7.793-10.139,12.432-22.84,12.432-36.631c0-33.163-26.805-60.046-59.871-60.046
			c-33.066,0-59.873,26.883-59.873,60.046c0,32.588,25.885,59.11,58.159,60.021v0.025h64.866v14.547L181.955,141.956z"/>
		<path fill="#FFFFFF" d="M34.821,134.123H18.045v18.649h42.591C50.428,148.978,41.534,142.469,34.821,134.123z"/>
	</g>
</g>
</svg>
