<?xml version="1.0" encoding="utf-8"?>
<!-- Generator: Adobe Illustrator 16.0.0, SVG Export Plug-In . SVG Version: 6.00 Build 0)  -->
<!DOCTYPE svg PUBLIC "-//W3C//DTD SVG 1.1//EN" "http://www.w3.org/Graphics/SVG/1.1/DTD/svg11.dtd">
<svg version="1.1" id="Capa_1" xmlns="http://www.w3.org/2000/svg" xmlns:xlink="http://www.w3.org/1999/xlink" x="0px" y="0px" width="100px" height="100px" viewBox="0 0 200 200" enable-background="new 0 0 200 200" xml:space="preserve">
<g>
	<path fill="#FFFFFF" d="M23.164,163.387l94.153,16.311V20.303L23.164,38.096V163.387z M52.273,78.509
		c1.111-2.142,2.623-3.905,4.537-5.288c1.912-1.383,4.129-2.401,6.648-3.053c2.518-0.651,5.185-0.978,8-0.978
		c2.765,0,5.216,0.18,7.352,0.539c2.135,0.359,4.105,0.912,5.907,1.656v11.933c-0.889-0.665-1.858-1.25-2.907-1.756
		c-1.05-0.505-2.129-0.923-3.24-1.257c-1.111-0.332-2.217-0.578-3.315-0.738s-2.142-0.24-3.13-0.24c-1.357,0-2.592,0.14-3.703,0.419
		c-1.111,0.279-2.051,0.671-2.815,1.177c-0.765,0.506-1.358,1.111-1.777,1.816c-0.421,0.705-0.63,1.497-0.63,2.375
		c0,0.958,0.234,1.816,0.703,2.574c0.47,0.758,1.137,1.477,2.001,2.155c0.863,0.678,1.913,1.343,3.147,1.996
		s2.631,1.323,4.186,2.015c2.123,0.957,4.031,1.976,5.723,3.053c1.691,1.077,3.142,2.294,4.352,3.651
		c1.209,1.356,2.135,2.907,2.778,4.65c0.642,1.741,0.963,3.771,0.963,6.085c0,3.192-0.562,5.872-1.686,8.04
		c-1.124,2.169-2.647,3.926-4.574,5.27c-1.927,1.342-4.167,2.307-6.722,2.893c-2.557,0.585-5.254,0.877-8.094,0.877
		c-2.914,0-5.686-0.266-8.314-0.797c-2.63-0.532-4.908-1.33-6.834-2.395v-12.771c2.148,1.942,4.482,3.399,7,4.37
		c2.52,0.971,5.063,1.457,7.63,1.457c1.506,0,2.821-0.146,3.944-0.439c1.125-0.293,2.062-0.699,2.815-1.217
		c0.753-0.52,1.315-1.131,1.686-1.836s0.556-1.471,0.556-2.295c0-1.117-0.297-2.115-0.889-2.993
		c-0.594-0.878-1.402-1.69-2.427-2.435s-2.24-1.463-3.647-2.155c-1.408-0.69-2.927-1.396-4.557-2.114
		c-4.147-1.862-7.24-4.137-9.277-6.824c-2.037-2.687-3.056-5.933-3.056-9.738C50.606,83.211,51.162,80.65,52.273,78.509z"/>
	<path fill="#FFFFFF" d="M164.766,82.702c-0.745,0-1.474,0.064-2.192,0.158c-3.603-7.741-9.382-14.155-16.499-18.383
		c0.009-0.227,0.034-0.45,0.034-0.68c0-9.349-7.579-16.928-16.929-16.928c-2.37,0-4.625,0.489-6.673,1.368v10.921v6.704v13.495
		c2.048,0.879,4.303,1.368,6.673,1.368c6.655,0,12.396-3.849,15.162-9.434c5.006,3.394,9.113,8.14,11.862,13.753
		c-5,2.941-8.367,8.364-8.367,14.585c0,6.752,3.963,12.563,9.681,15.281c-2.565,6.695-6.983,12.392-12.584,16.364
		c-2.467-6.297-8.582-10.763-15.754-10.763c-2.37,0-4.625,0.488-6.673,1.367v15.227v6.703v9.19c2.048,0.88,4.303,1.368,6.673,1.368
		c8.991,0,16.324-7.014,16.875-15.866c8.199-4.862,14.62-12.632,17.991-21.979c0.24,0.01,0.477,0.036,0.72,0.036
		c9.35,0,16.928-7.579,16.928-16.929C181.693,90.28,174.115,82.702,164.766,82.702z"/>
</g>
</svg>
