<?xml version="1.0" encoding="utf-8"?>
<!-- Generator: Adobe Illustrator 16.0.0, SVG Export Plug-In . SVG Version: 6.00 Build 0)  -->
<!DOCTYPE svg PUBLIC "-//W3C//DTD SVG 1.1//EN" "http://www.w3.org/Graphics/SVG/1.1/DTD/svg11.dtd">
<svg version="1.1" id="Capa_1" xmlns="http://www.w3.org/2000/svg" xmlns:xlink="http://www.w3.org/1999/xlink" x="0px" y="0px"
	 width="200px" height="200px" viewBox="0 0 200 200" enable-background="new 0 0 200 200" xml:space="preserve">
<g>
	<path fill="#FFFFFF" d="M100,35.252c-35.56,0-64.389,28.988-64.389,64.746c0,35.761,28.829,64.75,64.389,64.75
		c35.562,0,64.389-28.988,64.389-64.75C164.389,64.241,135.562,35.252,100,35.252z M100.629,146.977
		c-26.003,0-47.081-21.195-47.081-47.343c0-26.146,21.078-47.342,47.081-47.342c26.001,0,47.081,21.196,47.081,47.342
		C147.71,125.781,126.63,146.977,100.629,146.977z"/>
	<path fill="#FFFFFF" d="M56.955,111.658c0,0,7.713,30.131,37.843,33.359c30.133,3.229,45.199-22.957,45.199-22.957l-8.071-5.021
		c0,0-12.557,21.162-34.975,20.445C74.531,136.768,63.233,123.316,56.955,111.658z"/>
	<path fill="#FFFFFF" d="M72.813,128.682c6.791,4.824,14.804,7.371,24.174,7.672c21.468,0.688,33.843-19.688,33.965-19.893
		l0.59-0.994l0.981,0.611l7.556,4.701c6.939-11.404,5.279-24.172,5.279-24.172l-13.971,0.164c0,0,1.076,20.627-23.675,32.284
		c-10.309,4.855-27.617,4.063-38.023-4.125C69.689,124.93,70.6,126.561,72.813,128.682z"/>
	<path fill="#FFFFFF" d="M129.326,95.688l-0.061-1.177l1.178-0.014l14.706-0.152c-0.655-11.398-9.277-21.429-9.277-21.429
		L119.37,83.141c0,0,10.505,7.853,0.994,26.412c-3.309,6.455-10.426,13.424-16.96,16.486c-7.99,3.744-14.13,3.938-14.13,3.938
		c0.807,0.32,8.532,1.859,19.369-2.955C130.021,117.525,129.366,96.5,129.326,95.688z"/>
</g>
</svg>
