<?xml version="1.0" encoding="utf-8"?>
<!-- Generator: Adobe Illustrator 16.0.0, SVG Export Plug-In . SVG Version: 6.00 Build 0)  -->
<!DOCTYPE svg PUBLIC "-//W3C//DTD SVG 1.1//EN" "http://www.w3.org/Graphics/SVG/1.1/DTD/svg11.dtd">

<svg width="100px" height="100px" viewBox="0 0 200 200" enable-background="new 0 0 200 200"  xmlns="http://www.w3.org/2000/svg" >
 <g>
  <title>Layer 1</title>
  <g id="svg_2">
   <g id="svg_3">
    <polygon id="svg_4" points="168.297,67.071 132.93,31.703 123.172,41.459 140.246,58.534 137.805,60.973 120.732,43.899          112.195,52.436 129.27,69.51 126.832,71.949 109.756,54.874 99.998,64.631 135.367,99.999   " fill="#FFFFFF"/>
    <polygon id="svg_5" points="52.436,112.195 69.51,129.27 67.07,131.709 49.996,114.635 42.678,121.951 59.754,139.027          57.314,141.467 40.238,124.391 31.703,132.928 67.07,168.297 99.998,135.367 64.631,99.999   " fill="#FFFFFF"/>
    <path id="svg_6" d="m56.094002,86.584l75.614998,75.615005l29.078003,-0.215012l1.412003,-30.274994l-75.615005,-75.614998l-30.489998,30.489998zm94.071999,48.393005l0.074005,15.986008l-15.781006,-0.05101l15.707001,-15.934998z" fill="#FFFFFF"/>
    <path id="svg_7" d="m76.828003,48.776001l-10.976006,-10.976002c-20.937996,8.334999 -30.489998,30.489002 -30.489998,30.489002l10.977001,10.977997l30.489002,-30.490997z" fill="#FFFFFF"/>
   </g>
  </g>
 </g>
</svg>