<?xml version="1.0" encoding="utf-8"?>
<!-- Generator: Adobe Illustrator 16.0.0, SVG Export Plug-In . SVG Version: 6.00 Build 0)  -->
<!DOCTYPE svg PUBLIC "-//W3C//DTD SVG 1.1//EN" "http://www.w3.org/Graphics/SVG/1.1/DTD/svg11.dtd">
<svg version="1.1" id="Capa_1" xmlns="http://www.w3.org/2000/svg" xmlns:xlink="http://www.w3.org/1999/xlink" x="0px" y="0px"
	 width="200px" height="200px" viewBox="0 0 200 200" enable-background="new 0 0 200 200" xml:space="preserve">
<g>
	<g>
		<polygon fill="#FFFFFF" points="168.297,67.071 132.93,31.703 123.172,41.459 140.246,58.534 137.805,60.973 120.732,43.899 
			112.195,52.436 129.27,69.51 126.832,71.949 109.756,54.874 99.998,64.631 135.367,99.999 		"/>
		<polygon fill="#FFFFFF" points="52.436,112.195 69.51,129.27 67.07,131.709 49.996,114.635 42.678,121.951 59.754,139.027 
			57.314,141.467 40.238,124.391 31.703,132.928 67.07,168.297 99.998,135.367 64.631,99.999 		"/>
		<path fill="#FFFFFF" d="M56.094,86.584l75.615,75.615l29.078-0.215l1.412-30.275L86.584,56.094L56.094,86.584z M150.166,134.977
			l0.074,15.986l-15.781-0.051L150.166,134.977z"/>
		<path fill="#FFFFFF" d="M76.828,48.776L65.852,37.8c-20.938,8.335-30.49,30.489-30.49,30.489l10.977,10.978L76.828,48.776z"/>
	</g>
</g>
</svg>
