<?xml version="1.0" encoding="utf-8"?>
<!-- Generator: Adobe Illustrator 16.0.0, SVG Export Plug-In . SVG Version: 6.00 Build 0)  -->
<!DOCTYPE svg PUBLIC "-//W3C//DTD SVG 1.1//EN" "http://www.w3.org/Graphics/SVG/1.1/DTD/svg11.dtd">
<svg width="200" height="100" xmlns="http://www.w3.org/2000/svg">
 <!-- Created with SVG-edit - http://svg-edit.googlecode.com/ -->
 <defs>
  <linearGradient id="svg_1">
   <stop offset="0" stop-color="#FF0000"/>
   <stop offset="1" stop-color="#00ffff"/>
  </linearGradient>
 </defs>
 <g>
  <title>Layer 1</title>
  <g id="svg_56">
   <g transform="matrix(0.839087 0 0 0.839087 -355.474 -223.567)" id="svg_24">
    <g id="svg_25">
     <g id="svg_26">
      <g id="svg_27">
       <g id="svg_28">
        <path id="svg_29" d="m520.65515,315.87326c0,-3.50598 -3.23499,-5.008 -7.91498,-5.008c-4.99399,0 -7.72598,2.46902 -7.72598,4.40802c0,0.99799 0.82196,1.86099 2.06097,1.86099c1.93201,0 2.034,-2.66699 5.634,-2.66699c1.63696,0 3.06396,0.599 3.06396,1.99799c0,1.40601 -0.927,1.677 -2.09796,1.80701l-2.96896,0.33099c-3.73303,0.436 -6.81,1.573 -6.81,5.591c0,3.06299 2.74194,4.95999 5.51196,4.95999c2.56598,0 4.76895,-0.72998 6.67099,-2.83398c0.06,1.50101 0.76599,2.83398 2.85999,2.83398c1.172,0 2.21198,-0.76801 2.21198,-1.867c0,-0.76797 -0.49695,-1.23099 -0.49695,-3.25998l0,-8.15402m-4.88104,6.56802c0,1.78699 -1.63,3.51199 -4.29196,3.51199c-1.67297,0 -2.703,-0.89801 -2.703,-1.99301c0,-1.452 1.09399,-2.091 3.133,-2.38699l1.76498,-0.272c0.57202,-0.09399 1.56403,-0.26599 2.09802,-0.763l0,1.90302l-0.00104,0z" fill="#FFFFFF"/>
        <path id="svg_30" d="m522.44116,314.63528c-0.12604,-0.39502 -0.297,-0.935 -0.297,-1.23401c0,-1.733 1.20001,-2.53601 2.37,-2.53601c1.82501,0 2.29596,1.53802 2.43396,2.03702l3.27002,10.99298l0.06604,0l3.26099,-10.99298c0.13995,-0.49899 0.59998,-2.03702 2.44501,-2.03702c1.15698,0 2.362,0.80301 2.362,2.53601c0,0.29999 -0.18201,0.84 -0.30005,1.23401l-4.60297,12.789c-0.47699,1.29599 -0.77203,1.729 -3.20502,1.729c-2.43201,0 -2.73297,-0.43402 -3.19501,-1.729l-4.60797,-12.789" fill="#FFFFFF"/>
        <path id="svg_31" d="m555.68616,315.87326c0,-3.50598 -3.22601,-5.008 -7.90399,-5.008c-4.99902,0 -7.73004,2.46902 -7.73004,4.40802c0,0.99799 0.83203,1.86099 2.06604,1.86099c1.93799,0 2.034,-2.66699 5.63196,-2.66699c1.64203,0 3.065,0.599 3.065,1.99799c0,1.40601 -0.92499,1.677 -2.09698,1.80701l-2.96802,0.33099c-3.73798,0.436 -6.79095,1.573 -6.79095,5.591c0,3.06299 2.72101,4.95999 5.49298,4.95999c2.56598,0 4.76898,-0.72998 6.66901,-2.83398c0.07001,1.50101 0.76202,2.83398 2.86902,2.83398c1.16595,0 2.19897,-0.76801 2.19897,-1.867c0,-0.76797 -0.50403,-1.23099 -0.50403,-3.25998l0,-8.15402m-4.87,6.56802c0,1.78699 -1.62598,3.51199 -4.29199,3.51199c-1.67096,0 -2.70599,-0.89801 -2.70599,-1.99301c0,-1.452 1.10101,-2.091 3.13202,-2.38699l1.77002,-0.272c0.57495,-0.09399 1.56995,-0.26599 2.09698,-0.763l0,1.90302l-0.00104,0z" fill="#FFFFFF"/>
        <path id="svg_32" d="m558.89417,313.30026c0,-1.46597 0.659,-2.43597 2.19098,-2.43597c1.53802,0 2.20398,0.97 2.20398,2.43597l0,0.64001l0.06702,0c1.362,-1.806 3.13599,-3.07501 5.901,-3.07501c2.92798,0 6.13501,1.47202 6.13501,6.40302l0,9.44998c0,1.30103 -0.53699,2.436 -2.427,2.436c-1.90601,0 -2.45099,-1.13498 -2.45099,-2.436l0,-8.47998c0,-1.96701 -0.961,-3.36401 -3.06403,-3.36401c-1.68597,0 -3.69501,1.397 -3.69501,3.82901l0,8.01599c0,1.30099 -0.52997,2.436 -2.435,2.436c-1.896,0 -2.427,-1.13501 -2.427,-2.436l0,-13.41901" fill="#FFFFFF"/>
        <path id="svg_33" d="m594.43414,315.87326c0,-3.50598 -3.242,-5.008 -7.909,-5.008c-4.99902,0 -7.72601,2.46902 -7.72601,4.40802c0,0.99799 0.828,1.86099 2.065,1.86099c1.92902,0 2.03003,-2.66699 5.62402,-2.66699c1.64001,0 3.073,0.599 3.073,1.99799c0,1.40601 -0.93201,1.677 -2.09698,1.80701l-2.96899,0.33099c-3.737,0.436 -6.80804,1.573 -6.80804,5.591c0,3.06299 2.73804,4.95999 5.505,4.95999c2.57001,0 4.76801,-0.72998 6.672,-2.83398c0.06201,1.50101 0.76404,2.83398 2.85999,2.83398c1.16803,0 2.20801,-0.76801 2.20801,-1.867c0,-0.76797 -0.5,-1.23099 -0.5,-3.25998l0,-8.15402m-4.87,6.56802c0,1.78699 -1.62897,3.51199 -4.30499,3.51199c-1.66199,0 -2.69397,-0.89801 -2.69397,-1.99301c0,-1.452 1.09296,-2.091 3.13495,-2.38699l1.76801,-0.272c0.56403,-0.09399 1.56,-0.26599 2.09705,-0.763l0,1.90302l-0.00104,0z" fill="#FFFFFF"/>
        <path id="svg_34" d="m614.13916,306.73029c0,-1.599 -0.97101,-2.42603 -2.44,-2.42603s-2.435,0.82703 -2.435,2.42603l0,6.604l-0.06604,0c-0.96796,-1.565 -2.62897,-2.46902 -4.80194,-2.46902c-5.13904,0 -7.50305,4.36801 -7.50305,9.03702c0,6.28101 3.56702,9.25198 7.638,9.25198c2.367,0 4.33502,-1 5.138,-3.06299l0.065,0l0,0.76199c0,1.5 0.76202,2.30099 2.198,2.30099c1.50104,0 2.20703,-0.80099 2.20703,-2.30099l0,-20.12299m-12.375,13.33798c0,-2.259 0.76599,-5.397 3.86798,-5.397c2.966,-0.035 3.89899,2.90002 3.89899,5.397c0,2.767 -1.06897,5.28799 -3.89899,5.28799c-2.60101,-0.07098 -3.86798,-2.41898 -3.86798,-5.28799z" fill="#FFFFFF"/>
        <path id="svg_35" d="m632.13916,320.93729c1.633,0 2.14398,-0.43201 2.14398,-2.10001c0,-3.99802 -3.20697,-7.97299 -8.81299,-7.97299c-5.76703,0 -9.20001,3.806 -9.20001,9.474c0,4.21899 2.56104,8.815 9.37604,8.815c2.92499,0 7.625,-1.367 7.625,-4.29703c0,-0.89697 -0.83002,-1.88898 -2.005,-1.88898c-1.96704,0 -1.96704,2.388 -5.62,2.388c-2.841,0 -4.50806,-1.85901 -4.50806,-4.41901l11.00104,0m-11.00201,-2.79401c0.52802,-2.375 2.00201,-3.87 4.43799,-3.87c2.16003,0 3.83099,1.63101 4.08899,3.87l-8.52698,0z" fill="#FFFFFF"/>
       </g>
       <path id="svg_36" d="m637.27515,308.81326l0,-1.21597l0.81403,0c0.41095,0 0.85095,0.09097 0.85095,0.57498c0,0.60602 -0.44897,0.64099 -0.95398,0.64099l-0.711,0m0,0.50702l0.68903,0l1.034,1.69199l0.66296,0l-1.11798,-1.72198c0.58002,-0.07202 1.01898,-0.375 1.01898,-1.082c0,-0.77402 -0.45996,-1.112 -1.38501,-1.112l-1.492,0l0,3.91599l0.59003,0l0,-1.69199zm0.72498,3.12299c1.84601,0 3.42401,-1.431 3.42401,-3.39499c0,-1.952 -1.578,-3.38602 -3.42401,-3.38602c-1.88098,0 -3.45795,1.43402 -3.45795,3.38602c0,1.96399 1.57697,3.39499 3.45795,3.39499zm-2.78198,-3.39499c0,-1.61401 1.22601,-2.82001 2.78198,-2.82001c1.53503,0 2.74805,1.20599 2.74805,2.82001c0,1.63199 -1.21301,2.83301 -2.74805,2.83301c-1.55695,0 -2.78198,-1.20102 -2.78198,-2.83301z" fill="#FFFFFF"/>
      </g>
      <g id="svg_37">
       <path id="svg_38" d="m470.86417,329.15826c-1.49896,0 -2.71497,1.21301 -2.71497,2.70502c0,1.496 1.216,2.71899 2.71497,2.71899l27.08899,0c1.49701,0 2.70905,-1.22299 2.70905,-2.71899c0,-1.492 -1.21204,-2.70502 -2.70905,-2.70502l-27.08899,0" fill="#FFFFFF"/>
       <path id="svg_39" d="m453.58417,311.95828c-0.13397,1.48599 0.96201,2.80298 2.45901,2.93799c1.492,0.13602 2.81299,-0.97101 2.94501,-2.466c0.48102,-5.46899 4.46399,-8.237 11.83301,-8.237c8.94501,0 10.18597,3.237 10.18597,6.73901c0,0 0,2.94299 0,5.87198c-2.98102,-2.013 -6.44598,-3.241 -10.14801,-3.241c-10.09198,0 -18.30399,8.207 -18.30399,18.27502c0,10.08398 8.21201,18.28497 18.30399,18.28497c6.133,0 11.802,-3.03497 15.18604,-8.12698c0.82898,-1.242 0.49597,-2.92801 -0.75903,-3.758c-1.24298,-0.828 -2.92297,-0.49402 -3.758,0.75598c-2.38,3.57202 -6.36597,5.70102 -10.66901,5.70102c-7.104,0 -12.87997,-5.76801 -12.87997,-12.85699c0,-7.09201 5.77597,-12.85001 12.87997,-12.85001c4.26202,0 8.22699,2.103 10.60901,5.61301c0.66901,0.98798 1.90503,1.42499 3.04102,1.07199c1.14301,-0.34799 1.92102,-1.392 1.92102,-2.58099l0,-12.16101c0,-5.552 -2.711,-12.168 -15.60803,-12.168c-10.21002,0 -16.50198,4.80301 -17.23801,13.19501" fill="#FFFFFF"/>
      </g>
     </g>
     <g id="svg_40">
      <path id="svg_41" d="m510.41116,348.90228l-3.47699,-4.832l-0.08099,0l0,4.832l-1.80402,0l0,-11.17401c0.81104,-0.047 1.73804,-0.064 2.99603,-0.064c2.31598,0 3.90601,0.811 3.90601,3.03101c0,1.785 -1.341,2.92798 -3.16205,3.125c0.31403,0.39798 0.66302,0.828 0.94305,1.19299l2.94492,3.88901l-2.26596,0zm-2.61499,-9.76602c-0.349,0 -0.67999,0.01801 -0.94202,0.03302l0,3.543c0.164,0.01599 0.479,0.03101 0.87604,0.03101c1.45599,0 2.33398,-0.74402 2.33398,-1.854c-0.00098,-1.22302 -0.76202,-1.75302 -2.26801,-1.75302z" fill="#FFFFFF"/>
      <path id="svg_42" d="m520.25818,344.89627l-5.24701,0c-0.05005,1.90399 0.79297,2.76401 2.43396,2.76401c0.84302,0 1.72101,-0.19901 2.39801,-0.52701l0.16602,1.40399c-0.82599,0.35001 -1.83698,0.53101 -2.84698,0.53101c-2.565,0 -3.974,-1.32401 -3.974,-4.22098c0,-2.48203 1.35797,-4.33603 3.75995,-4.33603c2.35004,0 3.35901,1.604 3.35901,3.55902c0,0.22998 -0.01697,0.50998 -0.04895,0.82599zm-3.37604,-3.07599c-0.99402,0 -1.68896,0.72699 -1.83801,1.836l3.49103,0c0.034,-1.125 -0.61102,-1.836 -1.65302,-1.836z" fill="#FFFFFF"/>
      <path id="svg_43" d="m523.53217,349.06827c-0.612,0 -1.224,-0.06598 -1.737,-0.16599l0.04999,-1.50601c0.51202,0.14801 1.159,0.26401 1.78802,0.26401c0.95898,0 1.62195,-0.414 1.62195,-1.09201c0,-1.65601 -3.60797,-0.66199 -3.60797,-3.508c0,-1.42401 1.159,-2.54901 3.39197,-2.54901c0.48102,0 1.04401,0.06403 1.54004,0.14801l-0.04999,1.439c-0.49701,-0.146 -1.07501,-0.22998 -1.604,-0.22998c-0.97705,0 -1.45801,0.396 -1.45801,1.02499c0,1.58798 3.64301,0.77701 3.64301,3.51001c-0.00201,1.53998 -1.375,2.66498 -3.578,2.66498z" fill="#FFFFFF"/>
      <path id="svg_44" d="m533.98914,348.90228c0,-0.42999 0.034,-1.14301 0.11603,-1.60699l-0.01599,-0.01602c-0.48102,1.061 -1.47504,1.789 -2.86401,1.789c-1.87103,0 -2.45001,-1.17599 -2.45001,-2.633l0,-5.76001l1.75598,0l0,5.29703c0,1.02698 0.27899,1.62097 1.224,1.62097c1.24103,0 2.15204,-1.30698 2.15204,-2.94498l0,-3.97302l1.76996,0l0,8.22702l-1.68799,0z" fill="#FFFFFF"/>
      <path id="svg_45" d="m537.57416,348.90228l0,-12.082l1.77002,0l0,12.082l-1.77002,0z" fill="#FFFFFF"/>
      <path id="svg_46" d="m544.42615,349.05026c-1.75702,0 -2.28302,-0.67999 -2.28302,-2.51599l0,-4.48401l-1.57495,0l0,-1.375l1.57495,0l0,-2.61499l1.75403,-0.479l0,3.09399l2.16901,0l0,1.375l-2.15302,0l0,3.93802c0,1.22501 0.24902,1.55701 1.07599,1.55701c0.36499,0 0.763,-0.04901 1.07703,-0.13303l0,1.457c-0.48004,0.099 -1.09399,0.181 -1.64001,0.181z" fill="#FFFFFF"/>
      <path id="svg_47" d="m549.19318,349.06827c-0.612,0 -1.22504,-0.06598 -1.73804,-0.16599l0.05103,-1.50601c0.51196,0.14801 1.159,0.26401 1.78699,0.26401c0.95898,0 1.62201,-0.414 1.62201,-1.09201c0,-1.65601 -3.60803,-0.66199 -3.60803,-3.508c0,-1.42401 1.159,-2.54901 3.39301,-2.54901c0.48102,0 1.04303,0.06403 1.54004,0.14801l-0.05005,1.439c-0.49695,-0.146 -1.07495,-0.22998 -1.60498,-0.22998c-0.97601,0 -1.45697,0.396 -1.45697,1.02499c0,1.58798 3.64197,0.77701 3.64197,3.51001c-0.00201,1.53998 -1.37396,2.66498 -3.57697,2.66498z" fill="#FFFFFF"/>
      <path id="svg_48" d="m563.74518,348.90228l-3.47705,-4.832l-0.08099,0l0,4.832l-1.80597,0l0,-11.17401c0.81201,-0.047 1.73596,-0.064 2.995,-0.064c2.31702,0 3.90698,0.811 3.90698,3.03101c0,1.785 -1.34198,2.92798 -3.16199,3.125c0.315,0.39798 0.66199,0.828 0.94299,1.19299l2.94501,3.88901l-2.26398,0zm-2.61505,-9.76602c-0.35095,0 -0.68097,0.01801 -0.94196,0.03302l0,3.543c0.16296,0.01599 0.47797,0.03101 0.875,0.03101c1.45697,0 2.33197,-0.74402 2.33197,-1.854c-0.00098,-1.22302 -0.76001,-1.75302 -2.26501,-1.75302z" fill="#FFFFFF"/>
      <path id="svg_49" d="m573.59216,344.89627l-5.24799,0c-0.05103,1.90399 0.79199,2.76401 2.43195,2.76401c0.84302,0 1.72302,-0.19901 2.40002,-0.52701l0.16498,1.40399c-0.82397,0.35001 -1.836,0.53101 -2.84698,0.53101c-2.565,0 -3.974,-1.32401 -3.974,-4.22098c0,-2.48203 1.35803,-4.33603 3.75903,-4.33603c2.35199,0 3.36096,1.604 3.36096,3.55902c0,0.22998 -0.01599,0.50998 -0.04797,0.82599zm-3.37604,-3.07599c-0.99298,0 -1.69,0.72699 -1.841,1.836l3.49402,0c0.03198,-1.125 -0.61298,-1.836 -1.65302,-1.836z" fill="#FFFFFF"/>
      <path id="svg_50" d="m579.89417,348.90228c0,-0.53101 0.01801,-1.07602 0.08197,-1.52301l-0.01501,-0.01599c-0.39697,0.97699 -1.42499,1.70499 -2.73297,1.70499c-1.40503,0 -2.29999,-0.79498 -2.29999,-2.10199c0,-1.88901 1.88599,-2.98001 4.85101,-2.98001l0,-0.52899c0,-1.02701 -0.43201,-1.55499 -1.72302,-1.55499c-0.76001,0 -1.75299,0.23199 -2.45001,0.66l-0.164,-1.50601c0.81201,-0.314 1.83704,-0.54501 2.89703,-0.54501c2.51495,0 3.20996,1.09201 3.20996,2.78101l0,3.35901c0,0.711 0.01703,1.55701 0.04901,2.25l-1.70398,0l0,0.00101zm-0.11499,-3.72501c-2.58203,0 -3.14404,0.77701 -3.14404,1.48999c0,0.61102 0.42902,1.01001 1.12604,1.01001c1.20801,0 2.01801,-1.16 2.01801,-2.33401l0,-0.16599z" fill="#FFFFFF"/>
      <path id="svg_51" d="m583.44714,348.90228l0,-12.082l1.76898,0l0,12.082l-1.76898,0z" fill="#FFFFFF"/>
      <path id="svg_52" d="m588.00818,339.45126c-0.62903,0 -1.14301,-0.496 -1.14301,-1.10898s0.51398,-1.10901 1.14301,-1.10901c0.61096,0 1.125,0.48199 1.125,1.10901c0,0.61298 -0.51404,1.10898 -1.125,1.10898zm-0.89404,9.45102l0,-8.22702l1.76904,0l0,8.22702l-1.76904,0z" fill="#FFFFFF"/>
      <path id="svg_53" d="m590.52515,348.90228l0,-1.258l3.65503,-5.41202c-0.41101,0.01599 -1.14001,0.03302 -1.98206,0.03302l-1.59094,0l0,-1.59003l5.677,0l0,1.242l-3.60803,5.396c0.41602,-0.01999 1.39099,-0.03497 2.06799,-0.03497l1.60498,0l0,1.62299l-5.82397,0l0,0.00101z" fill="#FFFFFF"/>
      <path id="svg_54" d="m604.60614,344.89627l-5.245,0c-0.04999,1.90399 0.79303,2.76401 2.43402,2.76401c0.84296,0 1.72101,-0.19901 2.39996,-0.52701l0.16504,1.40399c-0.83002,0.35001 -1.83801,0.53101 -2.84802,0.53101c-2.565,0 -3.97302,-1.32401 -3.97302,-4.22098c0,-2.48203 1.35602,-4.33603 3.75702,-4.33603c2.35199,0 3.35901,1.604 3.35901,3.55902c0.00098,0.22998 -0.01398,0.50998 -0.04901,0.82599zm-3.37701,-3.07599c-0.99298,0 -1.68597,0.72699 -1.836,1.836l3.49402,0c0.03302,-1.125 -0.61499,-1.836 -1.65802,-1.836z" fill="#FFFFFF"/>
      <path id="svg_55" d="m611.49115,348.90228c0,-0.42999 0.03198,-1.07602 0.117,-1.539l-0.034,0c-0.448,1.008 -1.40802,1.70499 -2.68103,1.70499c-2.01898,0 -3.02997,-1.48999 -3.02997,-3.87299c0,-2.83002 1.64099,-4.64999 4.30298,-4.64999c0.40002,0 0.79498,0.03098 1.24304,0.064l0,-3.789l1.75397,0l0,12.082l-1.672,0zm-0.08197,-6.80301c-0.44806,-0.10001 -0.87805,-0.146 -1.30804,-0.146c-1.40698,0 -2.36798,0.85901 -2.36798,3.07599c0,1.65601 0.51501,2.582 1.64001,2.582c1.30798,0 2.03601,-1.55701 2.03601,-2.96298l0,-2.54901z" fill="#FFFFFF"/>
     </g>
    </g>
   </g>
  </g>
 </g>
</svg>