<?xml version="1.0" encoding="utf-8"?>
<!-- Generator: Adobe Illustrator 16.0.0, SVG Export Plug-In . SVG Version: 6.00 Build 0)  -->
<!DOCTYPE svg PUBLIC "-//W3C//DTD SVG 1.1//EN" "http://www.w3.org/Graphics/SVG/1.1/DTD/svg11.dtd">
<svg version="1.1" id="Capa_1" xmlns="http://www.w3.org/2000/svg" xmlns:xlink="http://www.w3.org/1999/xlink" x="0px" y="0px"
	 width="200px" height="200px" viewBox="0 0 200 200" enable-background="new 0 0 200 200" xml:space="preserve">
<g>
	<g>
		<g>
			<g>
				<g>
					<path fill="#211915" d="M73.666,91.43c0-3.506-3.235-5.008-7.915-5.008c-4.994,0-7.726,2.469-7.726,4.408
						c0,0.998,0.822,1.861,2.061,1.861c1.932,0,2.034-2.667,5.634-2.667c1.637,0,3.064,0.599,3.064,1.998
						c0,1.406-0.927,1.677-2.098,1.807l-2.969,0.331c-3.733,0.436-6.81,1.573-6.81,5.591c0,3.063,2.742,4.96,5.512,4.96
						c2.566,0,4.769-0.73,6.671-2.834c0.06,1.501,0.766,2.834,2.86,2.834c1.172,0,2.212-0.768,2.212-1.867
						c0-0.768-0.497-1.23-0.497-3.26L73.666,91.43 M68.784,97.998c0,1.787-1.63,3.512-4.292,3.512c-1.673,0-2.703-0.898-2.703-1.993
						c0-1.452,1.094-2.091,3.133-2.387l1.765-0.272c0.572-0.094,1.564-0.266,2.098-0.763L68.784,97.998L68.784,97.998z"/>
					<path fill="#211915" d="M75.452,90.192c-0.126-0.395-0.297-0.935-0.297-1.234c0-1.733,1.2-2.536,2.37-2.536
						c1.825,0,2.296,1.538,2.434,2.037l3.27,10.993h0.066l3.261-10.993c0.14-0.499,0.6-2.037,2.445-2.037
						c1.157,0,2.362,0.803,2.362,2.536c0,0.3-0.182,0.84-0.3,1.234L86.46,102.98c-0.477,1.297-0.772,1.729-3.205,1.729
						c-2.432,0-2.733-0.435-3.195-1.729L75.452,90.192"/>
					<path fill="#211915" d="M108.697,91.43c0-3.506-3.227-5.008-7.904-5.008c-4.999,0-7.73,2.469-7.73,4.408
						c0,0.998,0.832,1.861,2.066,1.861c1.938,0,2.034-2.667,5.633-2.667c1.641,0,3.064,0.599,3.064,1.998
						c0,1.406-0.926,1.677-2.098,1.807l-2.967,0.331c-3.738,0.436-6.791,1.573-6.791,5.591c0,3.063,2.721,4.96,5.493,4.96
						c2.566,0,4.77-0.73,6.669-2.834c0.07,1.501,0.763,2.834,2.869,2.834c1.166,0,2.199-0.768,2.199-1.867
						c0-0.768-0.505-1.23-0.505-3.26V91.43 M103.826,97.998c0,1.787-1.626,3.512-4.292,3.512c-1.671,0-2.706-0.898-2.706-1.993
						c0-1.452,1.101-2.091,3.132-2.387l1.771-0.272c0.574-0.094,1.569-0.266,2.097-0.763L103.826,97.998L103.826,97.998z"/>
					<path fill="#211915" d="M111.904,88.857c0-1.466,0.66-2.436,2.191-2.436c1.538,0,2.204,0.97,2.204,2.436v0.64h0.067
						c1.361-1.806,3.136-3.075,5.9-3.075c2.928,0,6.135,1.472,6.135,6.403v9.45c0,1.301-0.536,2.436-2.426,2.436
						c-1.906,0-2.451-1.135-2.451-2.436v-8.48c0-1.967-0.961-3.364-3.064-3.364c-1.686,0-3.695,1.397-3.695,3.829v8.016
						c0,1.302-0.529,2.437-2.435,2.437c-1.896,0-2.427-1.135-2.427-2.437V88.857"/>
					<path fill="#211915" d="M147.445,91.43c0-3.506-3.242-5.008-7.909-5.008c-4.999,0-7.726,2.469-7.726,4.408
						c0,0.998,0.828,1.861,2.064,1.861c1.93,0,2.029-2.667,5.624-2.667c1.64,0,3.073,0.599,3.073,1.998
						c0,1.406-0.932,1.677-2.098,1.807l-2.969,0.331c-3.736,0.436-6.808,1.573-6.808,5.591c0,3.063,2.737,4.96,5.505,4.96
						c2.57,0,4.768-0.73,6.672-2.834c0.063,1.501,0.764,2.834,2.859,2.834c1.168,0,2.209-0.768,2.209-1.867
						c0-0.768-0.5-1.23-0.5-3.26V91.43 M142.573,97.998c0,1.787-1.63,3.512-4.306,3.512c-1.662,0-2.693-0.898-2.693-1.993
						c0-1.452,1.093-2.091,3.135-2.387l1.768-0.272c0.564-0.094,1.561-0.266,2.098-0.763L142.573,97.998L142.573,97.998z"/>
					<path fill="#211915" d="M167.15,82.287c0-1.599-0.971-2.426-2.44-2.426c-1.469,0-2.435,0.827-2.435,2.426v6.604h-0.066
						c-0.968-1.565-2.629-2.469-4.802-2.469c-5.14,0-7.503,4.368-7.503,9.037c0,6.281,3.566,9.252,7.638,9.252
						c2.367,0,4.335-1,5.138-3.063h0.065v0.762c0,1.5,0.762,2.301,2.198,2.301c1.5,0,2.207-0.801,2.207-2.301V82.287
						 M154.775,95.625c0-2.259,0.766-5.397,3.867-5.397c2.967-0.035,3.899,2.9,3.899,5.397c0,2.767-1.069,5.288-3.899,5.288
						C156.042,100.842,154.775,98.494,154.775,95.625z"/>
					<path fill="#211915" d="M185.15,96.494c1.633,0,2.144-0.432,2.144-2.1c0-3.998-3.207-7.973-8.813-7.973
						c-5.767,0-9.199,3.806-9.199,9.474c0,4.219,2.561,8.815,9.376,8.815c2.925,0,7.625-1.367,7.625-4.297
						c0-0.897-0.83-1.889-2.005-1.889c-1.967,0-1.967,2.388-5.62,2.388c-2.841,0-4.509-1.859-4.509-4.419L185.15,96.494
						 M174.148,93.699c0.527-2.375,2.002-3.87,4.438-3.87c2.16,0,3.831,1.631,4.089,3.87H174.148z"/>
				</g>
				<path fill="#211915" d="M190.286,84.37v-1.216h0.813c0.411,0,0.852,0.091,0.852,0.575c0,0.606-0.449,0.641-0.954,0.641H190.286
					 M190.286,84.877h0.688l1.034,1.692h0.663l-1.117-1.722c0.579-0.072,1.018-0.375,1.018-1.082c0-0.774-0.459-1.112-1.385-1.112
					h-1.492v3.916h0.591V84.877L190.286,84.877z M191.012,88c1.846,0,3.424-1.431,3.424-3.395c0-1.952-1.578-3.386-3.424-3.386
					c-1.882,0-3.459,1.434-3.459,3.386C187.553,86.569,189.13,88,191.012,88z M188.229,84.605c0-1.614,1.227-2.82,2.783-2.82
					c1.534,0,2.747,1.206,2.747,2.82c0,1.632-1.213,2.833-2.747,2.833C189.454,87.438,188.229,86.237,188.229,84.605z"/>
			</g>
			<g>
				<path fill="#211915" d="M23.875,104.715c-1.499,0-2.715,1.213-2.715,2.705c0,1.496,1.216,2.719,2.715,2.719h27.089
					c1.497,0,2.709-1.223,2.709-2.719c0-1.492-1.212-2.705-2.709-2.705H23.875"/>
				<path fill="#211915" d="M6.595,87.515c-0.134,1.486,0.962,2.803,2.459,2.938c1.492,0.136,2.813-0.971,2.945-2.466
					c0.481-5.469,4.464-8.237,11.833-8.237c8.945,0,10.186,3.237,10.186,6.739c0,0,0,2.943,0,5.872
					c-2.981-2.013-6.446-3.241-10.148-3.241c-10.092,0-18.304,8.207-18.304,18.274c0,10.084,8.212,18.285,18.304,18.285
					c6.133,0,11.802-3.035,15.186-8.127c0.829-1.242,0.496-2.928-0.759-3.758c-1.243-0.828-2.923-0.494-3.758,0.756
					c-2.38,3.572-6.366,5.701-10.669,5.701c-7.104,0-12.88-5.768-12.88-12.857c0-7.092,5.776-12.85,12.88-12.85
					c4.262,0,8.227,2.103,10.609,5.613c0.669,0.988,1.905,1.425,3.041,1.072c1.143-0.349,1.921-1.393,1.921-2.582V86.488
					c0-5.552-2.711-12.168-15.608-12.168C13.623,74.32,7.331,79.123,6.595,87.515"/>
			</g>
		</g>
		<g>
			<path fill="#211915" d="M63.422,124.459l-3.477-4.832h-0.081v4.832H58.06v-11.174c0.811-0.047,1.738-0.064,2.996-0.064
				c2.316,0,3.906,0.812,3.906,3.031c0,1.785-1.341,2.928-3.162,3.125c0.314,0.398,0.663,0.828,0.943,1.193l2.945,3.889H63.422z
				 M60.807,114.693c-0.349,0-0.68,0.018-0.942,0.033v3.543c0.164,0.016,0.479,0.03,0.876,0.03c1.456,0,2.334-0.743,2.334-1.854
				C63.074,115.223,62.313,114.693,60.807,114.693z"/>
			<path fill="#211915" d="M73.269,120.453h-5.247c-0.05,1.904,0.793,2.764,2.434,2.764c0.843,0,1.721-0.199,2.398-0.527
				l0.166,1.404c-0.826,0.35-1.837,0.531-2.847,0.531c-2.565,0-3.974-1.324-3.974-4.221c0-2.482,1.358-4.336,3.76-4.336
				c2.35,0,3.359,1.604,3.359,3.559C73.318,119.857,73.301,120.137,73.269,120.453z M69.893,117.377
				c-0.994,0-1.689,0.727-1.838,1.836h3.491C71.58,118.088,70.935,117.377,69.893,117.377z"/>
			<path fill="#211915" d="M76.543,124.625c-0.612,0-1.224-0.066-1.737-0.166l0.05-1.506c0.512,0.148,1.159,0.264,1.788,0.264
				c0.959,0,1.622-0.414,1.622-1.092c0-1.656-3.608-0.662-3.608-3.508c0-1.424,1.159-2.549,3.392-2.549
				c0.481,0,1.044,0.063,1.54,0.147l-0.05,1.438c-0.497-0.146-1.075-0.229-1.604-0.229c-0.977,0-1.458,0.396-1.458,1.025
				c0,1.588,3.643,0.776,3.643,3.51C80.119,123.5,78.746,124.625,76.543,124.625z"/>
			<path fill="#211915" d="M87,124.459c0-0.43,0.034-1.143,0.116-1.607l-0.016-0.016c-0.481,1.061-1.475,1.789-2.864,1.789
				c-1.871,0-2.45-1.176-2.45-2.633v-5.76h1.756v5.297c0,1.027,0.279,1.621,1.224,1.621c1.241,0,2.152-1.308,2.152-2.945v-3.973
				h1.77v8.227H87z"/>
			<path fill="#211915" d="M90.585,124.459v-12.082h1.77v12.082H90.585z"/>
			<path fill="#211915" d="M97.437,124.607c-1.757,0-2.283-0.681-2.283-2.517v-4.483h-1.575v-1.375h1.575v-2.615l1.754-0.479v3.094
				h2.169v1.375h-2.153v3.938c0,1.225,0.249,1.557,1.076,1.557c0.365,0,0.763-0.049,1.077-0.133v1.457
				C98.597,124.525,97.983,124.607,97.437,124.607z"/>
			<path fill="#211915" d="M102.204,124.625c-0.612,0-1.226-0.066-1.738-0.166l0.052-1.506c0.512,0.148,1.158,0.264,1.787,0.264
				c0.959,0,1.621-0.414,1.621-1.092c0-1.656-3.608-0.662-3.608-3.508c0-1.424,1.159-2.549,3.393-2.549
				c0.48,0,1.043,0.063,1.54,0.147l-0.05,1.438c-0.497-0.146-1.075-0.229-1.605-0.229c-0.976,0-1.457,0.396-1.457,1.025
				c0,1.588,3.643,0.776,3.643,3.51C105.779,123.5,104.407,124.625,102.204,124.625z"/>
			<path fill="#211915" d="M116.756,124.459l-3.477-4.832h-0.081v4.832h-1.806v-11.174c0.812-0.047,1.735-0.064,2.994-0.064
				c2.317,0,3.907,0.812,3.907,3.031c0,1.785-1.342,2.928-3.162,3.125c0.315,0.398,0.662,0.828,0.943,1.193l2.944,3.889H116.756z
				 M114.141,114.693c-0.351,0-0.681,0.018-0.941,0.033v3.543c0.162,0.016,0.478,0.03,0.875,0.03c1.457,0,2.332-0.743,2.332-1.854
				C116.404,115.223,115.646,114.693,114.141,114.693z"/>
			<path fill="#211915" d="M126.604,120.453h-5.248c-0.051,1.904,0.791,2.764,2.432,2.764c0.843,0,1.723-0.199,2.4-0.527
				l0.164,1.404c-0.824,0.35-1.836,0.531-2.847,0.531c-2.565,0-3.974-1.324-3.974-4.221c0-2.482,1.357-4.336,3.759-4.336
				c2.353,0,3.36,1.604,3.36,3.559C126.65,119.857,126.635,120.137,126.604,120.453z M123.227,117.377
				c-0.992,0-1.689,0.727-1.84,1.836h3.493C124.912,118.088,124.268,117.377,123.227,117.377z"/>
			<path fill="#211915" d="M132.904,124.459c0-0.531,0.019-1.076,0.082-1.523l-0.014-0.016c-0.397,0.977-1.426,1.705-2.734,1.705
				c-1.404,0-2.299-0.795-2.299-2.102c0-1.89,1.886-2.98,4.851-2.98v-0.529c0-1.027-0.433-1.555-1.724-1.555
				c-0.76,0-1.752,0.232-2.449,0.66l-0.164-1.506c0.813-0.314,1.837-0.545,2.896-0.545c2.516,0,3.211,1.092,3.211,2.781v3.358
				c0,0.711,0.017,1.558,0.049,2.25L132.904,124.459L132.904,124.459z M132.79,120.734c-2.582,0-3.144,0.776-3.144,1.49
				c0,0.61,0.429,1.01,1.125,1.01c1.209,0,2.019-1.16,2.019-2.334V120.734L132.79,120.734z"/>
			<path fill="#211915" d="M136.458,124.459v-12.082h1.769v12.082H136.458z"/>
			<path fill="#211915" d="M141.02,115.008c-0.629,0-1.144-0.496-1.144-1.109c0-0.612,0.515-1.108,1.144-1.108
				c0.61,0,1.125,0.481,1.125,1.108C142.145,114.512,141.63,115.008,141.02,115.008z M140.125,124.459v-8.227h1.77v8.227H140.125z"
				/>
			<path fill="#211915" d="M143.536,124.459v-1.258l3.655-5.412c-0.412,0.016-1.141,0.033-1.982,0.033h-1.591v-1.59h5.677v1.242
				l-3.607,5.396c0.416-0.021,1.391-0.035,2.067-0.035h1.604v1.623L143.536,124.459L143.536,124.459z"/>
			<path fill="#211915" d="M157.617,120.453h-5.245c-0.05,1.904,0.793,2.764,2.435,2.764c0.842,0,1.721-0.199,2.399-0.527
				l0.165,1.404c-0.83,0.35-1.838,0.531-2.848,0.531c-2.565,0-3.974-1.324-3.974-4.221c0-2.482,1.356-4.336,3.757-4.336
				c2.353,0,3.359,1.604,3.359,3.559C157.667,119.857,157.652,120.137,157.617,120.453z M154.24,117.377
				c-0.993,0-1.686,0.727-1.836,1.836h3.494C155.932,118.088,155.283,117.377,154.24,117.377z"/>
			<path fill="#211915" d="M164.502,124.459c0-0.43,0.032-1.076,0.117-1.539h-0.034c-0.448,1.008-1.408,1.705-2.681,1.705
				c-2.02,0-3.03-1.49-3.03-3.873c0-2.83,1.642-4.65,4.303-4.65c0.4,0,0.796,0.031,1.243,0.064v-3.789h1.754v12.082H164.502z
				 M164.42,117.656c-0.447-0.1-0.878-0.146-1.309-0.146c-1.406,0-2.367,0.859-2.367,3.076c0,1.656,0.515,2.582,1.64,2.582
				c1.308,0,2.036-1.557,2.036-2.963V117.656z"/>
		</g>
	</g>
</g>
</svg>
