<?xml version="1.0" encoding="utf-8"?>
<!-- Generator: Adobe Illustrator 16.0.0, SVG Export Plug-In . SVG Version: 6.00 Build 0)  -->
<!DOCTYPE svg PUBLIC "-//W3C//DTD SVG 1.1//EN" "http://www.w3.org/Graphics/SVG/1.1/DTD/svg11.dtd">
<svg version="1.1" id="Capa_1" xmlns="http://www.w3.org/2000/svg" xmlns:xlink="http://www.w3.org/1999/xlink" x="0px" y="0px" width="100px" height="100px" viewBox="0 0 200 200" enable-background="new 0 0 200 200" xml:space="preserve">
	<g>
		<g>
			<polygon fill="#FFFFFF" points="30,167 47,167 47,118.828 30,134.216 		"></polygon>
			<polygon fill="#FFFFFF" points="51,167 68,167 68,100.004 51,115.534 		"></polygon>
			<polygon fill="#FFFFFF" points="71,95.957 71,167 88,167 88,93.98 80.91,87.393 		"></polygon>
			<polygon fill="#FFFFFF" points="93,167 107,167 107,112.428 93,97.558 		"></polygon>
			<polygon fill="#FFFFFF" points="112,167 130,167 130,97.558 112,112.616 		"></polygon>
			<polygon fill="#FFFFFF" points="134,167 151,167 151,77.98 134,93.793 		"></polygon>
			<polygon fill="#FFFFFF" points="159.205,68.757 155,73.369 155,167 170,167 170,78.733 		"></polygon>
			<polygon fill="#FFFFFF" points="167,64.145 167,34 135.775,34 146.998,44.272 108.855,77.985 81.64,53.183 30,98.498 30,119.675 
				79.687,76.004 108.953,100.853 158.59,55.674 		"></polygon>
		</g>
	</g>
</svg>										