<?xml version="1.0" encoding="utf-8"?>
<!-- Generator: Adobe Illustrator 16.0.0, SVG Export Plug-In . SVG Version: 6.00 Build 0)  -->
<!DOCTYPE svg PUBLIC "-//W3C//DTD SVG 1.1//EN" "http://www.w3.org/Graphics/SVG/1.1/DTD/svg11.dtd">
<svg version="1.1" id="Capa_1" xmlns="http://www.w3.org/2000/svg" xmlns:xlink="http://www.w3.org/1999/xlink" x="0px" y="0px"
	 width="248px" height="56px" viewBox="0 0 489 110" enable-background="new 0 0 389 56" xml:space="preserve">
<g>
	<g>
		<path fill="#030104" d="M46.978,93.956C21.625,93.956,1,73.331,1,47.979C1,22.625,21.625,2,46.978,2s45.979,20.626,45.979,45.979
			C92.957,73.331,72.331,93.956,46.978,93.956z M46.978,6.454c-22.896,0-41.523,18.627-41.523,41.525
			c0,22.896,18.627,41.522,41.523,41.522c22.897,0,41.524-18.627,41.524-41.522C88.503,25.081,69.876,6.454,46.978,6.454z"/>
	</g>
	<g>
		<path fill="#030104" d="M130.196,53.817c-1.931,1.086-3.92,1.631-5.964,1.631c-2.549,0-4.611-0.865-6.185-2.598
			c-1.574-1.729-2.361-4-2.361-6.811c0-2.836,0.848-5.202,2.544-7.099c1.696-1.897,3.962-2.844,6.799-2.844
			c1.644,0,3.239,0.329,4.788,0.99v1.409c-1.696-0.817-3.354-1.226-4.971-1.226c-2.357,0-4.252,0.805-5.683,2.414
			c-1.432,1.608-2.147,3.662-2.147,6.158c0,2.627,0.672,4.687,2.017,6.179c1.344,1.492,3.155,2.237,5.434,2.237
			c1.688,0,3.166-0.364,4.437-1.097V46.99h-4.41v-1.175h5.703L130.196,53.817L130.196,53.817z"/>
		<path fill="#030104" d="M134.12,55.122V35.341h1.2v19.781H134.12z"/>
		<path fill="#030104" d="M144.829,55.448c-1.948,0-3.491-0.642-4.625-1.924c-1.136-1.283-1.703-2.953-1.703-5.005
			c0-2.217,0.594-3.953,1.781-5.207c1.187-1.252,2.75-1.878,4.69-1.878c1.905,0,3.411,0.621,4.515,1.866
			c1.105,1.243,1.658,2.966,1.658,5.167c0,2.079-0.564,3.763-1.691,5.049C148.329,54.805,146.786,55.448,144.829,55.448z
			 M144.921,42.53c-1.575,0-2.83,0.531-3.765,1.592c-0.936,1.061-1.403,2.536-1.403,4.424c0,1.749,0.457,3.152,1.37,4.214
			c0.913,1.063,2.162,1.595,3.746,1.595c1.608,0,2.849-0.523,3.718-1.567c0.87-1.044,1.305-2.491,1.305-4.345
			c0-1.905-0.432-3.366-1.299-4.385C147.728,43.039,146.503,42.53,144.921,42.53z"/>
		<path fill="#030104" d="M155.578,52.747h-0.053v2.375h-1.2V35.341h1.2v9.174h0.053c0.479-0.984,1.162-1.742,2.056-2.278
			c0.891-0.533,1.872-0.802,2.941-0.802c1.696,0,3.02,0.586,3.975,1.756c0.951,1.169,1.428,2.759,1.428,4.769
			c0,2.234-0.553,4.043-1.657,5.42c-1.104,1.38-2.54,2.068-4.307,2.068C158.014,55.448,156.535,54.547,155.578,52.747z
			 M155.525,47.775v1.684c0,1.34,0.422,2.491,1.266,3.451c0.845,0.963,1.954,1.442,3.328,1.442c1.365,0,2.475-0.586,3.327-1.757
			c0.852-1.169,1.277-2.706,1.277-4.612c0-1.67-0.39-2.996-1.174-3.979c-0.783-0.982-1.826-1.475-3.131-1.475
			c-1.557,0-2.762,0.522-3.614,1.566C155.951,45.14,155.525,46.366,155.525,47.775z"/>
		<path fill="#030104" d="M177.144,55.122v-2.676h-0.054c-0.426,0.914-1.045,1.644-1.859,2.186
			c-0.813,0.544-1.715,0.816-2.707,0.816c-1.27,0-2.274-0.356-3.014-1.07c-0.739-0.712-1.109-1.614-1.109-2.7
			c0-2.332,1.543-3.741,4.632-4.229l4.111-0.613c0-2.87-1.079-4.306-3.236-4.306c-1.472,0-2.901,0.592-4.294,1.774v-1.447
			c0.497-0.393,1.169-0.728,2.016-1.006c0.85-0.278,1.647-0.417,2.395-0.417c1.375,0,2.439,0.427,3.19,1.278
			c0.754,0.853,1.129,2.093,1.129,3.719v8.69L177.144,55.122L177.144,55.122z M173.464,48.468c-1.4,0.199-2.383,0.525-2.949,0.971
			c-0.565,0.45-0.848,1.178-0.848,2.188c0,0.792,0.264,1.443,0.789,1.957c0.527,0.514,1.26,0.771,2.198,0.771
			c1.287,0,2.358-0.479,3.211-1.43c0.853-0.954,1.279-2.184,1.279-3.688v-1.304L173.464,48.468z"/>
		<path fill="#030104" d="M182.227,55.122V35.341h1.201v19.781H182.227z"/>
		<path fill="#030104" d="M195.024,55.122V36.411h4.684c3.104,0,5.469,0.774,7.084,2.322c1.619,1.548,2.428,3.806,2.428,6.772
			c0,2.854-0.867,5.17-2.604,6.948s-4.129,2.668-7.182,2.668L195.024,55.122L195.024,55.122z M196.312,37.598v16.351h2.94
			c2.772,0,4.904-0.719,6.394-2.16c1.488-1.438,2.229-3.516,2.229-6.229c0-5.308-2.785-7.961-8.359-7.961H196.312z"/>
		<path fill="#030104" d="M212.923,48.493c0,1.836,0.424,3.271,1.271,4.307c0.85,1.035,2.014,1.555,3.491,1.555
			c1.494,0,2.957-0.554,4.384-1.658v1.277c-1.384,0.982-2.927,1.475-4.632,1.475c-1.723,0-3.112-0.617-4.176-1.854
			c-1.061-1.234-1.592-2.979-1.592-5.231c0-1.949,0.555-3.59,1.664-4.927c1.109-1.334,2.551-2.002,4.324-2.002
			c1.662,0,2.938,0.583,3.824,1.748c0.885,1.165,1.332,2.758,1.332,4.776v0.534H212.923z M221.558,47.399
			c-0.051-1.541-0.422-2.736-1.106-3.589c-0.688-0.853-1.636-1.279-2.847-1.279c-1.25,0-2.291,0.421-3.108,1.26
			c-0.823,0.839-1.328,2.042-1.521,3.608H221.558z"/>
		<path fill="#030104" d="M225.993,55.122V35.341h1.199v19.781H225.993z"/>
		<path fill="#030104" d="M231.927,38.395c-0.26,0-0.492-0.096-0.688-0.287c-0.203-0.191-0.302-0.435-0.302-0.73
			c0-0.288,0.101-0.52,0.31-0.699c0.201-0.178,0.431-0.267,0.683-0.267c0.271,0,0.506,0.086,0.711,0.261
			c0.205,0.174,0.307,0.409,0.307,0.705c0,0.278-0.1,0.518-0.301,0.718C232.442,38.294,232.206,38.395,231.927,38.395z
			 M231.339,55.122V41.761h1.201v13.361H231.339z"/>
		<path fill="#030104" d="M241.069,55.122h-1.096l-5.166-13.361h1.344l3.979,10.635c0.193,0.514,0.33,0.979,0.406,1.396h0.053
			c0.111-0.548,0.236-0.996,0.377-1.344l4.111-10.688h1.305L241.069,55.122z"/>
		<path fill="#030104" d="M248.948,48.493c0,1.836,0.424,3.271,1.271,4.307c0.85,1.035,2.014,1.555,3.493,1.555
			c1.494,0,2.955-0.554,4.384-1.658v1.277c-1.386,0.982-2.933,1.475-4.634,1.475c-1.725,0-3.114-0.617-4.176-1.854
			c-1.063-1.234-1.594-2.979-1.594-5.231c0-1.949,0.555-3.59,1.663-4.927c1.109-1.334,2.554-2.002,4.328-2.002
			c1.66,0,2.935,0.583,3.82,1.748c0.887,1.165,1.332,2.758,1.332,4.776v0.534H248.948z M257.585,47.399
			c-0.053-1.541-0.42-2.736-1.105-3.589c-0.688-0.853-1.637-1.279-2.848-1.279c-1.252,0-2.289,0.421-3.109,1.26
			c-0.821,0.839-1.332,2.042-1.521,3.608H257.585z"/>
		<path fill="#030104" d="M268.323,43.013c-0.4-0.286-0.871-0.43-1.408-0.43c-1.053,0-1.939,0.544-2.652,1.631
			c-0.713,1.088-1.067,2.632-1.067,4.633v6.275h-1.177V41.761h1.177v2.962h0.051c0.306-1.018,0.791-1.809,1.449-2.375
			c0.661-0.565,1.43-0.848,2.297-0.848c0.496,0,0.94,0.078,1.332,0.234L268.323,43.013L268.323,43.013z"/>
		<path fill="#030104" d="M275.601,57.849c-0.486,1.201-1.025,2.094-1.617,2.676c-0.594,0.582-1.355,0.875-2.287,0.875
			c-0.389,0-0.736-0.062-1.041-0.185v-1.199c0.313,0.121,0.678,0.183,1.096,0.183c1.068,0,1.912-0.738,2.529-2.219l1.242-2.961
			l-5.063-13.258h1.343l4.032,10.883c0.089,0.234,0.148,0.413,0.187,0.534c0.033,0.166,0.07,0.313,0.113,0.444h0.055l0.311-0.901
			l4.307-10.96h1.306L275.601,57.849z"/>
		<path fill="#030104" d="M304.994,55.122l-11.146-15.123c-0.229-0.304-0.427-0.609-0.603-0.913l-0.17-0.262h-0.052
			c0.019,0.227,0.025,0.501,0.025,0.822v15.476h-1.291V36.411h0.992l11.063,14.992c0.246,0.33,0.51,0.729,0.799,1.199h0.063
			c-0.043-0.608-0.063-1.131-0.063-1.564V36.411h1.289v18.711H304.994z"/>
		<path fill="#030104" d="M310.6,48.493c0,1.836,0.424,3.271,1.275,4.307c0.846,1.035,2.008,1.555,3.488,1.555
			c1.494,0,2.955-0.554,4.385-1.658v1.277c-1.383,0.982-2.93,1.475-4.635,1.475c-1.721,0-3.113-0.617-4.174-1.854
			c-1.063-1.234-1.596-2.979-1.596-5.231c0-1.949,0.557-3.59,1.666-4.927c1.107-1.334,2.553-2.002,4.324-2.002
			c1.662,0,2.938,0.583,3.822,1.748c0.889,1.165,1.332,2.758,1.332,4.776v0.534H310.6z M319.236,47.399
			c-0.049-1.541-0.42-2.736-1.107-3.589s-1.637-1.279-2.846-1.279c-1.252,0-2.289,0.421-3.111,1.26
			c-0.82,0.839-1.328,2.042-1.52,3.608H319.236z"/>
		<path fill="#030104" d="M328.955,54.94c-0.627,0.295-1.213,0.442-1.76,0.442c-1.979,0-2.965-1.183-2.965-3.549v-8.977h-2.4V41.76
			h2.4v-3.47c0.189-0.071,0.393-0.141,0.602-0.211c0.207-0.06,0.408-0.125,0.6-0.194v3.875h3.523v1.097h-3.523v8.82
			c0,0.922,0.145,1.592,0.438,2.003c0.291,0.414,0.787,0.619,1.48,0.619c0.496,0,1.029-0.161,1.605-0.481V54.94z"/>
		<path fill="#030104" d="M342.797,55.122h-1.123l-2.908-10.073c-0.08-0.278-0.15-0.652-0.211-1.123h-0.063
			c-0.018,0.201-0.105,0.566-0.262,1.097l-3.266,10.1h-1.119l-4.033-13.361h1.33l3.105,10.659c0.076,0.277,0.139,0.654,0.182,1.124
			h0.105c0.018-0.253,0.104-0.627,0.25-1.124l3.393-10.659h0.82l3.027,10.659c0.068,0.254,0.131,0.628,0.184,1.124h0.102
			c0-0.253,0.076-0.627,0.225-1.124l3.17-10.659h1.24L342.797,55.122z"/>
		<path fill="#030104" d="M354.785,55.448c-1.949,0-3.49-0.642-4.625-1.924c-1.135-1.283-1.703-2.953-1.703-5.005
			c0-2.217,0.594-3.953,1.781-5.207c1.188-1.252,2.752-1.878,4.688-1.878c1.908,0,3.412,0.621,4.518,1.866
			c1.104,1.243,1.654,2.966,1.654,5.167c0,2.079-0.563,3.763-1.688,5.049C358.283,54.805,356.742,55.448,354.785,55.448z
			 M354.877,42.53c-1.574,0-2.83,0.531-3.766,1.592c-0.938,1.061-1.402,2.536-1.402,4.424c0,1.749,0.455,3.152,1.369,4.214
			c0.914,1.063,2.164,1.595,3.746,1.595c1.609,0,2.848-0.523,3.717-1.567c0.871-1.044,1.307-2.491,1.307-4.345
			c0-1.905-0.434-3.366-1.297-4.385C357.684,43.039,356.459,42.53,354.877,42.53z"/>
		<path fill="#030104" d="M370.584,43.013c-0.4-0.286-0.871-0.43-1.41-0.43c-1.051,0-1.936,0.544-2.65,1.631
			c-0.713,1.088-1.068,2.632-1.068,4.633v6.275h-1.176V41.761h1.176v2.962h0.051c0.307-1.018,0.789-1.809,1.449-2.375
			c0.664-0.565,1.43-0.848,2.299-0.848c0.494,0,0.939,0.078,1.33,0.234V43.013L370.584,43.013z"/>
		<path fill="#030104" d="M380.613,55.122l-6.396-6.603h-0.051v6.603h-1.199V35.341h1.199v12.748h0.051l6.066-6.328h1.555
			l-6.342,6.473l6.85,6.889L380.613,55.122L380.613,55.122z"/>
	</g>
	<g>
		<g>
			<path fill="#030104" d="M31.594,54.205h-8.728V39.652h8.393v2.668h-5.114v3.238h4.76v2.658h-4.76v3.329h5.449V54.205z"/>
			<path fill="#030104" d="M46.812,54.205h-3.573l-1.034-3.237h-5.177l-1.024,3.237h-3.552l5.297-14.553h3.888L46.812,54.205z
				 M41.453,48.45l-1.563-4.892c-0.115-0.365-0.196-0.802-0.244-1.31h-0.081c-0.033,0.427-0.117,0.85-0.253,1.27l-1.584,4.932
				H41.453z"/>
			<path fill="#030104" d="M57.088,54.205h-8.667V39.652h3.278v11.894h5.389V54.205z"/>
			<path fill="#030104" d="M72.093,54.205H68.52l-1.034-3.237h-5.177l-1.024,3.237h-3.552l5.297-14.553h3.888L72.093,54.205z
				 M66.733,48.45l-1.563-4.892c-0.115-0.365-0.196-0.802-0.244-1.31h-0.081c-0.033,0.427-0.118,0.85-0.253,1.27l-1.584,4.932
				H66.733z"/>
		</g>
	</g>
</g>
</svg>