<?xml version="1.0" encoding="utf-8"?>
<!-- Generator: Adobe Illustrator 16.0.0, SVG Export Plug-In . SVG Version: 6.00 Build 0)  -->
<!DOCTYPE svg PUBLIC "-//W3C//DTD SVG 1.1//EN" "http://www.w3.org/Graphics/SVG/1.1/DTD/svg11.dtd">
<svg width="200" height="100" xmlns="http://www.w3.org/2000/svg">
 <!-- Created with SVG-edit - http://svg-edit.googlecode.com/ -->
 <defs>
  <linearGradient id="svg_1">
   <stop offset="0" stop-color="#FF0000"/>
   <stop offset="1" stop-color="#00ffff"/>
  </linearGradient>
 </defs>
 <g>
  <title>Layer 1</title>
  <g id="svg_98">
   <g transform="matrix(0.874141 0 0 0.874141 -368.052 -222.659)" id="svg_88">
    <path id="svg_89" d="m516.12665,304.35187l5.36798,0l0,1.83301c0.57501,-0.50299 2.43701,-2.285 5.87103,-2.285c4.04199,0 7.25299,2.987 7.25299,7.673l0,12.16302l-5.66901,0l0,-10.65402c0,-2.612 -1.271,-4.164 -3.57703,-4.164c-2.23596,0 -3.57898,1.46201 -3.57898,4.164l0,10.65402l-5.66699,0l0,-19.38403l0,0z" fill="#FFFFFF" clip-rule="evenodd" fill-rule="evenodd"/>
    <path id="svg_90" d="m575.69861,314.04288c0,-2.681 2.00201,-4.88 4.784,-4.88c2.784,0 4.78302,2.19901 4.78302,4.88s-1.99902,4.883 -4.78302,4.883c-2.78198,0 -4.784,-2.20297 -4.784,-4.883l0,0zm-5.59497,0c0,5.59399 4.479,10.133 10.34302,10.133s10.34198,-4.54099 10.34198,-10.133c0,-5.591 -4.47803,-10.14301 -10.34198,-10.14301s-10.34302,4.552 -10.34302,10.14301l0,0z" fill="#FFFFFF" clip-rule="evenodd" fill-rule="evenodd"/>
    <path id="svg_91" d="m497.87463,314.0459c0,-2.68103 2.00201,-4.88101 4.784,-4.88101c2.78198,0 4.784,2.19998 4.784,4.88101c0,2.67899 -2.00201,4.88199 -4.784,4.88199c-2.78198,0 -4.784,-2.20401 -4.784,-4.88199l0,0zm-5.59503,0c0,5.59097 4.48206,10.13199 10.34302,10.13199c5.86102,0 10.34204,-4.54102 10.34204,-10.13199s-4.48004,-10.14301 -10.34204,-10.14301c-5.86096,0 -10.34302,4.552 -10.34302,10.14301l0,0z" fill="#FFFFFF" clip-rule="evenodd" fill-rule="evenodd"/>
    <path id="svg_92" d="m618.27264,304.35187l5.745,0l0,19.38403l-5.745,0l0,-19.38403l0,0zm0,-7.08099l5.745,0l0,4.93301l-5.745,0l0,-4.93301l0,0z" fill="#FFFFFF" clip-rule="evenodd" fill-rule="evenodd"/>
    <polygon id="svg_93" points="628.448 297.271 634.193 297.271 634.193 323.736 628.448 323.736 628.448 297.271" fill="#FFFFFF" clip-rule="evenodd" fill-rule="evenodd"/>
    <path id="svg_94" d="m609.10864,314.02988c0,2.73502 -2.09399,4.85901 -4.84003,4.85901c-2.77301,0 -4.85498,-2.116 -4.85498,-4.84399c0,-2.75803 2.10901,-4.853 4.86096,-4.853c2.77002,0.00098 4.83405,2.11298 4.83405,4.83798l0,0zm-9.55304,9.70602l0.06006,-1.49002c0.401,0.30099 2.17499,1.93399 5.89099,1.93399c4.88898,0 9.42297,-4.379 9.42297,-10.13397c0,-5.76501 -4.258,-10.14301 -9.35699,-10.14301c-3.89703,0 -5.68298,1.78598 -5.95599,1.987l0,-8.61902l-5.51001,0l0,26.46503l5.44897,0l0,0z" fill="#FFFFFF" clip-rule="evenodd" fill-rule="evenodd"/>
    <polygon id="svg_95" points="458.87 323.736 467.909 312.426 459.912 304.352 467.849 304.352 471.394 308.008 477.92 299.61 484.573 299.61 475.016 311.647 478.736 315.382 487.328 304.352 493.998 304.352 482.374 319.041 497.134 333.881 489.086 333.881 478.816 323.431 473.36 330.501 466.689 330.501 475.213 319.83 471.488 316.059 465.517 323.736 458.87 323.736" fill="#FFFFFF" clip-rule="evenodd" fill-rule="evenodd"/>
    <polygon id="svg_96" points="440.125 297.271 457.553 297.271 457.553 302.201 446.053 302.201 446.053 307.687 457.036 307.687 457.036 312.474 446.053 312.474 446.053 318.797 457.553 318.797 457.553 323.736 440.125 323.736 440.125 297.271" fill="#FFFFFF" clip-rule="evenodd" fill-rule="evenodd"/>
    <polygon id="svg_97" points="539.155 297.271 548.525 297.271 552.948 316.588 553.147 316.588 557.681 297.271 566.785 297.271 566.785 323.736 561.211 323.736 561.211 303.755 560.957 303.755 556.047 323.736 549.784 323.736 544.986 303.755 544.732 303.755 544.732 323.736 539.155 323.736 539.155 297.271" fill="#FFFFFF" clip-rule="evenodd" fill-rule="evenodd"/>
   </g>
  </g>
 </g>
</svg>