<?xml version="1.0" encoding="utf-8"?>
<!-- Generator: Adobe Illustrator 16.0.0, SVG Export Plug-In . SVG Version: 6.00 Build 0)  -->
<!DOCTYPE svg PUBLIC "-//W3C//DTD SVG 1.1//EN" "http://www.w3.org/Graphics/SVG/1.1/DTD/svg11.dtd">
<svg width="200" height="100" xmlns="http://www.w3.org/2000/svg">
 <!-- Created with SVG-edit - http://svg-edit.googlecode.com/ -->
 <defs>
  <linearGradient id="svg_1">
   <stop offset="0" stop-color="#FF0000"/>
   <stop offset="1" stop-color="#00ffff"/>
  </linearGradient>
 </defs>
 <g>
  <title>Layer 1</title>
  <g id="svg_17">
   <g transform="matrix(0.8 0 0 0.8 0 0)" id="svg_6">
    <path id="svg_7" d="m43.84399,74.44202c0,3.16898 -1.26898,7.37097 -5.15201,7.44897c-1.90198,-0.078 -3.09,-1.03 -3.09,-3.01199c0,-3.72299 5.46802,-4.43698 8.242,-4.43698l0,0zm5.46899,10.93799l0,-17.67599c0.07901,-5.70401 -3.72498,-7.686 -8.95599,-7.686c-5.15201,0 -9.431,2.22 -9.431,7.84601l5.62701,0c0,-2.45703 1.34598,-3.80402 3.80399,-3.80402c2.854,0 3.487,2.05902 3.487,4.517l0,2.457c-5.62698,0.15802 -13.79001,0.95001 -13.86899,8.39999c0.07898,4.20001 3.40799,6.49899 7.29199,6.49899c2.77301,0 5.229,-0.94998 6.41901,-3.40698l0.15799,0l0,2.854l5.46899,0l0,0z" fill="#FFFFFF"/>
    <path id="svg_8" d="m66.431,69.05402c0,-2.53503 -0.715,-4.99301 -3.72501,-4.99301c-3.646,0 -4.67599,3.80399 -4.755,6.815c0.07901,6.18198 3.64603,10.93799 10.22302,11.01599c1.427,-0.078 2.77399,-0.23801 4.12299,-0.634l0,3.487c-2.29999,0.71201 -4.75699,1.18799 -7.21298,1.18799c-8.79602,0 -13.23502,-5.46899 -13.23502,-14.026c0,-7.21198 3.883,-11.88898 11.33301,-11.88898c6.02301,0 9.431,2.93298 9.431,9.035l-6.18201,0l0,0.00101z" fill="#FFFFFF"/>
    <path id="svg_9" d="m88.62302,69.05402c0,-2.53503 -0.71301,-4.99301 -3.72601,-4.99301c-3.646,0 -4.754,3.80399 -4.754,6.815c0,6.18198 3.646,10.93799 10.146,11.01599c1.42499,-0.078 2.85199,-0.23801 4.19998,-0.634l0,3.487c-2.29898,0.71201 -4.75598,1.18799 -7.21097,1.18799c-8.79901,0 -13.237,-5.46899 -13.237,-14.026c0,-7.21198 3.88397,-11.88898 11.33298,-11.88898c6.02301,0 9.35199,2.93298 9.35199,9.035l-6.10297,0l0,0.00101z" fill="#FFFFFF"/>
    <path id="svg_10" d="m111.20999,68.022l-9.03598,0c0.31699,-2.535 2.21899,-4.27798 4.67499,-4.27798c2.69501,0 4.36099,1.58298 4.36099,4.27798l0,0zm5.46802,3.48898l0,-1.427c0,-6.10397 -3.091,-10.065 -9.431,-10.065c-7.371,0 -10.54199,4.59702 -10.621,11.65002c0.07901,8.16101 3.724,14.26498 12.522,14.26498c2.37698,0 4.67599,-0.31497 6.896,-1.03l0,-3.96198c-1.427,0.47699 -3.17099,0.87198 -4.755,0.94998c-5.548,-0.078 -9.27399,-5.14999 -9.27399,-10.38101l14.66299,0l0,0z" fill="#FFFFFF"/>
    <path id="svg_11" d="m133.798,85.38l0,-14.18799c0,-1.18802 0.077,-4.358 -0.87302,-5.30902c-0.396,-0.396 -1.10999,-0.47699 -1.66498,-0.47699c-4.20001,0 -5.86401,5.86499 -5.86401,9.272l0,10.69998l-5.78601,0l0,-24.80701l5.78601,0l0,4.67603l0.07901,0c1.34598,-3.16901 3.884,-5.23001 7.37,-5.23001c4.75699,0 6.737,3.88501 6.737,8.16202l0,17.19897l-5.784,0l0,0.00201z" fill="#FFFFFF"/>
    <path id="svg_12" d="m151.55099,64.61499l0,11.729c0,2.85199 0.315,5.46899 3.88199,5.547c0.95203,-0.078 1.82202,-0.23801 2.69501,-0.474l0,4.11902c-1.58499,0.23801 -3.16998,0.396 -4.754,0.396c-4.995,0 -7.53,-1.66501 -7.60999,-6.815l0,-14.50299l-4.83499,0l0,-4.04202l4.83499,0l0,-5.86398l5.78699,-2.298l0,8.16199l7.36899,0l0,4.04202l-7.36899,0l0,0.00098z" fill="#FFFFFF"/>
    <path id="svg_13" d="m175.56299,85.38l0,-4.677l-0.078,0c-1.26898,3.09198 -3.80399,5.22998 -7.37198,5.22998c-4.67401,0 -6.65701,-3.96198 -6.65701,-8.16199l0,-17.198l5.78702,0l0,14.185c0,1.19101 -0.08002,4.35999 0.87,5.311c0.39899,0.396 1.11099,0.396 1.66498,0.47699c4.12302,-0.07999 5.785,-5.94501 5.785,-9.19199l0,-10.77899l5.78702,0l0,24.80698l-5.78702,0l0,-0.00198z" fill="#FFFFFF"/>
    <path id="svg_14" d="m190.78,74.522l0,10.85699l-5.78702,0l0,-24.80701l5.78702,0l0,4.59601l0.07999,0c1.98102,-3.40698 3.88202,-5.14999 8.00403,-5.14999l0,6.02301c-5.86401,0.00098 -8.08401,2.61597 -8.08401,8.48099l0,0z" fill="#FFFFFF"/>
    <path id="svg_15" d="m214.55701,68.022l-9.034,0c0.315,-2.535 2.21899,-4.27798 4.67599,-4.27798c2.69299,0 4.43597,1.58298 4.358,4.27798l0,0zm5.46799,3.48898l0,-1.427c0,-6.10397 -3.09201,-10.065 -9.353,-10.065c-7.37003,0 -10.62,4.59702 -10.62,11.65002c0,8.16101 3.72699,14.26498 12.44199,14.26498c2.37698,0 4.677,-0.31497 6.896,-1.03l0,-3.96198c-1.42697,0.47699 -3.09201,0.87198 -4.67599,0.94998c-5.62698,-0.078 -9.27301,-5.14999 -9.35098,-10.38101l14.66199,0l0,0z" fill="#FFFFFF"/>
    <path id="svg_16" d="m140.92902,31.56601l0,4.04199c0,0 11.57199,4.43799 13.23697,5.151c-1.66498,0.63501 -13.23697,5.07199 -13.23697,5.07199l0,4.04199l17.99097,-7.28998l0,-3.72601l-17.99097,-7.29099l0,0z" fill="#FFFFFF"/>
   </g>
  </g>
 </g>
</svg>
