<?xml version="1.0" encoding="utf-8"?>
<!-- Generator: Adobe Illustrator 16.0.0, SVG Export Plug-In . SVG Version: 6.00 Build 0)  -->
<!DOCTYPE svg PUBLIC "-//W3C//DTD SVG 1.1//EN" "http://www.w3.org/Graphics/SVG/1.1/DTD/svg11.dtd">
<svg version="1.1" id="Capa_1" xmlns="http://www.w3.org/2000/svg" xmlns:xlink="http://www.w3.org/1999/xlink" x="0px" y="0px"
	 width="200px" height="100px" viewBox="0 0 200 100" enable-background="new 0 0 200 100" xml:space="preserve">
<g>
	<title>Layer 1</title>
	<g id="svg_17">
		<g id="svg_6" transform="matrix(0.8 0 0 0.8 0 0)">
			<path id="svg_7" fill="#FFFFFF" d="M43.844,65.885c0,3.169-1.269,7.371-5.152,7.449c-1.902-0.078-3.09-1.029-3.09-3.011
				C35.602,66.599,41.07,65.885,43.844,65.885L43.844,65.885z M49.313,76.824V59.147c0.079-5.704-3.725-7.686-8.956-7.686
				c-5.152,0-9.431,2.22-9.431,7.845h5.627c0-2.456,1.346-3.804,3.804-3.804c2.854,0,3.487,2.058,3.487,4.517v2.457
				c-5.627,0.157-13.79,0.951-13.869,8.4c0.079,4.2,3.408,6.499,7.292,6.499c2.773,0,5.229-0.95,6.419-3.406h0.158v2.854H49.313
				L49.313,76.824z"/>
			<path id="svg_8" fill="#FFFFFF" d="M66.431,60.497c0-2.535-0.715-4.993-3.725-4.993c-3.646,0-4.677,3.804-4.755,6.815
				c0.079,6.182,3.646,10.937,10.223,11.016c1.427-0.078,2.774-0.238,4.123-0.635v3.488c-2.3,0.712-4.756,1.188-7.213,1.188
				c-8.796,0-13.235-5.469-13.235-14.026c0-7.212,3.883-11.888,11.333-11.888c6.024,0,9.431,2.933,9.431,9.034h-6.182V60.497z"/>
			<path id="svg_9" fill="#FFFFFF" d="M88.623,60.497c0-2.535-0.713-4.993-3.726-4.993c-3.646,0-4.754,3.804-4.754,6.815
				c0,6.182,3.646,10.937,10.146,11.016c1.425-0.078,2.852-0.238,4.2-0.635v3.488c-2.299,0.712-4.756,1.188-7.211,1.188
				c-8.799,0-13.237-5.469-13.237-14.026c0-7.212,3.884-11.888,11.333-11.888c6.023,0,9.352,2.933,9.352,9.034h-6.103V60.497z"/>
			<path id="svg_10" fill="#FFFFFF" d="M111.21,59.465h-9.036c0.317-2.535,2.219-4.279,4.675-4.279
				C109.544,55.187,111.21,56.77,111.21,59.465L111.21,59.465z M116.678,62.954v-1.427c0-6.105-3.091-10.065-9.431-10.065
				c-7.371,0-10.542,4.597-10.621,11.649c0.079,8.162,3.724,14.265,12.522,14.265c2.377,0,4.676-0.315,6.896-1.029v-3.962
				c-1.427,0.476-3.171,0.872-4.755,0.95c-5.548-0.078-9.274-5.15-9.274-10.381H116.678L116.678,62.954L116.678,62.954z"/>
			<path id="svg_11" fill="#FFFFFF" d="M133.799,76.824V62.634c0-1.187,0.076-4.358-0.874-5.308
				c-0.396-0.397-1.11-0.479-1.665-0.479c-4.199,0-5.864,5.865-5.864,9.272v10.701h-5.786V52.014h5.786v4.675h0.079
				c1.346-3.169,3.884-5.229,7.369-5.229c4.758,0,6.738,3.884,6.738,8.162v17.2h-5.784V76.824L133.799,76.824z"/>
			<path id="svg_12" fill="#FFFFFF" d="M151.55,56.057v11.73c0,2.853,0.315,5.469,3.882,5.547c0.952-0.078,1.824-0.238,2.695-0.474
				v4.119c-1.584,0.238-3.169,0.397-4.753,0.397c-4.995,0-7.529-1.665-7.61-6.816V56.057h-4.835v-4.043h4.835v-5.863l5.786-2.298
				v8.161h7.369v4.043H151.55L151.55,56.057L151.55,56.057z"/>
			<path id="svg_13" fill="#FFFFFF" d="M175.563,76.824v-4.678h-0.077c-1.27,3.092-3.805,5.229-7.373,5.229
				c-4.674,0-6.656-3.962-6.656-8.162V52.017h5.787v14.185c0,1.191-0.081,4.36,0.869,5.31c0.399,0.397,1.111,0.397,1.665,0.477
				c4.124-0.079,5.785-5.945,5.785-9.192V52.018h5.787v24.807h-5.787V76.824L175.563,76.824z"/>
			<path id="svg_14" fill="#FFFFFF" d="M190.78,65.964v10.857h-5.787V52.014h5.787v4.597h0.079c1.982-3.408,3.882-5.15,8.005-5.15
				v6.023C193,57.485,190.78,60.1,190.78,65.964L190.78,65.964L190.78,65.964z"/>
			<path id="svg_15" fill="#FFFFFF" d="M214.557,59.465h-9.034c0.315-2.535,2.219-4.279,4.677-4.279
				C212.892,55.187,214.635,56.77,214.557,59.465L214.557,59.465z M220.024,62.954v-1.427c0-6.105-3.091-10.065-9.353-10.065
				c-7.369,0-10.62,4.597-10.62,11.649c0,8.162,3.728,14.265,12.443,14.265c2.377,0,4.677-0.315,6.896-1.029v-3.962
				c-1.426,0.476-3.091,0.872-4.675,0.95c-5.627-0.078-9.274-5.15-9.351-10.381H220.024L220.024,62.954L220.024,62.954z"/>
			<path id="svg_16" fill="#FFFFFF" d="M140.929,23.009v4.042c0,0,11.572,4.438,13.237,5.151
				c-1.665,0.635-13.237,5.072-13.237,5.072v4.042l17.991-7.29V30.3L140.929,23.009L140.929,23.009z"/>
		</g>
	</g>
</g>
</svg>
