<?xml version="1.0" encoding="utf-8"?>
<!-- Generator: Adobe Illustrator 16.0.0, SVG Export Plug-In . SVG Version: 6.00 Build 0)  -->
<!DOCTYPE svg PUBLIC "-//W3C//DTD SVG 1.1//EN" "http://www.w3.org/Graphics/SVG/1.1/DTD/svg11.dtd">
<svg version="1.1" id="Capa_1" xmlns="http://www.w3.org/2000/svg" xmlns:xlink="http://www.w3.org/1999/xlink" x="0px" y="0px"
	 width="200px" height="100px" viewBox="0 50 200 100" enable-background="new 0 50 200 100" xml:space="preserve">
<path fill="#FFFFFF" d="M121.876,93.973c0-0.415-0.342-0.775-0.785-0.775c-0.224,0-0.419,0.095-0.553,0.227l-0.742,0.753
	c-0.135,0.138-0.325,0.223-0.534,0.223c-0.199,0-0.38-0.077-0.515-0.201c-1.251-1.141-2.588-1.711-4.401-1.711
	c-4.175,0-7.533,3.369-7.533,7.521c0,4.16,3.358,7.531,7.533,7.531c1.813,0,3.15-0.572,4.401-1.715
	c0.135-0.125,0.313-0.201,0.515-0.201c0.209,0,0.399,0.086,0.534,0.226l0.742,0.752c0.134,0.133,0.329,0.227,0.553,0.227
	c0.443,0,0.785-0.359,0.785-0.773V93.973L121.876,93.973z M114.346,107.541c0.002,0,0.006,0,0.008,0H114.346L114.346,107.541z
	 M111.363,100.008c0-1.868,1.425-3.385,3.205-3.385c1.763,0,3.188,1.518,3.188,3.385c0,1.875-1.426,3.395-3.188,3.395
	C112.788,103.402,111.363,101.883,111.363,100.008L111.363,100.008z"/>
<path fill="#FFFFFF" d="M21.522,93.973c0-0.415-0.342-0.775-0.785-0.775c-0.225,0-0.419,0.095-0.553,0.227l-0.742,0.753
	c-0.136,0.138-0.325,0.223-0.535,0.223c-0.199,0-0.379-0.077-0.515-0.201c-1.25-1.141-2.59-1.711-4.404-1.711
	c-4.171,0-7.531,3.369-7.531,7.521c0,4.16,3.36,7.531,7.531,7.531c1.814,0,3.154-0.572,4.404-1.715
	c0.136-0.125,0.315-0.201,0.515-0.201c0.21,0,0.399,0.086,0.535,0.226l0.742,0.752c0.134,0.133,0.328,0.227,0.553,0.227
	c0.443,0,0.785-0.359,0.785-0.773V93.973L21.522,93.973z M13.988,107.541c0.004,0,0.006,0,0.011,0H13.988L13.988,107.541z
	 M11.011,100.008c0-1.868,1.424-3.385,3.202-3.385c1.764,0,3.19,1.518,3.19,3.385c0,1.875-1.427,3.395-3.19,3.395
	C12.435,103.402,11.011,101.883,11.011,100.008L11.011,100.008z"/>
<path fill="#FFFFFF" d="M34.33,103.918c-2.167,0-4.11-1.506-4.11-3.81c0-2.5,1.685-3.999,3.852-3.999
	c0.835,0,1.529,0.119,2.188,0.376c0.156,0.063,0.253,0.115,0.376,0.127h0.003c0.016,0.002,0.032,0.004,0.051,0.004
	c0.274,0,0.501-0.222,0.501-0.498c0-0.002,0-2.996,0-2.996c-1.08-0.467-2.318-0.685-3.702-0.685c-4.776,0-8.438,2.78-8.438,7.585
	c0,4.781,3.642,7.554,8.418,7.554c1.296,0,2.747-0.209,3.975-0.602v-3.761C36.608,103.664,35.47,103.918,34.33,103.918
	L34.33,103.918z"/>
<path fill="#FFFFFF" d="M41.261,86.52c0,0,3.682,0,3.927,0c0.593,0,1.054,0.295,1.054,1.103c0,0.278,0,7.264,0,7.264h0.055
	c1.076-1.493,2.652-2.462,4.813-2.462c3.922,0,5.5,2.764,5.5,5.753v8.997h-4.979v-6.978c0-2.708-0.938-3.625-2.296-3.625
	c-2.043,0-3.094,1.416-3.094,4.513v6.09h-4.98V86.52L41.261,86.52z"/>
<path fill="#FFFFFF" d="M80.172,92.439c-2.046,0-3.959,0.828-5.114,2.762c-0.779-1.88-2.467-2.762-4.512-2.762
	c-2.119,0-3.702,0.741-5.383,2.41c0,0-0.31,0.353-0.626,0.353c-0.197,0-0.378-0.077-0.51-0.205L62.039,93
	c-0.146-0.144-0.331-0.232-0.557-0.232c-0.437,0-0.778,0.362-0.778,0.785v13.624h4.979v-6.084c0-3.095,1.056-4.51,2.828-4.51
	c1.404,0,1.98,1.216,1.98,2.849v7.745h4.975v-6.084c0-3.095,1.057-4.51,2.828-4.51c1.402,0,1.989,1.216,1.989,2.849v7.745h4.975
	V98.69C85.258,94.786,84.313,92.439,80.172,92.439L80.172,92.439z"/>
<path fill="#FFFFFF" d="M103.744,100.564c0-4.281-1.924-8.064-7.221-8.064c-4.452,0-7.657,2.755-7.657,7.51
	c0,4.766,3.594,7.545,8.321,7.545c1.839,0,3.649-0.269,5.258-0.906v-3.502c-1.5,0.797-3.031,1.098-4.38,1.098
	c-2.407,0-3.925-0.766-4.204-2.76h9.883V100.564L103.744,100.564z M98.654,98.67c-0.285,0-4.372,0-4.376,0
	c-0.362,0-0.561-0.249-0.502-0.586c0.253-1.392,1.097-2.437,2.668-2.437c1.724,0,2.537,1.03,2.717,2.402
	C99.212,98.474,98.976,98.67,98.654,98.67L98.654,98.67z"/>
<path fill="#FFFFFF" d="M164.887,71.335c-6.933,0-13.509,2.195-18.238,6.542c-0.508,0.47-1.188,0.761-1.944,0.761
	c-0.788,0-1.505-0.326-2.021-0.844l-3.226-3.187c-0.351-0.346-0.825-0.56-1.351-0.56c-1.051,0-1.912,0.858-1.912,1.916v48.071
	c0,1.061,0.861,1.914,1.912,1.914c0.524,0,1-0.214,1.351-0.554l3.226-3.188c0.516-0.531,1.231-0.852,2.021-0.852
	c0.757,0,1.437,0.287,1.944,0.77c4.729,4.344,11.307,6.537,18.238,6.537c15.82,0,28.656-12.84,28.656-28.658
	C193.543,84.171,180.707,71.335,164.887,71.335z M181.9,115.021c0,0.66-0.53,1.188-1.199,1.188c-0.328,0-0.623-0.131-0.84-0.344
	l-2.004-1.984c-0.32-0.33-0.768-0.534-1.262-0.534c-0.465,0-0.893,0.18-1.207,0.481c-2.965,2.721-7.072,4.082-11.406,4.082
	c-9.887,0-17.909-8.021-17.909-17.906c0-9.902,8.022-17.921,17.909-17.921c4.334,0,8.441,1.369,11.406,4.089
	c0.314,0.291,0.742,0.471,1.207,0.471c0.494,0,0.94-0.201,1.262-0.524l2.004-1.988c0.217-0.22,0.512-0.354,0.84-0.354
	c0.669,0,1.199,0.54,1.199,1.196V115.021z"/>
<path fill="#FFFFFF" d="M157.271,100c0,4.201,3.207,7.611,7.164,7.611c3.955,0,7.164-3.41,7.164-7.611
	c0-4.207-3.209-7.613-7.164-7.613C160.479,92.387,157.271,95.793,157.271,100z"/>
</svg>
