<?xml version="1.0" encoding="utf-8"?>
<!-- Generator: Adobe Illustrator 16.0.0, SVG Export Plug-In . SVG Version: 6.00 Build 0)  -->
<!DOCTYPE svg PUBLIC "-//W3C//DTD SVG 1.1//EN" "http://www.w3.org/Graphics/SVG/1.1/DTD/svg11.dtd">
<svg version="1.1" id="Capa_1" xmlns="http://www.w3.org/2000/svg" xmlns:xlink="http://www.w3.org/1999/xlink" x="0px" y="0px"
	 width="200px" height="100px" viewBox="0 1.417 200 100" enable-background="new 0 1.417 200 100" xml:space="preserve">
<g>
	<polygon fill="#FFFFFF" points="75.403,73.476 85.958,73.476 79.867,28.29 79.15,28.29 79.152,28.287 66.829,28.287 52.499,55.982 
		46.028,55.982 41.018,65.413 47.62,65.413 43.445,73.479 54.59,73.479 58.974,65.413 73.045,65.413 71.867,55.982 64.101,55.982 
		71.267,42.793 	"/>
	<path fill="#FFFFFF" d="M141.249,38.31l-3.13,18.364l-7.966-18.275l0.013-0.09h-0.052l-0.002-0.004l-9.714,0.004l-2.629,14.044
		c-1.645-8.44-8.9-14.803-17.611-14.803c-7.293,0-13.575,4.466-16.386,10.879l2.576,19.333c3.292,4.064,8.259,6.649,13.81,6.649
		c6.304,0,11.843-3.332,15.049-8.373l-1.394,7.431h10.949l2.623-17.063l7.87,17.063h10.064l5.697-35.16h-9.769V38.31z
		 M107.58,57.042c-0.649,4.557-4.504,7.776-8.606,7.188c-4.101-0.586-6.898-4.754-6.247-9.313c0.65-4.559,4.503-7.778,8.606-7.191
		C105.435,48.312,108.232,52.482,107.58,57.042z"/>
</g>
</svg>
