<?xml version="1.0" encoding="utf-8"?>
<!-- Generator: Adobe Illustrator 16.0.0, SVG Export Plug-In . SVG Version: 6.00 Build 0)  -->
<!DOCTYPE svg PUBLIC "-//W3C//DTD SVG 1.1//EN" "http://www.w3.org/Graphics/SVG/1.1/DTD/svg11.dtd">
<svg version="1.1" id="Capa_1" xmlns="http://www.w3.org/2000/svg" xmlns:xlink="http://www.w3.org/1999/xlink" x="0px" y="0px"
	 width="200px" height="102.834px" viewBox="0 0 200 102.834" enable-background="new 0 0 200 102.834" xml:space="preserve">
<g>
	<polygon fill="#FFFFFF" points="69.016,79.289 82.382,79.289 74.668,22.072 73.761,22.072 73.763,22.068 58.159,22.068 
		40.013,57.139 31.819,57.139 25.475,69.081 33.835,69.081 28.55,79.295 42.662,79.295 48.212,69.081 66.03,69.081 64.538,57.139 
		54.704,57.139 63.779,40.438 	"/>
	<path fill="#FFFFFF" d="M152.394,34.761l-3.963,23.252l-10.086-23.14l0.017-0.113h-0.065l-0.004-0.007l-12.301,0.007l-3.33,17.784
		c-2.08-10.689-11.27-18.746-22.298-18.746c-9.237,0-17.19,5.654-20.75,13.775l3.262,24.483c4.17,5.145,10.458,8.42,17.487,8.42
		c7.98,0,14.996-4.222,19.056-10.605l-1.765,9.41h13.864l3.322-21.604l9.964,21.604h12.745l7.214-44.521H152.394L152.394,34.761z
		 M109.762,58.479c-0.824,5.77-5.705,9.847-10.898,9.104c-5.194-0.742-8.737-6.022-7.912-11.793
		c0.824-5.772,5.703-9.849,10.898-9.106C107.043,47.426,110.586,52.706,109.762,58.479z"/>
</g>
</svg>
