<?xml version="1.0" encoding="utf-8"?>
<!-- Generator: Adobe Illustrator 16.0.0, SVG Export Plug-In . SVG Version: 6.00 Build 0)  -->
<!DOCTYPE svg PUBLIC "-//W3C//DTD SVG 1.1//EN" "http://www.w3.org/Graphics/SVG/1.1/DTD/svg11.dtd">
<svg version="1.1" id="Capa_1" xmlns="http://www.w3.org/2000/svg" xmlns:xlink="http://www.w3.org/1999/xlink" x="0px" y="0px"
	 width="200px" height="200px" viewBox="0 0 200 200" enable-background="new 0 0 200 200" xml:space="preserve">
<g>
	<polygon fill="#FFFFFF" points="65.457,131.954 82.95,131.954 72.855,57.073 71.667,57.073 71.67,57.068 51.249,57.068 
		27.501,102.965 16.778,102.965 8.475,118.595 19.416,118.595 12.499,131.961 30.968,131.961 38.232,118.595 61.55,118.595 
		59.597,102.965 46.727,102.965 58.604,81.11 	"/>
	<path fill="#FFFFFF" d="M174.574,73.68l-5.186,30.432L156.19,73.827l0.022-0.147h-0.086l-0.005-0.009l-16.098,0.009l-4.358,23.273
		c-2.721-13.989-14.749-24.533-29.181-24.533c-12.09,0-22.497,7.4-27.156,18.028l4.269,32.042
		c5.458,6.733,13.686,11.019,22.887,11.019c10.444,0,19.625-5.525,24.937-13.879l-2.307,12.315h18.143l4.346-28.274l13.04,28.274
		h16.679l9.442-58.266H174.574z M118.781,104.719c-1.078,7.551-7.464,12.887-14.261,11.915c-6.798-0.971-11.434-7.882-10.354-15.434
		c1.078-7.553,7.464-12.889,14.261-11.917C115.225,90.254,119.861,97.164,118.781,104.719z"/>
</g>
</svg>
