<?xml version="1.0" encoding="utf-8"?>
<!-- Generator: Adobe Illustrator 16.0.0, SVG Export Plug-In . SVG Version: 6.00 Build 0)  -->
<!DOCTYPE svg PUBLIC "-//W3C//DTD SVG 1.1//EN" "http://www.w3.org/Graphics/SVG/1.1/DTD/svg11.dtd">
<svg version="1.1" id="Capa_1" xmlns="http://www.w3.org/2000/svg" xmlns:xlink="http://www.w3.org/1999/xlink" x="0px" y="0px"
	 width="200px" height="100px" viewBox="0 0 200 100" enable-background="new 0 0 200 100" xml:space="preserve">
<g>
	<title>Layer 1</title>
	<g id="svg_56">
		<g id="svg_24" transform="matrix(0.839087 0 0 0.839087 -355.474 -223.567)">
			<g id="svg_25">
				<g id="svg_26">
					<g id="svg_27">
						<g id="svg_28">
							<path id="svg_29" fill="#FFFFFF" d="M518.271,318.257c0-3.506-3.235-5.008-7.915-5.008c-4.994,0-7.726,2.469-7.726,4.408
								c0,0.998,0.822,1.861,2.061,1.861c1.932,0,2.034-2.667,5.634-2.667c1.637,0,3.064,0.599,3.064,1.998
								c0,1.406-0.927,1.677-2.098,1.807l-2.969,0.331c-3.733,0.436-6.81,1.573-6.81,5.59c0,3.063,2.742,4.96,5.512,4.96
								c2.566,0,4.769-0.73,6.671-2.834c0.06,1.501,0.766,2.834,2.86,2.834c1.172,0,2.212-0.768,2.212-1.867
								c0-0.768-0.497-1.231-0.497-3.26L518.271,318.257 M513.39,324.825c0,1.787-1.63,3.511-4.292,3.511
								c-1.673,0-2.703-0.897-2.703-1.992c0-1.452,1.094-2.091,3.133-2.387l1.765-0.272c0.572-0.094,1.564-0.266,2.098-0.763v1.903
								H513.39z"/>
							<path id="svg_30" fill="#FFFFFF" d="M520.057,317.019c-0.126-0.395-0.297-0.935-0.297-1.234c0-1.733,1.2-2.536,2.37-2.536
								c1.825,0,2.296,1.538,2.434,2.037l3.27,10.993h0.066l3.261-10.993c0.14-0.499,0.6-2.037,2.445-2.037
								c1.157,0,2.362,0.803,2.362,2.536c0,0.3-0.182,0.84-0.3,1.234l-4.603,12.788c-0.477,1.297-0.772,1.729-3.205,1.729
								c-2.432,0-2.733-0.434-3.195-1.729L520.057,317.019"/>
							<path id="svg_31" fill="#FFFFFF" d="M553.302,318.257c0-3.506-3.226-5.008-7.904-5.008c-4.999,0-7.73,2.469-7.73,4.408
								c0,0.998,0.832,1.861,2.066,1.861c1.939,0,2.034-2.667,5.633-2.667c1.641,0,3.064,0.599,3.064,1.998
								c0,1.406-0.925,1.677-2.097,1.807l-2.968,0.331c-3.738,0.436-6.791,1.573-6.791,5.59c0,3.063,2.721,4.96,5.493,4.96
								c2.565,0,4.768-0.73,6.669-2.834c0.07,1.501,0.761,2.834,2.869,2.834c1.165,0,2.199-0.768,2.199-1.867
								c0-0.768-0.504-1.231-0.504-3.26v-8.154 M548.432,324.825c0,1.787-1.626,3.511-4.292,3.511c-1.67,0-2.706-0.897-2.706-1.992
								c0-1.452,1.101-2.091,3.132-2.387l1.77-0.272c0.575-0.094,1.57-0.266,2.097-0.763v1.903H548.432z"/>
							<path id="svg_32" fill="#FFFFFF" d="M556.51,315.684c0-1.466,0.66-2.436,2.192-2.436c1.537,0,2.204,0.969,2.204,2.436v0.64
								h0.066c1.362-1.806,3.137-3.075,5.901-3.075c2.928,0,6.136,1.472,6.136,6.403v9.45c0,1.301-0.538,2.436-2.428,2.436
								c-1.905,0-2.451-1.135-2.451-2.436v-8.48c0-1.967-0.96-3.364-3.063-3.364c-1.685,0-3.695,1.397-3.695,3.829v8.017
								c0,1.3-0.53,2.436-2.435,2.436c-1.896,0-2.427-1.136-2.427-2.436V315.684"/>
							<path id="svg_33" fill="#FFFFFF" d="M592.051,318.257c0-3.506-3.242-5.008-7.909-5.008c-5,0-7.726,2.469-7.726,4.408
								c0,0.998,0.828,1.861,2.065,1.861c1.929,0,2.03-2.667,5.624-2.667c1.64,0,3.073,0.599,3.073,1.998
								c0,1.406-0.931,1.677-2.097,1.807l-2.968,0.331c-3.738,0.436-6.808,1.573-6.808,5.59c0,3.063,2.737,4.96,5.505,4.96
								c2.57,0,4.768-0.73,6.671-2.834c0.063,1.501,0.765,2.834,2.861,2.834c1.169,0,2.208-0.768,2.208-1.867
								c0-0.768-0.499-1.231-0.499-3.26v-8.154 M587.178,324.825c0,1.787-1.628,3.511-4.305,3.511c-1.662,0-2.693-0.897-2.693-1.992
								c0-1.452,1.092-2.091,3.134-2.387l1.768-0.272c0.564-0.094,1.56-0.266,2.097-0.763v1.903H587.178z"/>
							<path id="svg_34" fill="#FFFFFF" d="M611.755,309.114c0-1.599-0.971-2.427-2.439-2.427c-1.469,0-2.435,0.827-2.435,2.427
								v6.604h-0.066c-0.968-1.565-2.629-2.469-4.802-2.469c-5.138,0-7.503,4.368-7.503,9.037c0,6.281,3.567,9.252,7.638,9.252
								c2.366,0,4.335-1,5.138-3.063h0.065v0.762c0,1.5,0.761,2.301,2.197,2.301c1.501,0,2.207-0.801,2.207-2.301V309.114
								 M599.381,322.452c0-2.259,0.766-5.397,3.867-5.397c2.967-0.035,3.899,2.9,3.899,5.397c0,2.767-1.07,5.289-3.899,5.289
								C600.647,327.668,599.381,325.321,599.381,322.452z"/>
							<path id="svg_35" fill="#FFFFFF" d="M629.755,323.321c1.634,0,2.144-0.432,2.144-2.1c0-3.998-3.206-7.973-8.813-7.973
								c-5.767,0-9.199,3.806-9.199,9.474c0,4.219,2.56,8.815,9.376,8.815c2.925,0,7.624-1.366,7.624-4.297
								c0-0.897-0.83-1.889-2.005-1.889c-1.967,0-1.967,2.388-5.619,2.388c-2.842,0-4.509-1.859-4.509-4.419h11.001
								 M618.753,320.526c0.528-2.375,2.003-3.87,4.438-3.87c2.16,0,3.831,1.631,4.09,3.87H618.753z"/>
						</g>
						<path id="svg_36" fill="#FFFFFF" d="M634.892,311.197v-1.216h0.814c0.411,0,0.851,0.091,0.851,0.575
							c0,0.606-0.449,0.641-0.954,0.641H634.892 M634.892,311.704h0.689l1.033,1.692h0.663l-1.118-1.722
							c0.581-0.072,1.018-0.375,1.018-1.082c0-0.774-0.46-1.112-1.385-1.112h-1.492v3.916h0.591V311.704z M635.616,314.827
							c1.846,0,3.424-1.431,3.424-3.395c0-1.952-1.578-3.386-3.424-3.386c-1.881,0-3.458,1.434-3.458,3.386
							C632.158,313.396,633.735,314.827,635.616,314.827z M632.835,311.432c0-1.614,1.227-2.82,2.782-2.82
							c1.536,0,2.749,1.206,2.749,2.82c0,1.632-1.213,2.833-2.749,2.833C634.059,314.265,632.835,313.064,632.835,311.432z"/>
					</g>
					<g id="svg_37">
						<path id="svg_38" fill="#FFFFFF" d="M468.481,331.541c-1.499,0-2.715,1.213-2.715,2.705c0,1.497,1.216,2.72,2.715,2.72h27.089
							c1.497,0,2.709-1.223,2.709-2.72c0-1.492-1.212-2.705-2.709-2.705H468.481"/>
						<path id="svg_39" fill="#FFFFFF" d="M451.201,314.342c-0.134,1.486,0.962,2.803,2.459,2.938
							c1.492,0.136,2.813-0.971,2.945-2.466c0.481-5.469,4.464-8.237,11.833-8.237c8.945,0,10.186,3.237,10.186,6.739
							c0,0,0,2.943,0,5.872c-2.981-2.013-6.446-3.241-10.148-3.241c-10.092,0-18.304,8.207-18.304,18.275
							c0,10.085,8.212,18.285,18.304,18.285c6.133,0,11.802-3.035,15.186-8.127c0.829-1.242,0.496-2.927-0.759-3.758
							c-1.243-0.827-2.923-0.493-3.758,0.757c-2.379,3.572-6.366,5.701-10.669,5.701c-7.104,0-12.88-5.768-12.88-12.857
							c0-7.091,5.776-12.85,12.88-12.85c4.262,0,8.227,2.103,10.609,5.613c0.669,0.988,1.905,1.426,3.041,1.072
							c1.143-0.348,1.921-1.392,1.921-2.581v-12.161c0-5.552-2.711-12.168-15.608-12.168
							C458.228,301.147,451.937,305.95,451.201,314.342"/>
					</g>
				</g>
				<g id="svg_40">
					<path id="svg_41" fill="#FFFFFF" d="M508.027,351.286l-3.477-4.832h-0.081v4.832h-1.804v-11.174
						c0.811-0.047,1.738-0.064,2.996-0.064c2.316,0,3.906,0.811,3.906,3.032c0,1.784-1.341,2.927-3.162,3.124
						c0.314,0.398,0.663,0.829,0.943,1.194l2.945,3.888H508.027z M505.413,341.52c-0.349,0-0.68,0.017-0.942,0.033v3.543
						c0.164,0.016,0.479,0.031,0.876,0.031c1.456,0,2.334-0.744,2.334-1.854C507.679,342.05,506.919,341.52,505.413,341.52z"/>
					<path id="svg_42" fill="#FFFFFF" d="M517.875,347.28h-5.247c-0.05,1.904,0.793,2.764,2.434,2.764
						c0.843,0,1.721-0.199,2.398-0.527l0.166,1.405c-0.826,0.349-1.837,0.531-2.847,0.531c-2.565,0-3.974-1.324-3.974-4.221
						c0-2.482,1.358-4.336,3.76-4.336c2.35,0,3.359,1.605,3.359,3.559C517.924,346.684,517.907,346.965,517.875,347.28z
						 M514.498,344.204c-0.994,0-1.689,0.726-1.838,1.837h3.491C516.185,344.915,515.541,344.204,514.498,344.204z"/>
					<path id="svg_43" fill="#FFFFFF" d="M521.148,351.452c-0.612,0-1.224-0.066-1.737-0.166l0.05-1.506
						c0.512,0.148,1.159,0.264,1.788,0.264c0.959,0,1.622-0.414,1.622-1.092c0-1.657-3.608-0.663-3.608-3.508
						c0-1.425,1.159-2.55,3.392-2.55c0.481,0,1.044,0.064,1.54,0.148l-0.05,1.44c-0.497-0.145-1.075-0.23-1.604-0.23
						c-0.977,0-1.458,0.397-1.458,1.025c0,1.587,3.643,0.777,3.643,3.51C524.724,350.327,523.352,351.452,521.148,351.452z"/>
					<path id="svg_44" fill="#FFFFFF" d="M531.606,351.286c0-0.429,0.034-1.143,0.116-1.607l-0.016-0.016
						c-0.481,1.061-1.475,1.79-2.864,1.79c-1.871,0-2.45-1.177-2.45-2.634v-5.76h1.756v5.298c0,1.026,0.279,1.62,1.224,1.62
						c1.241,0,2.152-1.307,2.152-2.945v-3.973h1.77v8.227H531.606z"/>
					<path id="svg_45" fill="#FFFFFF" d="M535.191,351.286v-12.082h1.77v12.082H535.191z"/>
					<path id="svg_46" fill="#FFFFFF" d="M542.042,351.434c-1.757,0-2.283-0.68-2.283-2.516v-4.483h-1.575v-1.376h1.575v-2.615
						l1.753-0.478v3.094h2.169v1.376h-2.153v3.937c0,1.225,0.249,1.557,1.077,1.557c0.364,0,0.762-0.049,1.077-0.134v1.457
						C543.203,351.352,542.588,351.434,542.042,351.434z"/>
					<path id="svg_47" fill="#FFFFFF" d="M546.809,351.452c-0.611,0-1.226-0.066-1.738-0.166l0.051-1.506
						c0.512,0.148,1.159,0.264,1.786,0.264c0.959,0,1.622-0.414,1.622-1.092c0-1.657-3.609-0.663-3.609-3.508
						c0-1.425,1.159-2.55,3.394-2.55c0.482,0,1.043,0.064,1.54,0.148l-0.05,1.44c-0.497-0.145-1.075-0.23-1.605-0.23
						c-0.976,0-1.456,0.397-1.456,1.025c0,1.587,3.641,0.777,3.641,3.51C550.385,350.327,549.013,351.452,546.809,351.452z"/>
					<path id="svg_48" fill="#FFFFFF" d="M561.361,351.286l-3.476-4.832h-0.08v4.832h-1.806v-11.174
						c0.812-0.047,1.736-0.064,2.995-0.064c2.317,0,3.907,0.811,3.907,3.032c0,1.784-1.342,2.927-3.162,3.124
						c0.315,0.398,0.662,0.829,0.944,1.194l2.945,3.888H561.361z M558.747,341.52c-0.352,0-0.682,0.017-0.943,0.033v3.543
						c0.163,0.016,0.478,0.031,0.875,0.031c1.457,0,2.332-0.744,2.332-1.854C561.011,342.05,560.252,341.52,558.747,341.52z"/>
					<path id="svg_49" fill="#FFFFFF" d="M571.209,347.28h-5.249c-0.051,1.904,0.791,2.764,2.432,2.764
						c0.843,0,1.722-0.199,2.4-0.527l0.165,1.405c-0.824,0.349-1.837,0.531-2.847,0.531c-2.565,0-3.975-1.324-3.975-4.221
						c0-2.482,1.358-4.336,3.759-4.336c2.352,0,3.36,1.605,3.36,3.559C571.256,346.684,571.241,346.965,571.209,347.28z
						 M567.832,344.204c-0.992,0-1.69,0.726-1.84,1.837h3.494C569.517,344.915,568.872,344.204,567.832,344.204z"/>
					<path id="svg_50" fill="#FFFFFF" d="M577.51,351.286c0-0.532,0.019-1.077,0.081-1.523l-0.014-0.016
						c-0.398,0.978-1.425,1.706-2.733,1.706c-1.406,0-2.3-0.796-2.3-2.102c0-1.89,1.885-2.981,4.851-2.981v-0.53
						c0-1.026-0.433-1.555-1.724-1.555c-0.76,0-1.753,0.233-2.45,0.661l-0.164-1.506c0.811-0.314,1.838-0.546,2.897-0.546
						c2.515,0,3.21,1.093,3.21,2.78v3.36c0,0.711,0.017,1.556,0.049,2.25h-1.704V351.286z M577.396,347.56
						c-2.583,0-3.145,0.777-3.145,1.49c0,0.612,0.428,1.01,1.127,1.01c1.208,0,2.018-1.159,2.018-2.333V347.56z"/>
					<path id="svg_51" fill="#FFFFFF" d="M581.064,351.286v-12.082h1.769v12.082H581.064z"/>
					<path id="svg_52" fill="#FFFFFF" d="M585.625,341.834c-0.628,0-1.143-0.496-1.143-1.108c0-0.613,0.514-1.11,1.143-1.11
						c0.611,0,1.124,0.483,1.124,1.11C586.749,341.339,586.236,341.834,585.625,341.834z M584.731,351.286v-8.227h1.769v8.227
						H584.731z"/>
					<path id="svg_53" fill="#FFFFFF" d="M588.141,351.286v-1.258l3.656-5.412c-0.411,0.016-1.139,0.033-1.982,0.033h-1.591v-1.59
						h5.677v1.243l-3.608,5.396c0.415-0.021,1.391-0.035,2.068-0.035h1.605v1.622h-5.825V351.286z"/>
					<path id="svg_54" fill="#FFFFFF" d="M602.223,347.28h-5.245c-0.05,1.904,0.793,2.764,2.434,2.764
						c0.843,0,1.721-0.199,2.4-0.527l0.165,1.405c-0.83,0.349-1.838,0.531-2.848,0.531c-2.565,0-3.973-1.324-3.973-4.221
						c0-2.482,1.356-4.336,3.758-4.336c2.351,0,3.359,1.605,3.359,3.559C602.272,346.684,602.258,346.965,602.223,347.28z
						 M598.846,344.204c-0.994,0-1.686,0.726-1.837,1.837h3.494C600.537,344.915,599.889,344.204,598.846,344.204z"/>
					<path id="svg_55" fill="#FFFFFF" d="M609.107,351.286c0-0.429,0.031-1.077,0.118-1.54h-0.035
						c-0.447,1.008-1.408,1.706-2.68,1.706c-2.019,0-3.03-1.49-3.03-3.873c0-2.83,1.641-4.651,4.302-4.651
						c0.4,0,0.796,0.031,1.244,0.065v-3.789h1.754v12.082H609.107z M609.026,344.483c-0.448-0.1-0.879-0.147-1.308-0.147
						c-1.407,0-2.368,0.859-2.368,3.076c0,1.656,0.514,2.583,1.641,2.583c1.307,0,2.036-1.557,2.036-2.963V344.483z"/>
				</g>
			</g>
		</g>
	</g>
</g>
</svg>
