<?xml version="1.0" encoding="utf-8"?>
<!-- Generator: Adobe Illustrator 16.0.0, SVG Export Plug-In . SVG Version: 6.00 Build 0)  -->
<!DOCTYPE svg PUBLIC "-//W3C//DTD SVG 1.1//EN" "http://www.w3.org/Graphics/SVG/1.1/DTD/svg11.dtd">
<svg version="1.1" id="Capa_1" xmlns="http://www.w3.org/2000/svg" xmlns:xlink="http://www.w3.org/1999/xlink" x="0px" y="0px"
	 width="200px" height="100px" viewBox="0 2 200 100" enable-background="new 0 2 200 100" xml:space="preserve">
<g>
	<g>
		<g>
			<g>
				<g>
					<path fill="#211915" d="M76.225,64.76c0-3.402-3.14-4.86-7.682-4.86c-4.847,0-7.499,2.396-7.499,4.278
						c0,0.969,0.798,1.807,2,1.807c1.875,0,1.974-2.59,5.468-2.59c1.589,0,2.974,0.582,2.974,1.939c0,1.365-0.9,1.628-2.037,1.754
						l-2.882,0.322c-3.623,0.422-6.609,1.525-6.609,5.426c0,2.973,2.661,4.813,5.35,4.813c2.49,0,4.628-0.709,6.474-2.751
						c0.058,1.457,0.744,2.751,2.776,2.751c1.138,0,2.147-0.745,2.147-1.813c0-0.745-0.482-1.192-0.482-3.163L76.225,64.76
						 M71.487,71.135c0,1.734-1.583,3.408-4.166,3.408c-1.624,0-2.624-0.873-2.624-1.934c0-1.41,1.062-2.031,3.041-2.318
						l1.713-0.264c0.555-0.092,1.518-0.258,2.036-0.739L71.487,71.135L71.487,71.135z"/>
					<path fill="#211915" d="M77.958,63.558c-0.122-0.383-0.289-0.907-0.289-1.196c0-1.684,1.165-2.462,2.3-2.462
						c1.771,0,2.228,1.493,2.362,1.978l3.174,10.668h0.064l3.165-10.668c0.136-0.484,0.583-1.978,2.373-1.978
						c1.124,0,2.292,0.778,2.292,2.462c0,0.29-0.176,0.814-0.291,1.196L88.642,75.97c-0.463,1.259-0.75,1.678-3.111,1.678
						c-2.36,0-2.652-0.423-3.101-1.678L77.958,63.558"/>
					<path fill="#211915" d="M110.224,64.76c0-3.402-3.131-4.86-7.671-4.86c-4.852,0-7.502,2.396-7.502,4.278
						c0,0.969,0.808,1.807,2.005,1.807c1.881,0,1.974-2.59,5.467-2.59c1.592,0,2.974,0.582,2.974,1.939
						c0,1.365-0.898,1.628-2.035,1.754l-2.88,0.322c-3.628,0.422-6.591,1.525-6.591,5.426c0,2.973,2.641,4.813,5.331,4.813
						c2.49,0,4.628-0.709,6.472-2.751c0.068,1.457,0.74,2.751,2.785,2.751c1.131,0,2.134-0.745,2.134-1.813
						c0-0.745-0.49-1.192-0.49-3.163V64.76 M105.496,71.135c0,1.734-1.578,3.408-4.165,3.408c-1.622,0-2.626-0.873-2.626-1.934
						c0-1.41,1.069-2.031,3.04-2.318l1.719-0.264c0.557-0.092,1.522-0.258,2.036-0.739L105.496,71.135L105.496,71.135z"/>
					<path fill="#211915" d="M113.337,62.264c0-1.424,0.641-2.365,2.126-2.365c1.491,0,2.138,0.941,2.138,2.365v0.62h0.065
						c1.319-1.753,3.043-2.984,5.725-2.984c2.842,0,5.954,1.429,5.954,6.214v9.172c0,1.263-0.52,2.364-2.354,2.364
						c-1.85,0-2.379-1.102-2.379-2.364v-8.23c0-1.908-0.933-3.264-2.973-3.264c-1.638,0-3.584,1.355-3.584,3.715v7.779
						c0,1.266-0.514,2.367-2.365,2.367c-1.839,0-2.356-1.102-2.356-2.367V62.264"/>
					<path fill="#211915" d="M147.83,64.76c0-3.402-3.146-4.86-7.676-4.86c-4.852,0-7.498,2.396-7.498,4.278
						c0,0.969,0.804,1.807,2.002,1.807c1.874,0,1.967-2.59,5.458-2.59c1.593,0,2.98,0.582,2.98,1.939
						c0,1.365-0.904,1.628-2.036,1.754l-2.881,0.322c-3.626,0.422-6.607,1.525-6.607,5.426c0,2.973,2.657,4.813,5.343,4.813
						c2.495,0,4.628-0.709,6.476-2.751c0.061,1.457,0.741,2.751,2.775,2.751c1.134,0,2.144-0.745,2.144-1.813
						c0-0.745-0.485-1.192-0.485-3.163V64.76 M143.101,71.135c0,1.734-1.581,3.408-4.178,3.408c-1.613,0-2.614-0.873-2.614-1.934
						c0-1.41,1.061-2.031,3.043-2.318l1.715-0.264c0.548-0.092,1.517-0.258,2.038-0.739L143.101,71.135L143.101,71.135z"/>
					<path fill="#211915" d="M166.954,55.887c0-1.553-0.941-2.354-2.368-2.354c-1.426,0-2.363,0.802-2.363,2.354v6.408h-0.064
						c-0.938-1.518-2.551-2.396-4.66-2.396c-4.988,0-7.281,4.239-7.281,8.771c0,6.097,3.461,8.979,7.412,8.979
						c2.298,0,4.208-0.971,4.986-2.973h0.063v0.739c0,1.456,0.739,2.233,2.134,2.233c1.456,0,2.142-0.777,2.142-2.233V55.887
						 M154.944,68.831c0-2.192,0.743-5.237,3.753-5.237c2.88-0.034,3.783,2.814,3.783,5.237c0,2.687-1.036,5.132-3.783,5.132
						C156.174,73.895,154.944,71.615,154.944,68.831z"/>
					<path fill="#211915" d="M184.424,69.675c1.585,0,2.081-0.419,2.081-2.038c0-3.88-3.113-7.738-8.555-7.738
						c-5.597,0-8.927,3.693-8.927,9.194c0,4.095,2.486,8.556,9.101,8.556c2.839,0,7.4-1.327,7.4-4.17
						c0-0.871-0.806-1.834-1.947-1.834c-1.909,0-1.909,2.318-5.453,2.318c-2.759,0-4.378-1.805-4.378-4.289L184.424,69.675
						 M173.746,66.962c0.51-2.305,1.943-3.756,4.307-3.756c2.097,0,3.719,1.583,3.969,3.756H173.746z"/>
				</g>
				<path fill="#211915" d="M189.408,57.908v-1.18h0.79c0.396,0,0.826,0.088,0.826,0.557c0,0.589-0.436,0.623-0.926,0.623H189.408
					 M189.408,58.4h0.668l1.002,1.641h0.644l-1.082-1.67c0.561-0.07,0.987-0.363,0.987-1.05c0-0.751-0.445-1.081-1.344-1.081h-1.448
					v3.801h0.573V58.4L189.408,58.4z M190.112,61.431c1.792,0,3.323-1.39,3.323-3.294c0-1.896-1.531-3.287-3.323-3.287
					c-1.826,0-3.356,1.391-3.356,3.287C186.756,60.041,188.286,61.431,190.112,61.431z M187.411,58.137
					c0-1.566,1.192-2.738,2.701-2.738c1.489,0,2.666,1.172,2.666,2.738c0,1.582-1.177,2.748-2.666,2.748
					C188.601,60.885,187.411,59.719,187.411,58.137z"/>
			</g>
			<g>
				<path fill="#211915" d="M27.901,77.653c-1.455,0-2.635,1.177-2.635,2.625c0,1.452,1.18,2.639,2.635,2.639h26.291
					c1.453,0,2.629-1.187,2.629-2.639c0-1.448-1.176-2.625-2.629-2.625H27.901"/>
				<path fill="#211915" d="M11.131,60.961c-0.13,1.441,0.934,2.72,2.386,2.851c1.448,0.132,2.73-0.942,2.858-2.394
					c0.467-5.309,4.332-7.994,11.484-7.994c8.681,0,9.886,3.141,9.886,6.541c0,0,0,2.855,0,5.699
					c-2.893-1.955-6.256-3.146-9.849-3.146c-9.795,0-17.765,7.965-17.765,17.736c0,9.787,7.97,17.746,17.765,17.746
					c5.952,0,11.454-2.945,14.739-7.89c0.804-1.203,0.481-2.841-0.737-3.646c-1.206-0.804-2.837-0.479-3.647,0.733
					c-2.31,3.467-6.178,5.533-10.354,5.533c-6.895,0-12.5-5.6-12.5-12.477c0-6.885,5.605-12.473,12.5-12.473
					c4.136,0,7.985,2.041,10.296,5.447c0.649,0.957,1.849,1.383,2.951,1.039c1.109-0.338,1.865-1.352,1.865-2.506V59.964
					c0-5.39-2.631-11.81-15.148-11.81C17.952,48.154,11.845,52.815,11.131,60.961"/>
			</g>
		</g>
		<g>
			<path fill="#211915" d="M66.283,96.815l-3.375-4.689H62.83v4.689h-1.75V85.971c0.787-0.045,1.687-0.063,2.908-0.063
				c2.248,0,3.791,0.79,3.791,2.942c0,1.732-1.301,2.841-3.069,3.032c0.305,0.387,0.644,0.804,0.916,1.158l2.858,3.774H66.283z
				 M63.745,87.338c-0.339,0-0.66,0.017-0.914,0.032v3.438c0.159,0.015,0.464,0.027,0.85,0.027c1.413,0,2.265-0.72,2.265-1.8
				C65.945,87.852,65.207,87.338,63.745,87.338z"/>
			<path fill="#211915" d="M75.84,92.928h-5.092c-0.048,1.848,0.77,2.682,2.362,2.682c0.818,0,1.67-0.193,2.327-0.512l0.161,1.363
				c-0.802,0.339-1.783,0.516-2.763,0.516c-2.489,0-3.856-1.285-3.856-4.097c0-2.409,1.318-4.208,3.649-4.208
				c2.281,0,3.26,1.557,3.26,3.454C75.887,92.35,75.871,92.62,75.84,92.928z M72.563,89.942c-0.965,0-1.639,0.705-1.784,1.781h3.388
				C74.201,90.632,73.575,89.942,72.563,89.942z"/>
			<path fill="#211915" d="M79.017,96.977c-0.594,0-1.188-0.064-1.686-0.161l0.048-1.462c0.497,0.145,1.125,0.256,1.735,0.256
				c0.931,0,1.574-0.401,1.574-1.06c0-1.607-3.501-0.643-3.501-3.404c0-1.382,1.125-2.474,3.292-2.474
				c0.467,0,1.013,0.061,1.495,0.142l-0.048,1.396c-0.482-0.142-1.043-0.223-1.557-0.223c-0.948,0-1.415,0.384-1.415,0.995
				c0,1.541,3.536,0.752,3.536,3.406C82.488,95.885,81.155,96.977,79.017,96.977z"/>
			<path fill="#211915" d="M89.166,96.815c0-0.417,0.033-1.109,0.113-1.561l-0.016-0.015c-0.467,1.029-1.432,1.736-2.78,1.736
				c-1.815,0-2.377-1.142-2.377-2.556v-5.59h1.704v5.141c0,0.997,0.271,1.573,1.188,1.573c1.204,0,2.088-1.271,2.088-2.858v-3.855
				h1.718v7.984H89.166L89.166,96.815z"/>
			<path fill="#211915" d="M92.646,96.815V85.09h1.718v11.726H92.646z"/>
			<path fill="#211915" d="M99.295,96.959c-1.705,0-2.216-0.662-2.216-2.444v-4.349h-1.528v-1.335h1.528v-2.538l1.703-0.464v3.002
				h2.105v1.335h-2.09v3.821c0,1.188,0.242,1.511,1.044,1.511c0.354,0,0.741-0.048,1.046-0.129v1.414
				C100.422,96.88,99.825,96.959,99.295,96.959z"/>
			<path fill="#211915" d="M103.922,96.977c-0.594,0-1.189-0.064-1.687-0.161l0.05-1.462c0.497,0.145,1.124,0.256,1.734,0.256
				c0.931,0,1.573-0.401,1.573-1.06c0-1.607-3.501-0.643-3.501-3.404c0-1.382,1.124-2.474,3.293-2.474
				c0.466,0,1.012,0.061,1.494,0.142l-0.048,1.396c-0.482-0.142-1.044-0.223-1.559-0.223c-0.946,0-1.414,0.384-1.414,0.995
				c0,1.541,3.537,0.752,3.537,3.406C107.392,95.885,106.061,96.977,103.922,96.977z"/>
			<path fill="#211915" d="M118.045,96.815l-3.374-4.689h-0.079v4.689h-1.752V85.971c0.787-0.045,1.683-0.063,2.906-0.063
				c2.247,0,3.79,0.79,3.79,2.942c0,1.732-1.303,2.841-3.069,3.032c0.305,0.387,0.643,0.804,0.916,1.158l2.855,3.774H118.045z
				 M115.507,87.338c-0.34,0-0.66,0.017-0.912,0.032v3.438c0.156,0.015,0.465,0.027,0.85,0.027c1.414,0,2.264-0.72,2.264-1.8
				C117.704,87.852,116.969,87.338,115.507,87.338z"/>
			<path fill="#211915" d="M127.603,92.928h-5.094c-0.049,1.848,0.768,2.682,2.362,2.682c0.817,0,1.674-0.193,2.328-0.512
				l0.159,1.363c-0.801,0.339-1.782,0.516-2.764,0.516c-2.489,0-3.856-1.285-3.856-4.097c0-2.409,1.317-4.208,3.648-4.208
				c2.283,0,3.262,1.557,3.262,3.454C127.648,92.35,127.633,92.62,127.603,92.928z M124.325,89.942
				c-0.963,0-1.638,0.705-1.786,1.781h3.391C125.961,90.632,125.335,89.942,124.325,89.942z"/>
			<path fill="#211915" d="M133.718,96.815c0-0.516,0.018-1.045,0.079-1.479l-0.013-0.016c-0.386,0.948-1.386,1.655-2.654,1.655
				c-1.362,0-2.23-0.771-2.23-2.04c0-1.836,1.83-2.893,4.707-2.893V91.53c0-0.997-0.42-1.509-1.673-1.509
				c-0.737,0-1.7,0.226-2.377,0.641l-0.159-1.461c0.789-0.306,1.783-0.529,2.812-0.529c2.441,0,3.116,1.06,3.116,2.699v3.258
				c0,0.69,0.016,1.514,0.047,2.184L133.718,96.815L133.718,96.815z M133.606,93.2c-2.506,0-3.051,0.752-3.051,1.446
				c0,0.591,0.416,0.98,1.092,0.98c1.174,0,1.959-1.126,1.959-2.266V93.2L133.606,93.2z"/>
			<path fill="#211915" d="M137.167,96.815V85.09h1.716v11.726H137.167z"/>
			<path fill="#211915" d="M141.594,87.643c-0.61,0-1.11-0.481-1.11-1.076c0-0.593,0.5-1.074,1.11-1.074
				c0.593,0,1.092,0.466,1.092,1.074C142.686,87.161,142.187,87.643,141.594,87.643z M140.726,96.815v-7.984h1.718v7.984H140.726z"
				/>
			<path fill="#211915" d="M144.036,96.815v-1.221l3.548-5.253c-0.4,0.016-1.109,0.032-1.924,0.032h-1.544v-1.543h5.509v1.206
				l-3.501,5.236c0.404-0.02,1.352-0.034,2.007-0.034h1.557v1.575L144.036,96.815L144.036,96.815z"/>
			<path fill="#211915" d="M157.702,92.928h-5.091c-0.048,1.848,0.77,2.682,2.363,2.682c0.816,0,1.67-0.193,2.328-0.512l0.16,1.363
				c-0.805,0.339-1.783,0.516-2.764,0.516c-2.489,0-3.858-1.285-3.858-4.097c0-2.409,1.315-4.208,3.648-4.208
				c2.283,0,3.259,1.557,3.259,3.454C157.751,92.35,157.736,92.62,157.702,92.928z M154.425,89.942
				c-0.964,0-1.636,0.705-1.782,1.781h3.392C156.066,90.632,155.438,89.942,154.425,89.942z"/>
			<path fill="#211915" d="M164.384,96.815c0-0.417,0.031-1.045,0.114-1.494h-0.033c-0.436,0.979-1.366,1.655-2.602,1.655
				c-1.962,0-2.941-1.446-2.941-3.759c0-2.747,1.594-4.514,4.177-4.514c0.388,0,0.771,0.03,1.206,0.063V85.09h1.702v11.726H164.384z
				 M164.305,90.213c-0.435-0.097-0.853-0.142-1.271-0.142c-1.364,0-2.297,0.834-2.297,2.985c0,1.607,0.499,2.506,1.591,2.506
				c1.27,0,1.977-1.511,1.977-2.876V90.213L164.305,90.213z"/>
		</g>
	</g>
</g>
</svg>
