<?xml version="1.0" encoding="utf-8"?>
<!-- Generator: Adobe Illustrator 16.0.0, SVG Export Plug-In . SVG Version: 6.00 Build 0)  -->
<!DOCTYPE svg PUBLIC "-//W3C//DTD SVG 1.1//EN" "http://www.w3.org/Graphics/SVG/1.1/DTD/svg11.dtd">
<svg version="1.1" id="Capa_1" xmlns="http://www.w3.org/2000/svg" xmlns:xlink="http://www.w3.org/1999/xlink" x="0px" y="0px"
	 width="200px" height="100px" viewBox="0 2 200 100" enable-background="new 0 2 200 100" xml:space="preserve">
<g>
	<polygon fill="#FFFFFF" points="94.949,76.436 96.07,80.032 97.912,77.645 96.646,74.104 	"/>
	<polygon fill="#FFFFFF" points="80.419,70.854 87.555,70.854 85.396,64.266 	"/>
	<polygon fill="#FFFFFF" points="107.521,70.854 114.426,70.854 112.268,64.266 	"/>
	<path fill="#FFFFFF" d="M137.961,19.527l-28.598,37.891h-4.375l28.6-37.891H64.077v70h74.748v-70H137.961z M118.569,84.924
		c-0.229-1.612-0.46-2.389-0.749-3.309l-2.358-7.51H104.99l-1.898,2.474l1.696,5.095c0.346,1.063,0.69,1.897,1.324,3.25h-5.955
		l-0.979-3.25l-2.388,3.25h-4.776l-1.037-3.25l-2.502,3.25h-4.487H83.67c0.115-0.086,0.231-0.201,0.317-0.287
		c1.208-1.063,1.985-2.043,2.646-2.936l3.049-3.999l-1.209-3.597H78.031l-8.171,10.818h-5.063c1.927-1.669,2.445-2.188,3.136-3.136
		L83.411,61.33c0.23-0.285,0.402-0.574,0.575-0.86c0.287-0.49,0.545-1.036,0.689-1.699h5.034c0,1.124,0.145,1.727,0.404,2.59
		l3.509,11.049l1.814-2.388l-2.877-8.775c-0.23-0.66-0.49-1.466-1.008-2.474h6.099c0.172,0.979,0.316,1.755,0.604,2.618l1.094,3.455
		l2.62-3.483c0.604-0.804,1.408-1.724,1.784-2.59h5.323c-1.034,0.834-1.727,1.698-2.359,2.534l-5.898,7.824l1.035,3.251l8.43-11.048
		c0.23-0.316,0.46-0.604,0.69-0.921c0.316-0.49,0.576-0.978,0.749-1.641h4.977c0.059,0.864,0.173,1.641,0.433,2.446l6.387,20.428
		c0.316,1.094,0.517,1.756,1.325,3.28L118.569,84.924L118.569,84.924z"/>
</g>
</svg>
