<?xml version="1.0" encoding="utf-8"?>
<!-- Generator: Adobe Illustrator 16.0.0, SVG Export Plug-In . SVG Version: 6.00 Build 0)  -->
<!DOCTYPE svg PUBLIC "-//W3C//DTD SVG 1.1//EN" "http://www.w3.org/Graphics/SVG/1.1/DTD/svg11.dtd">
<svg version="1.1" id="Capa_1" xmlns="http://www.w3.org/2000/svg" xmlns:xlink="http://www.w3.org/1999/xlink" x="0px" y="0px"
	 width="200px" height="104px" viewBox="0 0 200 104" enable-background="new 0 0 200 104" xml:space="preserve">
<g>
	<polygon fill="#FFFFFF" points="92.875,73.314 93.837,76.399 95.416,74.352 94.33,71.315 	"/>
	<polygon fill="#FFFFFF" points="80.415,68.527 86.534,68.527 84.683,62.878 	"/>
	<polygon fill="#FFFFFF" points="103.656,68.527 109.577,68.527 107.727,62.878 	"/>
	<path fill="#FFFFFF" d="M129.76,24.513l-24.524,32.493h-3.751l24.525-32.493H66.401v60.028H130.5V24.513H129.76z M113.131,80.594
		c-0.197-1.383-0.395-2.049-0.643-2.838l-2.022-6.44h-8.979l-1.629,2.122l1.455,4.368c0.297,0.913,0.592,1.628,1.135,2.788h-5.106
		l-0.84-2.788l-2.048,2.788h-4.096l-0.889-2.788l-2.146,2.788h-3.848h-0.272c0.099-0.074,0.198-0.173,0.272-0.246
		c1.036-0.913,1.702-1.753,2.269-2.518l2.615-3.429l-1.037-3.085h-8.955l-7.007,9.278h-4.342c1.653-1.432,2.097-1.876,2.689-2.689
		l13.274-17.543c0.197-0.246,0.345-0.494,0.493-0.739c0.246-0.42,0.468-0.889,0.591-1.457h4.317c0,0.964,0.124,1.481,0.346,2.221
		l3.009,9.475l1.556-2.048l-2.468-7.525c-0.197-0.566-0.42-1.257-0.864-2.121h5.23c0.148,0.84,0.271,1.505,0.518,2.245l0.938,2.963
		l2.246-2.987c0.518-0.69,1.208-1.479,1.53-2.221h4.565c-0.887,0.715-1.48,1.456-2.023,2.173l-5.059,6.71l0.889,2.787l7.228-9.474
		c0.197-0.271,0.395-0.519,0.592-0.79c0.272-0.419,0.494-0.837,0.643-1.406h4.268c0.049,0.741,0.148,1.406,0.37,2.098l5.477,17.517
		c0.272,0.938,0.444,1.506,1.137,2.813L113.131,80.594L113.131,80.594z"/>
</g>
</svg>
