<?xml version="1.0" encoding="utf-8"?>
<!-- Generator: Adobe Illustrator 16.0.0, SVG Export Plug-In . SVG Version: 6.00 Build 0)  -->
<!DOCTYPE svg PUBLIC "-//W3C//DTD SVG 1.1//EN" "http://www.w3.org/Graphics/SVG/1.1/DTD/svg11.dtd">
<svg version="1.1" id="Capa_1" xmlns="http://www.w3.org/2000/svg" xmlns:xlink="http://www.w3.org/1999/xlink" x="0px" y="0px"
	 width="200px" height="200px" viewBox="0 0 200 200" enable-background="new 0 0 200 200" xml:space="preserve">
<g>
	<polygon fill="#FFFFFF" points="92.024,126.466 93.573,131.433 96.115,128.136 94.367,123.248 	"/>
	<polygon fill="#FFFFFF" points="71.963,118.76 81.815,118.76 78.835,109.663 	"/>
	<polygon fill="#FFFFFF" points="109.383,118.76 118.916,118.76 115.936,109.663 	"/>
	<path fill="#FFFFFF" d="M151.408,47.896l-39.484,52.313h-6.037l39.484-52.313h-95.97v96.645H152.6V47.896H151.408z
		 M124.635,138.185c-0.316-2.225-0.635-3.298-1.033-4.568l-3.256-10.368h-14.459l-2.621,3.416l2.342,7.031
		c0.479,1.47,0.953,2.622,1.828,4.489h-8.222l-1.352-4.489l-3.297,4.489h-6.594l-1.43-4.489l-3.456,4.489h-6.196h-0.438
		c0.16-0.12,0.318-0.279,0.438-0.397c1.668-1.47,2.741-2.82,3.654-4.053l4.211-5.52l-1.669-4.967H68.667l-11.281,14.937h-6.991
		c2.661-2.304,3.376-3.02,4.33-4.33l21.37-28.242c0.318-0.397,0.557-0.796,0.795-1.191c0.396-0.676,0.754-1.431,0.953-2.345h6.951
		c0,1.551,0.199,2.384,0.557,3.576l4.846,15.252l2.503-3.297l-3.972-12.115c-0.318-0.912-0.676-2.024-1.391-3.416h8.421
		c0.238,1.352,0.437,2.424,0.834,3.615l1.509,4.768l3.615-4.807c0.834-1.113,1.947-2.384,2.463-3.576h7.35
		c-1.43,1.152-2.385,2.345-3.258,3.496l-8.143,10.805l1.43,4.487l11.639-15.252c0.316-0.437,0.635-0.835,0.953-1.272
		c0.438-0.674,0.795-1.35,1.033-2.264h6.871c0.08,1.192,0.238,2.264,0.596,3.377l8.818,28.202c0.438,1.51,0.715,2.424,1.828,4.529
		H124.635z"/>
</g>
</svg>
