<?xml version="1.0" encoding="utf-8"?>
<!-- Generator: Adobe Illustrator 16.0.0, SVG Export Plug-In . SVG Version: 6.00 Build 0)  -->
<!DOCTYPE svg PUBLIC "-//W3C//DTD SVG 1.1//EN" "http://www.w3.org/Graphics/SVG/1.1/DTD/svg11.dtd">
<svg version="1.1" id="Capa_1" xmlns="http://www.w3.org/2000/svg" xmlns:xlink="http://www.w3.org/1999/xlink" x="0px" y="0px"
	 width="199.5px" height="50.5px" viewBox="0 0 199.5 50.5" enable-background="new 0 0 199.5 50.5" xml:space="preserve">
<g>
	<g>
		<path fill="#030104" d="M23.825,47.757c-12.858,0-23.318-10.46-23.318-23.317c0-12.859,10.46-23.319,23.318-23.319
			s23.319,10.46,23.319,23.319C47.144,37.297,36.683,47.757,23.825,47.757z M23.825,3.379c-11.612,0-21.059,9.447-21.059,21.06
			c0,11.611,9.447,21.059,21.059,21.059c11.612,0,21.059-9.447,21.059-21.059C44.885,12.826,35.438,3.379,23.825,3.379z"/>
	</g>
	<g>
		<path fill="#030104" d="M66.03,27.4c-0.979,0.551-1.988,0.827-3.024,0.827c-1.293,0-2.339-0.438-3.137-1.317
			c-0.798-0.877-1.198-2.029-1.198-3.455c0-1.438,0.43-2.638,1.291-3.6c0.86-0.962,2.009-1.442,3.448-1.442
			c0.834,0,1.643,0.167,2.429,0.502v0.714c-0.86-0.415-1.701-0.622-2.521-0.622c-1.195,0-2.156,0.408-2.882,1.224
			c-0.727,0.815-1.089,1.857-1.089,3.123c0,1.333,0.341,2.377,1.023,3.134c0.682,0.756,1.6,1.134,2.756,1.134
			c0.856,0,1.605-0.185,2.25-0.556v-3.129h-2.236v-0.596h2.892L66.03,27.4L66.03,27.4z"/>
		<path fill="#030104" d="M68.02,28.062V18.03h0.608v10.032H68.02z"/>
		<path fill="#030104" d="M73.451,28.227c-0.988,0-1.771-0.326-2.346-0.976c-0.576-0.651-0.864-1.498-0.864-2.539
			c0-1.124,0.301-2.004,0.903-2.641c0.602-0.635,1.395-0.952,2.378-0.952c0.966,0,1.73,0.314,2.29,0.946
			c0.561,0.63,0.841,1.504,0.841,2.62c0,1.055-0.286,1.909-0.857,2.561C75.226,27.901,74.444,28.227,73.451,28.227z M73.498,21.676
			c-0.798,0-1.435,0.269-1.909,0.807c-0.475,0.539-0.711,1.287-0.711,2.244c0,0.887,0.231,1.599,0.695,2.137
			c0.463,0.54,1.096,0.809,1.899,0.809c0.816,0,1.445-0.265,1.886-0.795c0.441-0.529,0.662-1.263,0.662-2.203
			c0-0.966-0.219-1.708-0.659-2.224C74.921,21.934,74.3,21.676,73.498,21.676z"/>
		<path fill="#030104" d="M78.902,26.857h-0.027v1.205h-0.608V18.03h0.608v4.653h0.027c0.243-0.499,0.589-0.884,1.043-1.155
			c0.452-0.271,0.949-0.407,1.492-0.407c0.86,0,1.531,0.297,2.016,0.89c0.482,0.593,0.724,1.399,0.724,2.419
			c0,1.133-0.28,2.05-0.84,2.749c-0.56,0.7-1.288,1.049-2.184,1.049C80.138,28.227,79.388,27.771,78.902,26.857z M78.875,24.336
			v0.854c0,0.679,0.214,1.263,0.642,1.75c0.429,0.488,0.991,0.731,1.688,0.731c0.692,0,1.255-0.297,1.688-0.891
			c0.432-0.593,0.647-1.373,0.647-2.339c0-0.847-0.198-1.52-0.595-2.018c-0.397-0.498-0.926-0.748-1.588-0.748
			c-0.79,0-1.401,0.265-1.833,0.794C79.092,23,78.875,23.621,78.875,24.336z"/>
		<path fill="#030104" d="M89.84,28.062v-1.357h-0.027c-0.216,0.464-0.53,0.834-0.943,1.109c-0.412,0.276-0.87,0.414-1.373,0.414
			c-0.645,0-1.153-0.18-1.529-0.542c-0.375-0.361-0.563-0.818-0.563-1.369c0-1.183,0.783-1.897,2.349-2.145l2.085-0.311
			c0-1.456-0.547-2.184-1.641-2.184c-0.747,0-1.471,0.3-2.178,0.899v-0.733c0.252-0.2,0.593-0.37,1.022-0.51
			c0.431-0.141,0.835-0.211,1.215-0.211c0.697,0,1.237,0.216,1.618,0.648c0.382,0.433,0.573,1.062,0.573,1.886v4.407L89.84,28.062
			L89.84,28.062z M87.974,24.688c-0.71,0.101-1.208,0.266-1.496,0.492c-0.287,0.228-0.43,0.598-0.43,1.11
			c0,0.401,0.134,0.731,0.4,0.992c0.267,0.261,0.639,0.391,1.115,0.391c0.652,0,1.196-0.243,1.628-0.725
			c0.433-0.484,0.648-1.108,0.648-1.871v-0.661L87.974,24.688z"/>
		<path fill="#030104" d="M92.418,28.062V18.03h0.609v10.032H92.418z"/>
		<path fill="#030104" d="M98.908,28.062v-9.49h2.375c1.574,0,2.774,0.393,3.593,1.178c0.821,0.785,1.231,1.93,1.231,3.435
			c0,1.447-0.439,2.622-1.321,3.523c-0.881,0.902-2.094,1.354-3.642,1.354L98.908,28.062L98.908,28.062z M99.561,19.174v8.292h1.491
			c1.406,0,2.487-0.364,3.243-1.095c0.754-0.729,1.13-1.783,1.13-3.159c0-2.692-1.413-4.038-4.239-4.038L99.561,19.174
			L99.561,19.174z"/>
		<path fill="#030104" d="M107.985,24.7c0,0.931,0.215,1.659,0.645,2.185c0.431,0.525,1.021,0.789,1.771,0.789
			c0.758,0,1.5-0.281,2.224-0.841v0.647c-0.702,0.498-1.484,0.748-2.349,0.748c-0.874,0-1.579-0.313-2.118-0.94
			c-0.538-0.626-0.807-1.511-0.807-2.653c0-0.988,0.281-1.82,0.844-2.499c0.563-0.677,1.294-1.016,2.193-1.016
			c0.843,0,1.49,0.296,1.939,0.887c0.449,0.591,0.676,1.399,0.676,2.422V24.7H107.985z M112.365,24.145
			c-0.026-0.782-0.214-1.388-0.561-1.82c-0.349-0.433-0.83-0.648-1.444-0.648c-0.634,0-1.162,0.213-1.576,0.639
			c-0.417,0.425-0.673,1.036-0.771,1.83H112.365z"/>
		<path fill="#030104" d="M114.614,28.062V18.03h0.608v10.032H114.614z"/>
		<path fill="#030104" d="M117.624,19.579c-0.132,0-0.25-0.049-0.349-0.146c-0.103-0.097-0.153-0.221-0.153-0.37
			c0-0.146,0.051-0.264,0.157-0.354c0.102-0.09,0.218-0.136,0.346-0.136c0.138,0,0.257,0.044,0.361,0.132
			c0.104,0.088,0.155,0.208,0.155,0.358c0,0.141-0.05,0.263-0.152,0.364C117.885,19.527,117.765,19.579,117.624,19.579z
			 M117.325,28.062v-6.776h0.609v6.776H117.325z"/>
		<path fill="#030104" d="M122.26,28.062h-0.556l-2.62-6.776h0.682l2.018,5.394c0.098,0.261,0.167,0.497,0.206,0.708h0.027
			c0.056-0.278,0.12-0.505,0.191-0.682l2.085-5.42h0.663L122.26,28.062z"/>
		<path fill="#030104" d="M126.256,24.7c0,0.931,0.215,1.659,0.645,2.185c0.432,0.525,1.021,0.789,1.771,0.789
			c0.758,0,1.498-0.281,2.224-0.841v0.647c-0.703,0.498-1.487,0.748-2.351,0.748c-0.875,0-1.579-0.313-2.117-0.94
			c-0.539-0.626-0.809-1.511-0.809-2.653c0-0.988,0.281-1.82,0.844-2.499c0.563-0.677,1.295-1.016,2.194-1.016
			c0.842,0,1.488,0.296,1.938,0.887c0.45,0.591,0.675,1.399,0.675,2.422V24.7H126.256z M130.637,24.145
			c-0.027-0.782-0.213-1.388-0.561-1.82c-0.35-0.433-0.83-0.648-1.445-0.648c-0.635,0-1.16,0.213-1.576,0.639
			c-0.416,0.425-0.676,1.036-0.771,1.83H130.637z"/>
		<path fill="#030104" d="M136.082,21.921c-0.203-0.146-0.441-0.218-0.714-0.218c-0.534,0-0.983,0.276-1.345,0.827
			c-0.362,0.552-0.541,1.335-0.541,2.35v3.183h-0.598v-6.776h0.598v1.502h0.025c0.155-0.517,0.4-0.917,0.734-1.205
			c0.336-0.287,0.726-0.43,1.166-0.43c0.251,0,0.477,0.04,0.675,0.119L136.082,21.921L136.082,21.921z"/>
		<path fill="#030104" d="M139.773,29.445c-0.246,0.608-0.52,1.062-0.82,1.356c-0.301,0.296-0.688,0.444-1.16,0.444
			c-0.197,0-0.373-0.031-0.527-0.094v-0.608c0.158,0.062,0.344,0.093,0.556,0.093c0.542,0,0.97-0.375,1.282-1.125l0.63-1.502
			l-2.567-6.724h0.682l2.044,5.52c0.046,0.119,0.075,0.209,0.095,0.271c0.018,0.084,0.035,0.159,0.058,0.225h0.028l0.157-0.457
			l2.185-5.559h0.662L139.773,29.445z"/>
		<path fill="#030104" d="M154.68,28.062l-5.652-7.67c-0.116-0.154-0.217-0.309-0.307-0.463l-0.086-0.133h-0.025
			c0.01,0.115,0.012,0.254,0.012,0.417v7.849h-0.654v-9.49h0.503l5.61,7.604c0.125,0.167,0.26,0.37,0.406,0.608h0.031
			c-0.021-0.308-0.031-0.574-0.031-0.793v-7.418h0.653v9.49H154.68z"/>
		<path fill="#030104" d="M157.523,24.7c0,0.931,0.215,1.659,0.646,2.185c0.429,0.525,1.018,0.789,1.769,0.789
			c0.758,0,1.499-0.281,2.224-0.841v0.647c-0.701,0.498-1.485,0.748-2.35,0.748c-0.873,0-1.58-0.313-2.117-0.94
			c-0.539-0.626-0.81-1.511-0.81-2.653c0-0.988,0.282-1.82,0.845-2.499c0.562-0.677,1.295-1.016,2.193-1.016
			c0.842,0,1.49,0.296,1.938,0.887c0.451,0.591,0.676,1.399,0.676,2.422V24.7H157.523z M161.902,24.145
			c-0.024-0.782-0.213-1.388-0.561-1.82c-0.349-0.433-0.83-0.648-1.443-0.648c-0.635,0-1.161,0.213-1.578,0.639
			c-0.416,0.425-0.674,1.036-0.771,1.83H161.902z"/>
		<path fill="#030104" d="M166.832,27.97c-0.318,0.149-0.615,0.224-0.893,0.224c-1.004,0-1.504-0.6-1.504-1.8v-4.553h-1.217v-0.556
			h1.217v-1.76c0.096-0.036,0.199-0.071,0.305-0.107c0.105-0.031,0.207-0.063,0.305-0.099v1.965h1.787v0.557h-1.787v4.473
			c0,0.468,0.074,0.808,0.223,1.016c0.147,0.21,0.398,0.314,0.75,0.314c0.252,0,0.522-0.082,0.814-0.244V27.97z"/>
		<path fill="#030104" d="M173.852,28.062h-0.568l-1.476-5.109c-0.04-0.141-0.076-0.331-0.106-0.569h-0.032
			c-0.009,0.102-0.054,0.287-0.134,0.556l-1.656,5.123h-0.566l-2.046-6.776h0.675l1.574,5.406c0.039,0.141,0.07,0.332,0.093,0.57
			h0.054c0.008-0.128,0.053-0.318,0.126-0.57l1.722-5.406h0.415l1.535,5.406c0.034,0.129,0.066,0.319,0.093,0.57h0.053
			c0-0.128,0.038-0.318,0.113-0.57l1.608-5.406h0.628L173.852,28.062z"/>
		<path fill="#030104" d="M179.932,28.227c-0.988,0-1.77-0.326-2.346-0.976c-0.575-0.651-0.863-1.498-0.863-2.539
			c0-1.124,0.301-2.004,0.903-2.641c0.603-0.635,1.396-0.952,2.378-0.952c0.967,0,1.73,0.314,2.291,0.946
			c0.56,0.63,0.838,1.504,0.838,2.62c0,1.055-0.285,1.909-0.855,2.561C181.706,27.901,180.924,28.227,179.932,28.227z
			 M179.979,21.676c-0.799,0-1.436,0.269-1.91,0.807c-0.476,0.539-0.711,1.287-0.711,2.244c0,0.887,0.23,1.599,0.694,2.137
			c0.464,0.54,1.098,0.809,1.899,0.809c0.816,0,1.445-0.265,1.886-0.795c0.441-0.529,0.663-1.263,0.663-2.203
			c0-0.966-0.221-1.708-0.658-2.224C181.402,21.934,180.781,21.676,179.979,21.676z"/>
		<path fill="#030104" d="M187.944,21.921c-0.202-0.146-0.441-0.218-0.715-0.218c-0.533,0-0.981,0.276-1.345,0.827
			c-0.361,0.552-0.541,1.335-0.541,2.35v3.183h-0.596v-6.776h0.596v1.502h0.025c0.156-0.517,0.4-0.917,0.735-1.205
			c0.337-0.287,0.726-0.43,1.166-0.43c0.251,0,0.476,0.04,0.675,0.119L187.944,21.921L187.944,21.921z"/>
		<path fill="#030104" d="M193.031,28.062l-3.244-3.349h-0.025v3.349h-0.609V18.03h0.609v6.465h0.025l3.076-3.209h0.789
			l-3.217,3.283l3.475,3.494L193.031,28.062L193.031,28.062z"/>
	</g>
	<g>
		<g>
			<path fill="#030104" d="M16.023,27.597h-4.426v-7.38h4.256v1.353H13.26v1.642h2.414v1.348H13.26v1.688h2.763V27.597z"/>
			<path fill="#030104" d="M23.741,27.597h-1.812l-0.524-1.642h-2.626l-0.519,1.642h-1.801l2.686-7.38h1.972L23.741,27.597z
				 M21.023,24.678l-0.793-2.481c-0.058-0.186-0.099-0.407-0.124-0.665h-0.041c-0.017,0.216-0.06,0.431-0.128,0.644l-0.803,2.501
				H21.023z"/>
			<path fill="#030104" d="M28.953,27.597h-4.396v-7.38h1.663v6.032h2.733V27.597z"/>
			<path fill="#030104" d="M36.563,27.597H34.75l-0.524-1.642h-2.625l-0.52,1.642H29.28l2.687-7.38h1.972L36.563,27.597z
				 M33.844,24.678l-0.793-2.481c-0.058-0.186-0.099-0.407-0.124-0.665h-0.041c-0.017,0.216-0.06,0.431-0.128,0.644l-0.803,2.501
				H33.844z"/>
		</g>
	</g>
</g>
</svg>
