<?xml version="1.0" encoding="utf-8"?>
<!-- Generator: Adobe Illustrator 16.0.0, SVG Export Plug-In . SVG Version: 6.00 Build 0)  -->
<!DOCTYPE svg PUBLIC "-//W3C//DTD SVG 1.1//EN" "http://www.w3.org/Graphics/SVG/1.1/DTD/svg11.dtd">
<svg version="1.1" id="Capa_1" xmlns="http://www.w3.org/2000/svg" xmlns:xlink="http://www.w3.org/1999/xlink" x="0px" y="0px"
	 width="208.76px" height="98px" viewBox="0 0 208.76 98" enable-background="new 0 0 208.76 98" xml:space="preserve">
<g>
	<g>
		<path fill="#010002" d="M48.266,95.014C22.894,95.014,2.254,74.373,2.254,49c0-25.371,20.64-46.014,46.012-46.014
			c25.373,0,46.016,20.643,46.016,46.014C94.282,74.374,73.639,95.014,48.266,95.014z M48.266,7.446
			c-22.914,0-41.554,18.64-41.554,41.555c0,22.914,18.64,41.556,41.554,41.556c22.915,0,41.558-18.642,41.558-41.556
			C89.824,26.086,71.181,7.446,48.266,7.446z"/>
	</g>
	<g>
		<g>
			<path fill="#010002" d="M131.646,29.016c-1.933,1.088-3.921,1.633-5.967,1.633c-2.552,0-4.615-0.867-6.19-2.599
				c-1.574-1.733-2.365-4.004-2.365-6.817c0-2.837,0.852-5.204,2.55-7.104c1.696-1.898,3.963-2.848,6.802-2.848
				c1.645,0,3.244,0.332,4.793,0.993v1.411c-1.697-0.818-3.357-1.228-4.977-1.228c-2.36,0-4.254,0.805-5.687,2.416
				c-1.432,1.61-2.147,3.665-2.147,6.163c0,2.63,0.675,4.69,2.02,6.182c1.344,1.495,3.156,2.24,5.438,2.24
				c1.688,0,3.17-0.365,4.44-1.098v-6.174h-4.416v-1.177h5.707V29.016z"/>
		</g>
		<g>
			<path fill="#010002" d="M135.574,30.322V10.526h1.201v19.796H135.574z"/>
		</g>
		<g>
			<path fill="#010002" d="M146.291,30.649c-1.951,0-3.493-0.643-4.629-1.925c-1.137-1.283-1.705-2.955-1.705-5.011
				c0-2.22,0.593-3.955,1.783-5.21c1.187-1.253,2.752-1.878,4.693-1.878c1.905,0,3.411,0.621,4.518,1.866
				c1.107,1.245,1.658,2.967,1.658,5.172c0,2.079-0.563,3.766-1.689,5.051C149.794,30.005,148.248,30.649,146.291,30.649z
				 M146.382,17.721c-1.575,0-2.831,0.532-3.769,1.594c-0.936,1.063-1.402,2.536-1.402,4.425c0,1.751,0.455,3.157,1.371,4.22
				c0.914,1.063,2.162,1.594,3.746,1.594c1.609,0,2.852-0.524,3.724-1.567c0.871-1.047,1.306-2.495,1.306-4.35
				c0-1.908-0.433-3.368-1.301-4.388C149.193,18.23,147.967,17.721,146.382,17.721z"/>
		</g>
		<g>
			<path fill="#010002" d="M157.047,27.945h-0.053v2.377h-1.201V10.526h1.201v9.18h0.053c0.479-0.982,1.164-1.742,2.058-2.28
				c0.892-0.533,1.873-0.8,2.943-0.8c1.698,0,3.022,0.585,3.978,1.757c0.951,1.169,1.43,2.758,1.43,4.771
				c0,2.236-0.553,4.046-1.658,5.425c-1.104,1.382-2.542,2.071-4.309,2.071C159.486,30.649,158.004,29.748,157.047,27.945z
				 M156.994,22.971v1.684c0,1.341,0.422,2.494,1.268,3.453c0.843,0.965,1.954,1.446,3.329,1.446c1.366,0,2.478-0.587,3.33-1.759
				c0.854-1.169,1.28-2.708,1.28-4.616c0-1.67-0.394-2.999-1.176-3.982c-0.783-0.985-1.828-1.475-3.136-1.475
				c-1.558,0-2.763,0.523-3.616,1.568C157.42,20.333,156.994,21.56,156.994,22.971z"/>
		</g>
		<g>
			<path fill="#010002" d="M178.63,30.322v-2.677h-0.054c-0.426,0.913-1.045,1.644-1.86,2.188c-0.813,0.544-1.716,0.816-2.71,0.816
				c-1.27,0-2.275-0.356-3.016-1.072c-0.74-0.713-1.108-1.613-1.108-2.703c0-2.332,1.544-3.742,4.636-4.23l4.112-0.614
				c0-2.872-1.079-4.308-3.238-4.308c-1.472,0-2.903,0.592-4.296,1.776v-1.45c0.496-0.392,1.169-0.728,2.016-1.006
				c0.851-0.279,1.648-0.416,2.396-0.416c1.377,0,2.441,0.425,3.191,1.279c0.754,0.854,1.133,2.093,1.133,3.721v8.696H178.63z
				 M174.947,23.664c-1.401,0.198-2.385,0.524-2.951,0.971c-0.564,0.45-0.851,1.179-0.851,2.188c0,0.791,0.267,1.443,0.792,1.96
				c0.527,0.512,1.262,0.771,2.2,0.771c1.288,0,2.358-0.479,3.211-1.429c0.854-0.955,1.281-2.185,1.281-3.691v-1.307L174.947,23.664
				z"/>
		</g>
		<g>
			<path fill="#010002" d="M183.719,30.322V10.526h1.2v19.796H183.719z"/>
		</g>
		<g>
			<path fill="#010002" d="M118.104,57.065V38.338h4.688c3.106,0,5.473,0.777,7.092,2.326c1.619,1.549,2.429,3.809,2.429,6.775
				c0,2.854-0.868,5.174-2.604,6.955c-1.736,1.779-4.133,2.67-7.188,2.67L118.104,57.065L118.104,57.065z M119.396,39.53v16.358
				h2.938c2.779,0,4.912-0.721,6.4-2.16c1.489-1.44,2.232-3.518,2.232-6.233c0-5.313-2.79-7.965-8.371-7.965H119.396z"/>
		</g>
		<g>
			<path fill="#010002" d="M136.018,50.432c0,1.836,0.424,3.273,1.271,4.31c0.849,1.035,2.014,1.556,3.492,1.556
				c1.498,0,2.961-0.556,4.389-1.66v1.278c-1.385,0.986-2.928,1.478-4.633,1.478c-1.726,0-3.119-0.619-4.18-1.854
				c-1.063-1.233-1.594-2.981-1.594-5.235c0-1.952,0.553-3.593,1.663-4.931c1.112-1.336,2.553-2.006,4.329-2.006
				c1.662,0,2.938,0.584,3.826,1.754c0.89,1.164,1.332,2.758,1.332,4.777v0.534H136.018L136.018,50.432z M144.662,49.335
				c-0.053-1.539-0.424-2.736-1.111-3.59s-1.637-1.281-2.848-1.281c-1.252,0-2.291,0.422-3.113,1.26
				c-0.822,0.842-1.328,2.045-1.52,3.611H144.662z"/>
		</g>
		<g>
			<path fill="#010002" d="M149.098,57.065V37.27h1.201v19.795H149.098z"/>
		</g>
		<g>
			<path fill="#010002" d="M155.035,40.325c-0.26,0-0.49-0.096-0.691-0.287c-0.199-0.193-0.301-0.436-0.301-0.732
				c0-0.287,0.103-0.518,0.309-0.697c0.204-0.18,0.432-0.27,0.686-0.27c0.27,0,0.509,0.088,0.711,0.262
				c0.205,0.174,0.308,0.41,0.308,0.705c0,0.279-0.101,0.52-0.301,0.719C155.555,40.225,155.314,40.325,155.035,40.325z
				 M154.449,57.065V43.694h1.201v13.371H154.449z"/>
		</g>
		<g>
			<path fill="#010002" d="M164.187,57.065h-1.096l-5.171-13.371h1.345l3.981,10.644c0.191,0.512,0.326,0.979,0.404,1.396h0.053
				c0.113-0.548,0.238-0.996,0.381-1.345l4.111-10.694h1.305L164.187,57.065z"/>
		</g>
		<g>
			<path fill="#010002" d="M172.07,50.432c0,1.836,0.424,3.273,1.273,4.31c0.852,1.035,2.014,1.556,3.494,1.556
				c1.496,0,2.96-0.556,4.388-1.66v1.278c-1.385,0.986-2.932,1.478-4.637,1.478c-1.724,0-3.119-0.619-4.179-1.854
				c-1.063-1.233-1.594-2.981-1.594-5.235c0-1.952,0.555-3.593,1.663-4.931c1.111-1.336,2.556-2.006,4.332-2.006
				c1.662,0,2.935,0.584,3.824,1.754c0.887,1.164,1.331,2.758,1.331,4.777v0.534H172.07L172.07,50.432z M180.715,49.335
				c-0.053-1.539-0.42-2.736-1.107-3.59c-0.688-0.854-1.637-1.281-2.849-1.281c-1.253,0-2.292,0.422-3.113,1.26
				c-0.825,0.842-1.332,2.045-1.522,3.611H180.715z"/>
		</g>
		<g>
			<path fill="#010002" d="M191.461,44.948c-0.399-0.289-0.869-0.43-1.409-0.43c-1.056,0-1.938,0.543-2.654,1.629
				c-0.713,1.09-1.069,2.633-1.069,4.639v6.279h-1.176V43.694h1.176v2.965h0.052c0.306-1.02,0.79-1.813,1.45-2.379
				c0.66-0.564,1.429-0.848,2.298-0.848c0.497,0,0.94,0.078,1.334,0.234L191.461,44.948L191.461,44.948z"/>
		</g>
		<g>
			<path fill="#010002" d="M198.744,59.794c-0.486,1.201-1.027,2.097-1.619,2.679c-0.592,0.586-1.357,0.875-2.285,0.875
				c-0.393,0-0.742-0.063-1.049-0.185v-1.198c0.313,0.12,0.68,0.182,1.1,0.182c1.07,0,1.914-0.74,2.535-2.221l1.242-2.961
				l-5.07-13.271h1.344l4.037,10.891c0.088,0.234,0.148,0.414,0.184,0.533c0.035,0.168,0.07,0.313,0.115,0.442h0.055l0.313-0.897
				l4.312-10.969h1.305L198.744,59.794z"/>
		</g>
		<g>
			<path fill="#010002" d="M131.346,83.811l-11.15-15.139c-0.227-0.303-0.428-0.606-0.602-0.912l-0.172-0.26h-0.053
				c0.018,0.225,0.026,0.498,0.026,0.822v15.488h-1.293V65.083h0.993l11.073,15.002c0.245,0.33,0.508,0.732,0.797,1.201h0.065
				c-0.043-0.608-0.065-1.133-0.065-1.565V65.083h1.294v18.728H131.346L131.346,83.811z"/>
		</g>
		<g>
			<path fill="#010002" d="M136.957,77.178c0,1.838,0.424,3.271,1.272,4.307c0.849,1.037,2.013,1.555,3.493,1.555
				c1.495,0,2.959-0.551,4.387-1.656v1.277c-1.385,0.984-2.929,1.477-4.634,1.477c-1.726,0-3.116-0.617-4.18-1.854
				c-1.062-1.235-1.593-2.979-1.593-5.233c0-1.951,0.556-3.595,1.662-4.935c1.111-1.332,2.553-2.002,4.328-2.002
				c1.666,0,2.941,0.584,3.828,1.752c0.889,1.164,1.332,2.758,1.332,4.776v0.537H136.957L136.957,77.178z M145.601,76.077
				c-0.05-1.539-0.422-2.735-1.108-3.59c-0.688-0.854-1.638-1.279-2.848-1.279c-1.254,0-2.293,0.42-3.113,1.263
				c-0.824,0.838-1.328,2.041-1.521,3.606H145.601z"/>
		</g>
		<g>
			<path fill="#010002" d="M155.326,83.628c-0.627,0.298-1.215,0.443-1.764,0.443c-1.976,0-2.964-1.185-2.964-3.554v-8.983h-2.403
				v-1.099h2.403v-3.473c0.19-0.07,0.392-0.137,0.601-0.211c0.209-0.061,0.41-0.125,0.602-0.193v3.877h3.525v1.099h-3.525v8.828
				c0,0.922,0.145,1.59,0.438,2.004c0.291,0.414,0.785,0.621,1.48,0.621c0.497,0,1.033-0.16,1.605-0.483v1.124H155.326z"/>
		</g>
		<g>
			<path fill="#010002" d="M169.178,83.811h-1.123l-2.912-10.084c-0.076-0.278-0.146-0.651-0.209-1.123h-0.064
				c-0.019,0.201-0.104,0.566-0.262,1.099l-3.264,10.108h-1.123l-4.034-13.375h1.331l3.107,10.668
				c0.078,0.281,0.14,0.656,0.183,1.125h0.104c0.018-0.254,0.1-0.629,0.248-1.125l3.395-10.668h0.824l3.029,10.668
				c0.069,0.255,0.129,0.63,0.182,1.125h0.105c0-0.254,0.073-0.629,0.221-1.125l3.174-10.668h1.24L169.178,83.811z"/>
		</g>
		<g>
			<path fill="#010002" d="M181.177,84.137c-1.951,0-3.494-0.642-4.629-1.927c-1.14-1.284-1.705-2.952-1.705-5.008
				c0-2.221,0.592-3.957,1.782-5.213c1.188-1.252,2.753-1.879,4.695-1.879c1.903,0,3.412,0.623,4.517,1.864
				c1.106,1.246,1.659,2.972,1.659,5.177c0,2.078-0.564,3.764-1.691,5.051C184.679,83.491,183.135,84.137,181.177,84.137z
				 M181.267,71.208c-1.575,0-2.83,0.531-3.767,1.595c-0.937,1.061-1.405,2.535-1.405,4.424c0,1.752,0.458,3.158,1.374,4.219
				c0.912,1.064,2.162,1.594,3.746,1.594c1.609,0,2.852-0.523,3.721-1.566c0.873-1.047,1.307-2.494,1.307-4.348
				c0-1.908-0.433-3.371-1.299-4.387C184.078,71.717,182.852,71.208,181.267,71.208z"/>
		</g>
		<g>
			<path fill="#010002" d="M196.982,71.69c-0.4-0.285-0.869-0.431-1.408-0.431c-1.053,0-1.936,0.543-2.649,1.633
				c-0.711,1.089-1.07,2.634-1.07,4.634v6.284h-1.174V70.436h1.174v2.966h0.054c0.307-1.021,0.787-1.81,1.448-2.375
				c0.662-0.566,1.429-0.853,2.3-0.853c0.494,0,0.94,0.08,1.328,0.236v1.28H196.982z"/>
		</g>
		<g>
			<path fill="#010002" d="M207.023,83.811l-6.395-6.608h-0.053v6.608h-1.205V64.012h1.205V76.77h0.053l6.07-6.334h1.551
				l-6.344,6.479l6.854,6.896H207.023z"/>
		</g>
	</g>
	<g>
		<g>
			<path fill="#010002" d="M32.966,55.231H24.23V40.667h8.401v2.672h-5.118v3.238h4.761v2.664h-4.761v3.33h5.452V55.231z"/>
		</g>
		<g>
			<path fill="#010002" d="M48.196,55.231H44.62l-1.035-3.24h-5.18l-1.025,3.24h-3.555l5.302-14.564h3.89L48.196,55.231z
				 M42.832,49.473l-1.564-4.896c-0.113-0.363-0.195-0.803-0.243-1.309h-0.08c-0.034,0.426-0.117,0.848-0.255,1.27l-1.585,4.937
				h3.727V49.473z"/>
		</g>
		<g>
			<path fill="#010002" d="M58.479,55.231h-8.673V40.667h3.281v11.904h5.392V55.231z"/>
		</g>
		<g>
			<path fill="#010002" d="M73.495,55.231h-3.576l-1.036-3.24h-5.179l-1.025,3.24h-3.554l5.302-14.564h3.89L73.495,55.231z
				 M68.132,49.473l-1.564-4.896c-0.114-0.363-0.194-0.803-0.244-1.309h-0.08c-0.034,0.426-0.117,0.848-0.252,1.27l-1.584,4.937
				h3.724V49.473z"/>
		</g>
	</g>
</g>
</svg>
