<?xml version="1.0" encoding="utf-8"?>
<!-- Generator: Adobe Illustrator 16.0.0, SVG Export Plug-In . SVG Version: 6.00 Build 0)  -->
<!DOCTYPE svg PUBLIC "-//W3C//DTD SVG 1.1//EN" "http://www.w3.org/Graphics/SVG/1.1/DTD/svg11.dtd">
<svg version="1.1" id="Capa_1" xmlns="http://www.w3.org/2000/svg" xmlns:xlink="http://www.w3.org/1999/xlink" x="0px" y="0px"
	 width="200px" height="100px" viewBox="0 0 200 100" enable-background="new 0 0 200 100" xml:space="preserve">
<g>
	<title>Layer 1</title>
	<g id="svg_98">
		<g id="svg_88" transform="matrix(0.874141 0 0 0.874141 -368.052 -222.659)">
			<path id="svg_89" fill="#FFFFFF" d="M516.126,304.352h5.368v1.833c0.575-0.503,2.437-2.285,5.871-2.285
				c4.042,0,7.253,2.987,7.253,7.673v12.163h-5.669v-10.654c0-2.612-1.271-4.164-3.577-4.164c-2.236,0-3.579,1.462-3.579,4.164
				v10.654h-5.667V304.352L516.126,304.352z"/>
			<path id="svg_90" fill="#FFFFFF" d="M575.698,314.044c0-2.682,2.002-4.881,4.784-4.881c2.784,0,4.784,2.199,4.784,4.881
				c0,2.68-2,4.882-4.784,4.882C577.7,318.926,575.698,316.723,575.698,314.044L575.698,314.044z M570.104,314.044
				c0,5.593,4.48,10.133,10.343,10.133c5.865,0,10.343-4.541,10.343-10.133s-4.478-10.144-10.343-10.144
				C574.583,303.9,570.104,308.452,570.104,314.044L570.104,314.044z"/>
			<path id="svg_91" fill="#FFFFFF" d="M497.875,314.046c0-2.681,2.002-4.881,4.784-4.881c2.782,0,4.784,2.2,4.784,4.881
				c0,2.679-2.002,4.882-4.784,4.882C499.877,318.928,497.875,316.724,497.875,314.046L497.875,314.046z M492.279,314.046
				c0,5.59,4.482,10.133,10.343,10.133c5.861,0,10.342-4.542,10.342-10.133c0-5.591-4.48-10.143-10.342-10.143
				C496.761,303.903,492.279,308.455,492.279,314.046L492.279,314.046z"/>
			<path id="svg_92" fill="#FFFFFF" d="M618.272,304.352h5.746v19.384h-5.746V304.352L618.272,304.352z M618.272,297.271h5.746
				v4.933h-5.746V297.271L618.272,297.271z"/>
			<polygon id="svg_93" fill="#FFFFFF" points="628.449,297.271 634.193,297.271 634.193,323.736 628.449,323.736 			"/>
			<path id="svg_94" fill="#FFFFFF" d="M609.108,314.03c0,2.735-2.094,4.859-4.84,4.859c-2.773,0-4.855-2.116-4.855-4.844
				c0-2.758,2.109-4.853,4.861-4.853C607.045,309.193,609.108,311.305,609.108,314.03L609.108,314.03z M599.555,323.736l0.06-1.49
				c0.401,0.302,2.175,1.934,5.891,1.934c4.889,0,9.423-4.378,9.423-10.134c0-5.765-4.258-10.143-9.357-10.143
				c-3.897,0-5.683,1.786-5.956,1.987v-8.619h-5.51v26.465H599.555L599.555,323.736z"/>
			<polygon id="svg_95" fill="#FFFFFF" points="458.87,323.736 467.909,312.426 459.912,304.352 467.849,304.352 471.394,308.008 
				477.92,299.61 484.573,299.61 475.016,311.647 478.736,315.382 487.328,304.352 493.998,304.352 482.374,319.041 
				497.134,333.881 489.086,333.881 478.816,323.431 473.36,330.502 466.689,330.502 475.213,319.831 471.488,316.059 
				465.517,323.736 			"/>
			<polygon id="svg_96" fill="#FFFFFF" points="440.125,297.271 457.553,297.271 457.553,302.201 446.053,302.201 446.053,307.687 
				457.036,307.687 457.036,312.474 446.053,312.474 446.053,318.797 457.553,318.797 457.553,323.736 440.125,323.736 			"/>
			<polygon id="svg_97" fill="#FFFFFF" points="539.156,297.271 548.524,297.271 552.948,316.589 553.147,316.589 557.681,297.271 
				566.786,297.271 566.786,323.736 561.211,323.736 561.211,303.755 560.957,303.755 556.047,323.736 549.784,323.736 
				544.986,303.755 544.733,303.755 544.733,323.736 539.156,323.736 			"/>
		</g>
	</g>
</g>
</svg>
