<?xml version="1.0" encoding="utf-8"?>
<!-- Generator: Adobe Illustrator 16.0.0, SVG Export Plug-In . SVG Version: 6.00 Build 0)  -->
<!DOCTYPE svg PUBLIC "-//W3C//DTD SVG 1.1//EN" "http://www.w3.org/Graphics/SVG/1.1/DTD/svg11.dtd">
<svg version="1.1" id="Capa_1" xmlns="http://www.w3.org/2000/svg" xmlns:xlink="http://www.w3.org/1999/xlink" x="0px" y="0px"
	 width="200px" height="100px" viewBox="0 0 200 100" enable-background="new 0 0 200 100" xml:space="preserve">
<g>
	<path fill="#FFFFFF" d="M62.021,28.89h-8.479v7.509h7.843v2.286h-7.843V48.3h-2.543V26.589h11.021V28.89z"/>
	<path fill="#FFFFFF" d="M75.753,48.3H73.27v-2.422h-0.061c-1.08,1.857-2.67,2.786-4.769,2.786c-1.545,0-2.754-0.409-3.627-1.227
		s-1.31-1.902-1.31-3.255c0-2.897,1.706-4.583,5.118-5.057l4.647-0.651c0-2.634-1.064-3.952-3.194-3.952
		c-1.867,0-3.553,0.636-5.057,1.908v-2.543c1.523-0.969,3.28-1.454,5.269-1.454c3.644,0,5.466,1.928,5.466,5.784V48.3z
		 M73.27,40.457l-3.739,0.515c-1.15,0.162-2.02,0.447-2.604,0.855c-0.585,0.409-0.878,1.133-0.878,2.173
		c0,0.757,0.27,1.375,0.81,1.854c0.54,0.479,1.26,0.72,2.158,0.72c1.231,0,2.248-0.432,3.051-1.295
		c0.802-0.863,1.203-1.956,1.203-3.278V40.457z"/>
	<path fill="#FFFFFF" d="M79.492,47.739v-2.665c1.353,1,2.842,1.5,4.467,1.5c2.18,0,3.271-0.727,3.271-2.181
		c0-0.414-0.094-0.765-0.28-1.052s-0.439-0.542-0.757-0.765c-0.318-0.222-0.691-0.421-1.121-0.598
		c-0.429-0.176-0.891-0.36-1.385-0.552c-0.687-0.272-1.29-0.547-1.81-0.825s-0.954-0.59-1.302-0.939
		c-0.349-0.348-0.611-0.744-0.787-1.188c-0.177-0.444-0.266-0.964-0.266-1.559c0-0.727,0.167-1.371,0.5-1.931
		s0.777-1.029,1.332-1.408c0.556-0.378,1.188-0.664,1.9-0.855c0.712-0.192,1.446-0.288,2.203-0.288c1.342,0,2.543,0.232,3.604,0.697
		v2.513c-1.141-0.747-2.453-1.121-3.937-1.121c-0.465,0-0.884,0.053-1.257,0.159c-0.374,0.106-0.694,0.255-0.962,0.447
		s-0.474,0.421-0.62,0.688c-0.146,0.268-0.22,0.563-0.22,0.886c0,0.404,0.073,0.742,0.22,1.015s0.36,0.515,0.644,0.727
		c0.282,0.212,0.625,0.404,1.029,0.576c0.403,0.171,0.863,0.358,1.378,0.56c0.687,0.263,1.302,0.532,1.847,0.81
		c0.545,0.277,1.01,0.59,1.394,0.938c0.383,0.348,0.679,0.75,0.886,1.204c0.206,0.454,0.31,0.995,0.31,1.62
		c0,0.767-0.169,1.434-0.507,1.999s-0.79,1.035-1.355,1.408c-0.565,0.374-1.216,0.651-1.953,0.833
		c-0.736,0.182-1.509,0.272-2.316,0.272C82.046,48.663,80.663,48.355,79.492,47.739z"/>
	<path fill="#FFFFFF" d="M106.458,48.3h-2.483v-8.933c0-3.23-1.201-4.845-3.604-4.845c-1.211,0-2.23,0.467-3.058,1.401
		c-0.828,0.934-1.242,2.132-1.242,3.596V48.3h-2.482V25.347h2.482V35.37h0.061c1.191-1.958,2.887-2.938,5.087-2.938
		c3.492,0,5.239,2.104,5.239,6.313V48.3z"/>
	<path fill="#FFFFFF" d="M112.408,28.86c-0.444,0-0.823-0.151-1.136-0.455c-0.313-0.303-0.469-0.686-0.469-1.15
		s0.156-0.85,0.469-1.158s0.691-0.462,1.136-0.462c0.454,0,0.84,0.154,1.158,0.462s0.477,0.694,0.477,1.158
		c0,0.444-0.158,0.823-0.477,1.135C113.248,28.703,112.862,28.86,112.408,28.86z M113.619,48.3h-2.482V32.796h2.482V48.3z"/>
	<path fill="#FFFFFF" d="M125.125,48.663c-2.291,0-4.12-0.724-5.488-2.173c-1.368-1.448-2.052-3.368-2.052-5.761
		c0-2.604,0.712-4.638,2.135-6.102c1.424-1.463,3.347-2.195,5.769-2.195c2.312,0,4.116,0.712,5.413,2.135
		c1.297,1.423,1.945,3.397,1.945,5.92c0,2.473-0.699,4.454-2.097,5.942C129.352,47.919,127.477,48.663,125.125,48.663z
		 M125.307,34.522c-1.595,0-2.856,0.543-3.785,1.628s-1.393,2.581-1.393,4.489c0,1.837,0.47,3.286,1.408,4.345
		c0.938,1.06,2.195,1.59,3.77,1.59c1.605,0,2.839-0.52,3.702-1.56c0.863-1.039,1.294-2.518,1.294-4.436
		c0-1.938-0.431-3.432-1.294-4.481S126.912,34.522,125.307,34.522z"/>
	<path fill="#FFFFFF" d="M149.684,48.3H147.2v-8.842c0-3.291-1.201-4.936-3.604-4.936c-1.241,0-2.269,0.467-3.081,1.401
		s-1.219,2.112-1.219,3.535V48.3h-2.482V32.796h2.482v2.574h0.061c1.171-1.958,2.866-2.938,5.087-2.938
		c1.696,0,2.993,0.548,3.892,1.643s1.348,2.677,1.348,4.746V48.3z"/>
	<path fill="#FFFFFF" d="M81.429,71.777v-7.858h-9.378v7.858H70.92V55.398h1.131v7.492h9.378v-7.492h1.119v16.379H81.429z"/>
	<path fill="#FFFFFF" d="M91.217,72.063c-1.705,0-3.055-0.562-4.049-1.685s-1.49-2.583-1.49-4.38c0-1.942,0.52-3.461,1.559-4.558
		c1.04-1.097,2.408-1.645,4.106-1.645c1.668,0,2.984,0.544,3.952,1.633c0.967,1.089,1.45,2.597,1.45,4.523
		c0,1.82-0.493,3.293-1.479,4.42C94.28,71.499,92.931,72.063,91.217,72.063z M91.297,60.755c-1.378,0-2.477,0.465-3.295,1.394
		c-0.818,0.93-1.229,2.22-1.229,3.872c0,1.53,0.4,2.761,1.2,3.689c0.799,0.929,1.892,1.394,3.277,1.394
		c1.409,0,2.494-0.457,3.256-1.371c0.761-0.913,1.142-2.182,1.142-3.803c0-1.668-0.379-2.947-1.136-3.838
		C93.755,61.2,92.683,60.755,91.297,60.755z"/>
	<path fill="#FFFFFF" d="M107.368,71.777v-2.124h-0.046c-0.814,1.606-2.071,2.409-3.77,2.409c-2.764,0-4.146-1.739-4.146-5.22
		v-6.762h1.062v6.499c0,1.584,0.261,2.734,0.782,3.449c0.521,0.717,1.343,1.074,2.462,1.074c1.089,0,1.971-0.399,2.645-1.199
		s1.011-1.865,1.011-3.198v-6.625h1.051v11.696H107.368z"/>
	<path fill="#FFFFFF" d="M111.56,71.264v-1.269c0.396,0.343,0.876,0.613,1.439,0.812s1.051,0.297,1.462,0.297
		c1.835,0,2.753-0.75,2.753-2.25c0-0.518-0.202-0.96-0.605-1.325s-1.059-0.742-1.965-1.131c-1.119-0.487-1.905-0.991-2.358-1.514
		c-0.453-0.521-0.68-1.155-0.68-1.901c0-0.952,0.363-1.721,1.091-2.308c0.728-0.586,1.624-0.879,2.689-0.879
		c1.006,0,1.866,0.205,2.582,0.616v1.188c-0.868-0.563-1.767-0.846-2.695-0.846c-0.77,0-1.391,0.2-1.862,0.6
		c-0.473,0.4-0.708,0.92-0.708,1.56c0,0.556,0.148,1.007,0.445,1.354s0.952,0.744,1.965,1.193c1.218,0.548,2.056,1.057,2.513,1.524
		c0.457,0.469,0.686,1.091,0.686,1.868c0,0.929-0.349,1.696-1.045,2.302c-0.697,0.604-1.658,0.907-2.885,0.907
		C113.254,72.063,112.313,71.796,111.56,71.264z"/>
	<path fill="#FFFFFF" d="M121.496,65.975c0,1.607,0.372,2.863,1.114,3.77s1.761,1.359,3.056,1.359c1.31,0,2.589-0.483,3.837-1.45
		v1.119c-1.21,0.86-2.562,1.29-4.055,1.29c-1.508,0-2.726-0.54-3.654-1.621c-0.93-1.082-1.394-2.608-1.394-4.581
		c0-1.705,0.485-3.143,1.456-4.312s2.233-1.753,3.786-1.753c1.454,0,2.57,0.51,3.347,1.53s1.165,2.414,1.165,4.181v0.468H121.496z
		 M129.058,65.016c-0.045-1.348-0.369-2.395-0.971-3.142c-0.602-0.746-1.432-1.119-2.49-1.119c-1.096,0-2.004,0.368-2.724,1.103
		s-1.163,1.787-1.331,3.158H129.058z"/>
</g>
</svg>
