<?xml version="1.0" encoding="utf-8"?>
<!-- Generator: Adobe Illustrator 16.0.0, SVG Export Plug-In . SVG Version: 6.00 Build 0)  -->
<!DOCTYPE svg PUBLIC "-//W3C//DTD SVG 1.1//EN" "http://www.w3.org/Graphics/SVG/1.1/DTD/svg11.dtd">
<svg version="1.1" id="Capa_1" xmlns="http://www.w3.org/2000/svg" xmlns:xlink="http://www.w3.org/1999/xlink" x="0px" y="0px"
	 width="200px" height="100px" viewBox="0 0 200 100" enable-background="new 0 0 200 100" xml:space="preserve">
<g>
	<path fill="#FFFFFF" d="M61.021,28.89h-8.479v7.509h7.843v2.286h-7.843V48.3h-2.543V26.589H61.02L61.021,28.89L61.021,28.89z"/>
	<path fill="#FFFFFF" d="M74.753,48.3H72.27v-2.422h-0.061c-1.08,1.857-2.67,2.786-4.769,2.786c-1.545,0-2.754-0.409-3.627-1.227
		s-1.31-1.902-1.31-3.255c0-2.897,1.706-4.583,5.118-5.057l4.647-0.651c0-2.634-1.064-3.952-3.194-3.952
		c-1.867,0-3.553,0.636-5.057,1.908v-2.543c1.523-0.969,3.28-1.454,5.269-1.454c3.644,0,5.466,1.928,5.466,5.784L74.753,48.3
		L74.753,48.3z M72.27,40.457l-3.739,0.515c-1.15,0.162-2.02,0.447-2.604,0.855c-0.585,0.409-0.878,1.133-0.878,2.173
		c0,0.757,0.27,1.375,0.81,1.854s1.26,0.72,2.158,0.72c1.231,0,2.248-0.432,3.051-1.295c0.802-0.863,1.203-1.956,1.203-3.278
		L72.27,40.457L72.27,40.457z"/>
	<path fill="#FFFFFF" d="M78.492,47.739v-2.665c1.353,1,2.842,1.5,4.467,1.5c2.18,0,3.271-0.727,3.271-2.181
		c0-0.414-0.094-0.765-0.28-1.052c-0.186-0.287-0.439-0.542-0.757-0.765c-0.318-0.222-0.691-0.421-1.121-0.598
		c-0.429-0.176-0.891-0.36-1.385-0.552c-0.687-0.272-1.29-0.547-1.81-0.825s-0.954-0.59-1.302-0.939
		c-0.349-0.348-0.611-0.744-0.787-1.188c-0.177-0.444-0.266-0.964-0.266-1.559c0-0.727,0.167-1.371,0.5-1.931
		s0.777-1.029,1.332-1.408c0.556-0.378,1.188-0.664,1.9-0.855c0.712-0.192,1.446-0.288,2.203-0.288c1.342,0,2.543,0.232,3.604,0.697
		v2.513c-1.141-0.747-2.453-1.121-3.937-1.121c-0.465,0-0.884,0.053-1.257,0.159c-0.374,0.106-0.694,0.255-0.962,0.447
		c-0.268,0.192-0.474,0.421-0.62,0.688c-0.146,0.268-0.22,0.563-0.22,0.886c0,0.404,0.073,0.742,0.22,1.015
		c0.147,0.273,0.36,0.515,0.644,0.727c0.282,0.212,0.625,0.404,1.029,0.576c0.403,0.171,0.863,0.358,1.378,0.56
		c0.687,0.263,1.302,0.532,1.847,0.81c0.545,0.277,1.01,0.59,1.394,0.938c0.383,0.348,0.679,0.75,0.886,1.204
		c0.206,0.454,0.31,0.995,0.31,1.62c0,0.767-0.169,1.434-0.507,1.999c-0.338,0.565-0.79,1.035-1.355,1.408
		c-0.565,0.374-1.216,0.651-1.953,0.833c-0.736,0.182-1.509,0.272-2.316,0.272C81.046,48.663,79.663,48.355,78.492,47.739z"/>
	<path fill="#FFFFFF" d="M105.458,48.3h-2.483v-8.933c0-3.23-1.201-4.845-3.604-4.845c-1.211,0-2.23,0.467-3.058,1.401
		c-0.828,0.934-1.242,2.132-1.242,3.596V48.3h-2.482V25.347h2.482V35.37h0.061c1.191-1.958,2.887-2.938,5.087-2.938
		c3.492,0,5.239,2.104,5.239,6.313V48.3z"/>
	<path fill="#FFFFFF" d="M111.408,28.86c-0.444,0-0.823-0.151-1.137-0.455c-0.313-0.303-0.469-0.686-0.469-1.15
		s0.156-0.85,0.469-1.158c0.313-0.308,0.691-0.462,1.137-0.462c0.453,0,0.84,0.154,1.158,0.462c0.317,0.308,0.477,0.694,0.477,1.158
		c0,0.444-0.158,0.823-0.477,1.135C112.248,28.703,111.861,28.86,111.408,28.86z M112.619,48.3h-2.482V32.796h2.482V48.3z"/>
	<path fill="#FFFFFF" d="M124.125,48.663c-2.291,0-4.12-0.724-5.488-2.173c-1.367-1.448-2.052-3.368-2.052-5.761
		c0-2.604,0.712-4.638,2.136-6.102c1.424-1.463,3.346-2.195,5.768-2.195c2.313,0,4.117,0.712,5.414,2.135
		c1.297,1.423,1.945,3.397,1.945,5.92c0,2.473-0.699,4.454-2.098,5.942C128.352,47.919,126.477,48.663,124.125,48.663z
		 M124.307,34.522c-1.595,0-2.855,0.543-3.785,1.628c-0.929,1.085-1.393,2.581-1.393,4.489c0,1.837,0.471,3.286,1.408,4.345
		c0.938,1.06,2.195,1.59,3.77,1.59c1.605,0,2.84-0.52,3.702-1.56c0.863-1.039,1.294-2.518,1.294-4.436
		c0-1.938-0.431-3.432-1.294-4.481C127.146,35.048,125.912,34.522,124.307,34.522z"/>
	<path fill="#FFFFFF" d="M148.684,48.3H146.2v-8.842c0-3.291-1.201-4.936-3.604-4.936c-1.24,0-2.269,0.467-3.08,1.401
		c-0.813,0.934-1.22,2.112-1.22,3.535V48.3h-2.481V32.796h2.481v2.574h0.062c1.17-1.958,2.865-2.938,5.086-2.938
		c1.697,0,2.994,0.548,3.893,1.643c0.898,1.095,1.348,2.677,1.348,4.746V48.3L148.684,48.3z"/>
	<path fill="#FFFFFF" d="M80.429,71.777v-7.858h-9.378v7.858H69.92V55.398h1.131v7.492h9.378v-7.492h1.119v16.379H80.429z"/>
	<path fill="#FFFFFF" d="M90.217,72.063c-1.705,0-3.055-0.562-4.049-1.685s-1.49-2.583-1.49-4.38c0-1.941,0.52-3.461,1.559-4.559
		c1.04-1.097,2.408-1.645,4.106-1.645c1.668,0,2.984,0.544,3.952,1.633c0.967,1.09,1.45,2.598,1.45,4.523
		c0,1.82-0.493,3.293-1.479,4.42C93.28,71.499,91.931,72.063,90.217,72.063z M90.297,60.755c-1.378,0-2.477,0.466-3.295,1.394
		c-0.818,0.931-1.229,2.221-1.229,3.873c0,1.529,0.4,2.761,1.2,3.688c0.799,0.929,1.892,1.394,3.277,1.394
		c1.409,0,2.494-0.457,3.256-1.371c0.761-0.912,1.142-2.182,1.142-3.803c0-1.668-0.379-2.947-1.136-3.838
		C92.755,61.2,91.683,60.755,90.297,60.755z"/>
	<path fill="#FFFFFF" d="M106.368,71.777v-2.125h-0.046c-0.814,1.606-2.071,2.41-3.771,2.41c-2.764,0-4.146-1.739-4.146-5.221V60.08
		h1.062v6.499c0,1.584,0.261,2.733,0.782,3.448c0.521,0.718,1.343,1.074,2.462,1.074c1.089,0,1.972-0.398,2.646-1.199
		c0.674-0.799,1.011-1.864,1.011-3.197V60.08h1.051v11.695h-1.051V71.777z"/>
	<path fill="#FFFFFF" d="M110.561,71.264v-1.269c0.396,0.343,0.875,0.612,1.438,0.812s1.051,0.297,1.462,0.297
		c1.835,0,2.753-0.75,2.753-2.25c0-0.518-0.202-0.959-0.604-1.324c-0.403-0.365-1.06-0.742-1.965-1.131
		c-1.119-0.487-1.906-0.991-2.358-1.515c-0.453-0.521-0.681-1.155-0.681-1.901c0-0.951,0.363-1.721,1.092-2.308
		c0.728-0.586,1.623-0.879,2.689-0.879c1.006,0,1.865,0.205,2.581,0.616V61.6c-0.868-0.563-1.767-0.846-2.694-0.846
		c-0.771,0-1.392,0.2-1.862,0.6c-0.474,0.4-0.708,0.92-0.708,1.561c0,0.557,0.148,1.007,0.445,1.354
		c0.297,0.348,0.951,0.744,1.965,1.193c1.218,0.548,2.056,1.057,2.513,1.523c0.457,0.47,0.687,1.092,0.687,1.869
		c0,0.929-0.35,1.695-1.045,2.301c-0.697,0.604-1.658,0.908-2.886,0.908C112.254,72.063,111.313,71.796,110.561,71.264z"/>
	<path fill="#FFFFFF" d="M120.496,65.975c0,1.607,0.372,2.863,1.113,3.771c0.742,0.907,1.762,1.358,3.057,1.358
		c1.311,0,2.589-0.482,3.837-1.449v1.119c-1.21,0.859-2.562,1.289-4.055,1.289c-1.509,0-2.726-0.539-3.654-1.621
		c-0.93-1.082-1.394-2.607-1.394-4.58c0-1.705,0.484-3.144,1.455-4.313c0.972-1.169,2.233-1.753,3.787-1.753
		c1.453,0,2.569,0.511,3.347,1.53c0.776,1.02,1.165,2.414,1.165,4.181v0.468H120.496z M128.059,65.016
		c-0.045-1.348-0.369-2.395-0.972-3.142c-0.603-0.746-1.433-1.119-2.489-1.119c-1.097,0-2.005,0.368-2.725,1.103
		c-0.721,0.735-1.163,1.787-1.331,3.158H128.059z"/>
</g>
</svg>
