<?xml version="1.0" encoding="utf-8"?>
<!-- Generator: Adobe Illustrator 16.0.0, SVG Export Plug-In . SVG Version: 6.00 Build 0)  -->
<!DOCTYPE svg PUBLIC "-//W3C//DTD SVG 1.1//EN" "http://www.w3.org/Graphics/SVG/1.1/DTD/svg11.dtd">
<svg version="1.1" id="Capa_1" xmlns="http://www.w3.org/2000/svg" xmlns:xlink="http://www.w3.org/1999/xlink" x="0px" y="0px"
	 width="200px" height="200px" viewBox="0 0 200 200" enable-background="new 0 0 200 200" xml:space="preserve">
<g>
	<path fill="#FFFFFF" d="M121.088,83.81c-0.675,0.921-4.055,0.933-4.055,0.933c-3.371,0.226-8.395,0.071-8.313,3.038
		c0.085,3.147,4.186,2.793,6.104,2.715c2.164-0.088,4.023-0.668,5.566-2.552c1.346-1.642,0.756-4.038,0.748-4.136
		C121.133,83.711,121.088,83.81,121.088,83.81z"/>
	<path fill="#FFFFFF" d="M59.913,42.783l-4.741,29.932h2.105c-0.055-0.844-0.125-4.544,2.605-6.895c0,0,2.994-2.949,11.68-2.254
		c0,0,8.87,0.735,8.87,7.177h-6.172c0,0-0.224-3.58-5.743-3.417c0,0-5.641-0.115-5.153,5.389h17.069v2.822
		c0.503-0.77,1.8-2.049,5.087-2.938c0,0,14.018-3.086,15.43,6.907v14.062H94.78V81.904c-0.917-6.285-7.911-5.135-7.911-5.135
		c-4.783,0.407-6.113,3.125-6.437,5.119v11.68h-6.168V76.94H63.456v16.628h-6.168V76.94h-2.784l-10.032,63.342l97.498,15.443
		l10.153-64.098c-2.104,1.489-5.522,2.606-11.062,2.285c-2.245-0.132-4.024-0.38-5.543-0.942c-2.764-1.025-7.248-3.887-7.199-9.419
		l0.002-0.688c-0.059-5.492,4.432-8.357,7.197-9.383c1.519-0.563,3.298-0.812,5.543-0.942c8.326-0.483,11.859,2.28,13.344,4.682
		l3.008-18.995L59.913,42.783z M121.406,93.568l-0.206-2.348v-0.095c-2.425,3.036-8.336,2.852-8.336,2.852
		c-11.078,0.203-10.913-5.886-10.913-5.886c-0.858-6.337,7.204-6.227,13.979-6.624c6.736-0.393,5.15-3.023,5.15-3.023
		c-0.287-2.208-5.15-2.424-5.15-2.424c-6.744-0.532-6.8,3.615-6.8,3.615h-6.312c0,0,0.021-5.321,6.678-6.85
		c0.064-0.021,3.971-1.168,10.771-0.033c0,0,7.631,1.032,7.102,8.275l0.156,12.542H121.406z"/>
	<path fill="#FFFFFF" d="M142.639,76.63c0,0-7.623-0.473-7.893,6.483v0.212c0.26,6.968,7.893,6.493,7.893,6.493
		c3.441,0.021,5.311-1.087,6.27-3.06h3.985l1.118-7.068h-5.104C147.949,77.718,146.08,76.611,142.639,76.63z"/>
</g>
</svg>
