<?xml version="1.0" encoding="utf-8"?>
<!-- Generator: Adobe Illustrator 16.0.0, SVG Export Plug-In . SVG Version: 6.00 Build 0)  -->
<!DOCTYPE svg PUBLIC "-//W3C//DTD SVG 1.1//EN" "http://www.w3.org/Graphics/SVG/1.1/DTD/svg11.dtd">
<svg version="1.1" id="Capa_1" xmlns="http://www.w3.org/2000/svg" xmlns:xlink="http://www.w3.org/1999/xlink" x="0px" y="0px"
	 width="200px" height="104px" viewBox="0 0 200 104" enable-background="new 0 0 200 104" xml:space="preserve">
<g>
	<path fill="#FFFFFF" d="M108.918,44.19c-0.418,0.569-2.512,0.577-2.512,0.577c-2.087,0.14-5.197,0.044-5.146,1.882
		c0.053,1.948,2.592,1.729,3.779,1.681c1.34-0.055,2.492-0.414,3.447-1.58c0.834-1.017,0.469-2.501,0.464-2.562
		S108.918,44.19,108.918,44.19z"/>
	<path fill="#FFFFFF" d="M71.034,18.784l-2.936,18.535h1.303c-0.034-0.522-0.077-2.813,1.613-4.269c0,0,1.854-1.827,7.234-1.396
		c0,0,5.493,0.455,5.493,4.445h-3.822c0,0-0.139-2.217-3.556-2.116c0,0-3.494-0.071-3.192,3.336h10.57v1.748
		c0.312-0.477,1.115-1.269,3.15-1.818c0,0,8.681-1.912,9.556,4.276v8.709h-3.821V43.01c-0.568-3.892-4.899-3.179-4.899-3.179
		c-2.962,0.252-3.786,1.935-3.987,3.169v7.233h-3.819V39.936h-6.693v10.298h-3.82V39.936h-1.724l-6.212,39.226l60.377,9.563
		l6.287-39.694c-1.305,0.923-3.421,1.614-6.851,1.416c-1.391-0.082-2.492-0.236-3.434-0.584c-1.711-0.635-4.488-2.407-4.458-5.833
		l0.001-0.426c-0.036-3.402,2.746-5.176,4.457-5.811c0.941-0.348,2.043-0.503,3.434-0.583c5.155-0.299,7.344,1.412,8.263,2.899
		l1.863-11.762L71.034,18.784z M109.116,50.233l-0.128-1.455V48.72c-1.502,1.881-5.164,1.767-5.164,1.767
		c-6.86,0.125-6.757-3.646-6.757-3.646c-0.531-3.925,4.46-3.856,8.657-4.103c4.171-0.243,3.188-1.872,3.188-1.872
		c-0.178-1.367-3.188-1.501-3.188-1.501c-4.177-0.329-4.211,2.238-4.211,2.238h-3.909c0,0,0.012-3.294,4.134-4.241
		c0.041-0.014,2.46-0.723,6.672-0.021c0,0,4.725,0.64,4.397,5.125l0.097,7.767H109.116L109.116,50.233z"/>
	<path fill="#FFFFFF" d="M122.264,39.744c0,0-4.721-0.292-4.889,4.015v0.132c0.162,4.313,4.889,4.021,4.889,4.021
		c2.131,0.013,3.289-0.674,3.884-1.896h2.469l0.69-4.376h-3.16C125.552,40.417,124.395,39.732,122.264,39.744z"/>
</g>
</svg>
