<svg width="200" height="100" xmlns="http://www.w3.org/2000/svg">
 <!-- Created with SVG-edit - http://svg-edit.googlecode.com/ -->

 <g>
  <title>Layer 1</title>
  <g id="svg_19">
   <path id="svg_5" d="m89.52673,43.27932l2.41222,0l0,3.12218c0,0.17562 -0.95515,0.26479 -1.74887,0.26479c-1.03214,0 -1.64687,-0.46341 -2.23591,-1.41721c-0.6255,-1.01122 -0.85584,-2.31088 -0.85584,-3.8652c0,-1.50907 0.37083,-2.70335 1.01595,-3.54976c0.62482,-0.81871 1.41923,-1.21724 2.38451,-1.21724c1.00514,0 1.78128,0.33233 2.35073,1.01595l0.33775,0.40057l1.52731,-1.61174l-0.27155,-0.31615c-0.90857,-1.0531 -2.21159,-1.58809 -3.87534,-1.58809c-1.76508,0 -3.18566,0.69576 -4.22188,2.06838c-1.00581,1.33276 -1.51652,3.01745 -1.51652,5.01018c0,2.00016 0.4668,3.69905 1.38817,5.04937c0.95852,1.40639 2.37168,2.11971 4.19958,2.11971c1.48812,0 2.88711,-0.49514 4.22324,-1.21388l0,0l0,-6.29836l-3.8051,0l-1.30846,2.0265z" fill="#FFFFFF"/>
   <g transform="matrix(0.6755 0 0 0.6755 7.61347 1.61485)" id="svg_6">
    <path id="svg_7" d="m155.34724,56.21446c-1.06302,-1.56601 -2.577,-2.36002 -4.50101,-2.36002c-1.87299,0 -3.39999,0.758 -4.53799,2.25c-1.11801,1.466 -1.68401,3.30902 -1.68401,5.48001c0,2.39099 0.52699,4.354 1.56902,5.832c1.073,1.52499 2.65601,2.29901 4.707,2.29901c1.78799,0 3.25699,-0.797 4.366,-2.36902c1.07901,-1.52701 1.625,-3.37799 1.625,-5.504c0.00101,-2.22198 -0.52002,-4.116 -1.54401,-5.62799zm-6.96802,1.703c0.56802,-0.90601 1.36301,-1.34702 2.42603,-1.34702c1.05301,0 1.82401,0.45599 2.36398,1.39502c0.59702,1.04498 0.888,2.17297 0.888,3.448c0,1.47897 -0.21399,2.64099 -0.634,3.46198c-0.42899,0.83701 -0.849,1.41101 -1.245,1.70502c-0.38101,0.28101 -0.82199,0.418 -1.349,0.418c-0.55801,0 -1.02399,-0.138 -1.42801,-0.422c-0.423,-0.297 -0.86398,-0.83099 -1.30597,-1.58801c-0.42203,-0.71698 -0.63702,-1.77899 -0.63702,-3.15601c0.00101,-1.62698 0.31,-2.944 0.92099,-3.91498z" fill="#FFFFFF"/>
   </g>
   <polygon id="svg_8" points="122.474 38.5508 119.99 38.5508 118.201 41.7365 116.515 38.5508 114.039 38.5508 117.047 43.4806 113.105 48.6833 115.596 48.6833 118.161 45.2133 120.375 48.6833 122.848 48.6833 119.339 43.4408" fill="#FFFFFF"/>
   <polygon id="svg_9" points="123.687 48.6833 126.389 48.6833 126.389 38.4414 123.687 39.9808" fill="#FFFFFF"/>
   <path id="svg_10" d="m125.08978,35.18684c-0.36477,0 -0.67819,0.14049 -0.90382,0.40799c-0.21143,0.24791 -0.3195,0.53027 -0.3195,0.83695c0,0.34518 0.12698,0.65254 0.36678,0.88829c0.23779,0.23372 0.53365,0.35667 0.85653,0.35667c0.31817,0 0.61066,-0.12431 0.84572,-0.36005s0.3587,-0.54175 0.3587,-0.88558c0,-0.30601 -0.1047,-0.58633 -0.31004,-0.83425c-0.22563,-0.26817 -0.53433,-0.41002 -0.89437,-0.41002z" fill="#FFFFFF"/>
   <path id="svg_11" d="m99.52145,43.65221l4.36981,-0.00339c0.01688,-0.47014 0.00876,-1.23413 -0.02433,-1.66038c-0.08308,-1.21251 -0.46609,-2.21226 -1.13957,-2.9087c-0.67819,-0.69846 -1.59889,-1.06999 -2.73509,-1.06999c-1.35101,0 -2.39736,0.49851 -3.11001,1.49961c-0.68294,0.95853 -1.02946,2.19875 -1.02946,3.69296c0,1.70496 0.38302,3.05596 1.13958,4.01922c0.77614,0.98758 1.81236,1.48745 3.07961,1.48745c0.95379,0 1.74683,-0.19521 2.35749,-0.57822c0.59241,-0.37356 0.87679,-0.97137 1.06931,-2.37573c-0.50055,0.61605 -1.44286,1.06525 -1.44286,1.06525c-0.62888,0.29453 -1.36518,0.25602 -1.8279,0.14051c-0.58092,-0.14591 -1.26319,-0.55931 -1.61851,-1.16524c-0.3195,-0.5458 -0.59105,-1.15781 -0.59105,-1.77319l0,-1.88666c0,-0.30735 0.31275,-0.96596 0.54851,-1.31049c0.2945,-0.43028 0.81871,-0.75048 1.42058,-0.75048c0.62012,0 1.02744,0.27021 1.25845,0.66132c0.19996,0.33911 0.32829,1.19226 0.39181,1.19226l-1.75494,0l-0.3614,1.72388z" fill="#FFFFFF"/>
   <path id="svg_12" d="m127.48985,45.83068c0,0 0.14793,3.00126 3.02083,3.00126c0,0 1.64618,0.22493 2.42841,-1.13485l0.54109,1.1747l1.51244,-0.83694c0,0 -0.49648,-0.66469 -0.49648,-1.79414c0,-1.12875 0,-4.87574 0,-4.87574s0.00941,-3.33563 -3.06883,-3.33563c-3.08092,0 -3.01068,1.23144 -3.01068,1.23144l0,1.79615c0,0 0.60187,-1.33411 2.52638,-1.33411s1.52663,2.87357 1.52663,2.87357l0,3.38696c0,0 -0.05876,1.30912 -1.41858,1.30912c-1.36044,0 -1.32599,-1.71914 -1.32599,-1.71914s0.18442,-1.6489 1.78198,-1.76442l0.34245,-1.48204c-0.00067,0.00135 -4.23132,-0.306 -4.35965,3.50381z" fill="#FFFFFF"/>
   <g transform="matrix(0.6755 0 0 0.6755 7.61347 1.61485)" id="svg_13">
    <path id="svg_14" d="m166.34624,82.87947c-35.67506,11.37598 -67.79809,13.71899 -78.32308,6.505c-4.54498,-1.10803 -7.38998,-2.59702 -9.168,-4.00702c0.064,0.647 0.194,1.29501 0.40201,1.944c4.401,13.80399 39.87799,14.819 79.24108,2.26999c19.90601,-6.34799 36.98898,-14.94699 48.448,-23.685c-11.19098,6.11099 -25.13101,12.04199 -40.60001,16.97302z" fill="#FFFFFF"/>
    <path id="svg_15" d="m84.83517,83.96648c-1.19101,-3.73401 -0.00101,-9.09003 5.99899,-13.22803l0,-4.21899c-9,6.789 -12.40201,12.16901 -11.867,17.564c1.77802,1.41202 4.62302,2.90002 9.16901,4.008c-1.659,-1.13699 -2.78601,-2.51099 -3.30099,-4.12497z" fill="#FFFFFF"/>
   </g>
   <path id="svg_16" d="m103.20291,10.7128c-18.36549,0 -33.2535,15.7682 -33.2535,35.29554c0,6.13557 1.47054,11.63211 4.05569,16.87195c0,0 7.23256,1.21253 9.15099,0c-4.06245,-5.23984 -6.53545,-12.22248 -6.53545,-19.89548c0,-16.49435 12.28465,-28.56216 25.50484,-30.55219c0,0 6.90564,-1.07675 16.03638,2.04474c-4.49747,-2.41222 -9.57791,-3.76456 -14.95895,-3.76456z" fill="#FFFFFF"/>
   <g transform="matrix(0.6755 0 0 0.6755 7.61347 1.61485)" id="svg_17">
    <path id="svg_18" d="m171.22325,87.06346c-6.785,11.76102 -18.27499,19.51199 -31.30902,19.51199c-7.46405,0 -14.42104,-1.896 -20.27905,-6.896l-0.32001,0c-0.76501,0 -4.05301,0.35898 -7.99301,0.35898c-3.94,0 -7.228,-0.35898 -7.992,-0.35898l-0.168,0c9.02402,12 22.84799,19.50702 38.34708,19.50702c23.31401,0 42.842,-17.24103 47.933,-40.38004c-7.478,4.52502 -18.21899,8.25702 -18.21899,8.25702z" fill="#FFFFFF"/>
   </g>
  </g>
 </g>
</svg>