<?xml version="1.0" encoding="utf-8"?>
<!-- Generator: Adobe Illustrator 16.0.0, SVG Export Plug-In . SVG Version: 6.00 Build 0)  -->
<!DOCTYPE svg PUBLIC "-//W3C//DTD SVG 1.1//EN" "http://www.w3.org/Graphics/SVG/1.1/DTD/svg11.dtd">
<svg version="1.1" id="Capa_1" xmlns="http://www.w3.org/2000/svg" xmlns:xlink="http://www.w3.org/1999/xlink" x="0px" y="0px"
	 width="200px" height="100px" viewBox="0 2 200 100" enable-background="new 0 2 200 100" xml:space="preserve">
<g>
	<polygon fill="#FFFFFF" points="41.783,63.609 41.783,67.109 19.914,67.109 19.914,43.058 23.85,43.058 23.85,63.609 	"/>
	<polygon fill="#FFFFFF" points="38.721,51.804 43.095,43.496 38.939,43.496 35.659,51.804 	"/>
	<path fill="#FFFFFF" d="M74.476,47.007c-1.418-2.23-3.49-4.105-5.928-5.385c-2.439-1.278-5.246-1.959-8.053-1.959
		c-2.806,0-5.613,0.681-8.052,1.959c-2.439,1.279-4.511,3.154-5.929,5.385s-2.184,4.817-2.184,7.403s0.766,5.174,2.184,7.404
		s3.49,4.105,5.929,5.388c2.439,1.276,5.246,1.959,8.052,1.959c2.808,0,5.614-0.683,8.053-1.959c2.438-1.279,4.51-3.154,5.928-5.388
		c1.418-2.23,2.184-4.818,2.184-7.404S75.895,49.237,74.476,47.007L74.476,47.007L74.476,47.007L74.476,47.007z M71.074,60.3
		c-1.059,1.752-2.607,3.228-4.435,4.234c-1.827,1.006-3.933,1.543-6.039,1.543s-4.212-0.537-6.04-1.543
		c-1.827-1.009-3.375-2.482-4.433-4.234c-1.058-1.749-1.627-3.774-1.627-5.8c0-2.025,0.569-4.049,1.627-5.799
		c1.059-1.751,2.606-3.228,4.433-4.233c1.828-1.007,3.934-1.545,6.04-1.545s4.212,0.538,6.039,1.545
		c1.827,1.006,3.375,2.482,4.435,4.233c1.058,1.75,1.627,3.774,1.627,5.799C72.701,56.525,72.132,58.551,71.074,60.3L71.074,60.3
		L71.074,60.3L71.074,60.3z"/>
	<path fill="#FFFFFF" d="M104.111,53.432c-0.711,1.565-2.057,2.473-3.11,3.021c-1.054,0.549-1.813,0.737-2.578,0.71l0,0l7.653,9.949
		h-4.373l-7.402-9.621h-9.656v9.621h-3.936V43.058h15.746l0,0c1.59,0,3.205,0.314,4.629,1.115c1.425,0.801,2.654,2.02,3.234,3.741
		C104.896,49.636,104.823,51.864,104.111,53.432L104.111,53.432z M99.71,53.268c0.829-0.701,1.319-1.854,1.276-2.997
		c-0.041-1.144-0.617-2.275-1.441-2.965c-0.824-0.689-1.876-0.748-2.872-0.748l0,0H84.645v7.434h12.028l0,0
		C97.736,53.99,98.881,53.966,99.71,53.268L99.71,53.268z"/>
	<polygon fill="#FFFFFF" points="126.854,53.335 126.854,56.615 113.514,56.615 113.514,63.609 131.443,63.609 131.443,67.109 
		109.576,67.109 109.576,43.058 131.443,43.058 131.443,46.558 113.514,46.558 113.514,53.335 	"/>
	<polygon fill="#FFFFFF" points="127.07,39.342 121.167,39.342 118.762,42.401 	"/>
	<path fill="#FFFFFF" d="M139.154,60.986l-3.117,6.123H132.1l12.248-24.052h3.936l12.246,24.052h-3.938l-3.113-6.123H139.154
		L139.154,60.986z M146.314,46.924l-5.604,11.002h11.204L146.314,46.924L146.314,46.924z"/>
	<polygon fill="#FFFFFF" points="184.367,63.609 184.367,67.109 162.499,67.109 162.499,43.058 166.436,43.058 166.436,63.609 	"/>
	<path fill="#FFFFFF" d="M182.663,47.885l-0.033-0.575l0,0c-0.007-0.104,0.002-0.211-0.04-0.33c-0.043-0.121-0.115-0.25-0.191-0.336
		c-0.078-0.086-0.158-0.125-0.244-0.137c0.162-0.056,0.306-0.166,0.406-0.331c0.104-0.165,0.166-0.381,0.162-0.614
		c-0.005-0.234-0.072-0.484-0.197-0.668c-0.271-0.395-0.74-0.461-1.152-0.441l0,0h-1.742v4.02h0.676v-1.652h1.01l0,0
		c0.109,0.002,0.295-0.014,0.479,0.13c0.243,0.288,0.138,0.666,0.181,0.987c0.004,0.191,0.021,0.373,0.102,0.535l0,0h0.76v-0.125
		l0,0C182.691,48.29,182.682,48.088,182.663,47.885L182.663,47.885L182.663,47.885L182.663,47.885z M181.827,46.116
		c-0.211,0.134-0.429,0.134-0.576,0.131l0,0h-0.954v-1.223l0,0c0.416,0.004,0.836-0.019,1.248,0.015
		c0.163,0.021,0.354,0.112,0.446,0.317C182.079,45.623,182.082,45.908,181.827,46.116L181.827,46.116L181.827,46.116L181.827,46.116
		z"/>
	<path fill="#FFFFFF" d="M184.134,44.752c-0.296-0.512-0.729-0.944-1.239-1.24c-0.515-0.296-1.104-0.454-1.697-0.454
		c-0.59,0-1.182,0.158-1.692,0.454c-0.515,0.296-0.944,0.729-1.239,1.24c-0.298,0.513-0.455,1.104-0.455,1.695
		c0,0.592,0.157,1.183,0.455,1.694c0.295,0.512,0.729,0.944,1.239,1.239c0.513,0.297,1.104,0.456,1.692,0.456
		c0.595,0,1.186-0.159,1.697-0.456c0.512-0.295,0.943-0.728,1.239-1.239c0.296-0.512,0.454-1.104,0.454-1.694
		C184.588,45.857,184.43,45.265,184.134,44.752L184.134,44.752L184.134,44.752L184.134,44.752z M183.729,47.922
		c-0.252,0.435-0.619,0.802-1.058,1.054c-0.437,0.25-0.938,0.385-1.44,0.385c-0.5,0-1.004-0.135-1.438-0.385
		c-0.438-0.252-0.806-0.619-1.058-1.054s-0.387-0.938-0.387-1.438c0-0.502,0.135-1.002,0.387-1.438
		c0.252-0.435,0.619-0.803,1.058-1.053c0.437-0.251,0.938-0.386,1.438-0.386c0.504,0,1.008,0.135,1.44,0.386
		c0.438,0.25,0.806,0.618,1.058,1.053s0.385,0.937,0.385,1.438S183.979,47.487,183.729,47.922L183.729,47.922L183.729,47.922
		L183.729,47.922z"/>
</g>
</svg>
