<?xml version="1.0" encoding="utf-8"?>
<!-- Generator: Adobe Illustrator 16.0.0, SVG Export Plug-In . SVG Version: 6.00 Build 0)  -->
<!DOCTYPE svg PUBLIC "-//W3C//DTD SVG 1.1//EN" "http://www.w3.org/Graphics/SVG/1.1/DTD/svg11.dtd">
<svg version="1.1" id="Capa_1" xmlns="http://www.w3.org/2000/svg" xmlns:xlink="http://www.w3.org/1999/xlink" x="0px" y="0px"
	 width="200px" height="200px" viewBox="0 0 200 200" enable-background="new 0 0 200 200" xml:space="preserve">
<g>
	<polygon fill-rule="evenodd" clip-rule="evenodd" fill="#FFFFFF" points="39.532,105.193 39.532,108.693 17.663,108.693 
		17.663,84.641 21.599,84.641 21.599,105.193 39.532,105.193 	"/>
	<polygon fill-rule="evenodd" clip-rule="evenodd" fill="#FFFFFF" points="36.47,93.387 40.844,85.079 36.688,85.079 33.408,93.387 
		36.47,93.387 	"/>
	<path fill-rule="evenodd" clip-rule="evenodd" fill="#FFFFFF" d="M72.225,88.59c-1.418-2.23-3.49-4.106-5.928-5.385
		c-2.439-1.278-5.246-1.959-8.053-1.959c-2.806,0-5.613,0.681-8.052,1.959c-2.439,1.279-4.511,3.155-5.929,5.385
		c-1.418,2.23-2.184,4.817-2.184,7.403s0.766,5.174,2.184,7.405c1.418,2.232,3.49,4.107,5.929,5.387
		c2.439,1.277,5.246,1.959,8.052,1.959c2.808,0,5.614-0.682,8.053-1.959c2.438-1.279,4.51-3.154,5.928-5.387
		c1.418-2.231,2.184-4.819,2.184-7.405S73.644,90.82,72.225,88.59L72.225,88.59L72.225,88.59L72.225,88.59z M68.823,101.883
		c-1.059,1.752-2.607,3.227-4.435,4.234c-1.827,1.006-3.933,1.543-6.039,1.543s-4.212-0.537-6.04-1.543
		c-1.827-1.008-3.375-2.482-4.433-4.234c-1.058-1.749-1.627-3.775-1.627-5.8s0.569-4.049,1.627-5.799
		c1.059-1.751,2.606-3.227,4.433-4.233c1.828-1.007,3.934-1.545,6.04-1.545s4.212,0.538,6.039,1.545
		c1.827,1.006,3.375,2.482,4.435,4.233c1.058,1.75,1.627,3.774,1.627,5.799S69.881,100.134,68.823,101.883L68.823,101.883
		L68.823,101.883L68.823,101.883z"/>
	<path fill-rule="evenodd" clip-rule="evenodd" fill="#FFFFFF" d="M101.861,95.013c-0.71,1.567-2.058,2.473-3.111,3.021
		c-1.054,0.549-1.813,0.738-2.578,0.71l0,0l7.653,9.95h-4.373l-7.402-9.622h-9.656v9.622h-3.936V84.641h15.746l0,0
		c1.59,0,3.205,0.314,4.629,1.115c1.425,0.801,2.656,2.019,3.236,3.741C102.647,91.219,102.573,93.447,101.861,95.013
		L101.861,95.013z M97.459,94.849c0.829-0.701,1.319-1.854,1.277-2.996c-0.042-1.143-0.618-2.275-1.442-2.965
		c-0.824-0.689-1.876-0.748-2.872-0.748l0,0H82.394v7.434h12.028l0,0C95.485,95.573,96.63,95.549,97.459,94.849L97.459,94.849z"/>
	<polygon fill-rule="evenodd" clip-rule="evenodd" fill="#FFFFFF" points="124.601,94.918 124.601,98.198 111.261,98.198 
		111.261,105.193 129.194,105.193 129.194,108.693 107.325,108.693 107.325,84.641 129.194,84.641 129.194,88.14 111.261,88.14 
		111.261,94.918 124.601,94.918 	"/>
	<polygon fill-rule="evenodd" clip-rule="evenodd" fill="#FFFFFF" points="124.82,80.925 118.916,80.925 116.51,83.985 
		124.82,80.925 	"/>
	<path fill-rule="evenodd" clip-rule="evenodd" fill="#FFFFFF" d="M136.904,102.57l-3.118,6.123h-3.936l12.247-24.052h3.935
		l12.247,24.052h-3.937l-3.116-6.123H136.904L136.904,102.57z M144.064,88.507l-5.603,11.002h11.204L144.064,88.507L144.064,88.507z
		"/>
	<polygon fill-rule="evenodd" clip-rule="evenodd" fill="#FFFFFF" points="182.116,105.193 182.116,108.693 160.248,108.693 
		160.248,84.641 164.184,84.641 164.184,105.193 182.116,105.193 	"/>
	<path fill-rule="evenodd" clip-rule="evenodd" fill="#FFFFFF" d="M180.412,89.468l-0.033-0.575l0,0
		c-0.007-0.105,0.002-0.211-0.04-0.331c-0.043-0.12-0.116-0.25-0.193-0.336c-0.078-0.085-0.158-0.125-0.243-0.136
		c0.161-0.056,0.304-0.166,0.405-0.331c0.104-0.165,0.166-0.381,0.162-0.615c-0.003-0.234-0.072-0.484-0.196-0.668
		c-0.27-0.394-0.742-0.461-1.154-0.441l0,0h-1.742v4.019h0.675v-1.651h1.01l0,0c0.11,0.001,0.294-0.014,0.479,0.129
		c0.243,0.288,0.135,0.666,0.178,0.987c0.004,0.192,0.022,0.374,0.103,0.535l0,0h0.759v-0.125l0,0
		C180.441,89.873,180.429,89.671,180.412,89.468L180.412,89.468L180.412,89.468L180.412,89.468z M179.576,87.699
		c-0.211,0.134-0.427,0.134-0.576,0.131l0,0h-0.954v-1.223l0,0c0.416,0.005,0.836-0.018,1.248,0.015
		c0.163,0.021,0.352,0.112,0.446,0.318C179.828,87.206,179.831,87.491,179.576,87.699L179.576,87.699L179.576,87.699L179.576,87.699
		z"/>
	<path fill-rule="evenodd" clip-rule="evenodd" fill="#FFFFFF" d="M181.883,86.335c-0.296-0.512-0.729-0.945-1.241-1.24
		c-0.513-0.296-1.104-0.455-1.696-0.455c-0.591,0-1.183,0.159-1.694,0.455c-0.513,0.295-0.946,0.728-1.241,1.24
		c-0.296,0.512-0.455,1.104-0.455,1.695c0,0.592,0.159,1.183,0.455,1.695c0.295,0.512,0.729,0.944,1.241,1.239
		c0.512,0.297,1.104,0.456,1.694,0.456c0.593,0,1.184-0.159,1.696-0.456c0.513-0.295,0.945-0.728,1.241-1.239
		c0.295-0.512,0.454-1.104,0.454-1.695C182.337,87.439,182.178,86.848,181.883,86.335L181.883,86.335L181.883,86.335L181.883,86.335
		z M181.477,89.505c-0.253,0.434-0.62,0.802-1.057,1.053c-0.435,0.25-0.938,0.385-1.441,0.385c-0.501,0-1.005-0.135-1.439-0.385
		c-0.437-0.251-0.804-0.619-1.055-1.053c-0.253-0.435-0.387-0.938-0.387-1.439s0.134-1.002,0.387-1.438
		c0.251-0.435,0.618-0.803,1.055-1.053c0.435-0.251,0.938-0.385,1.439-0.385c0.503,0,1.007,0.134,1.441,0.385
		c0.437,0.25,0.804,0.618,1.057,1.053c0.251,0.435,0.385,0.936,0.385,1.438S181.728,89.07,181.477,89.505L181.477,89.505
		L181.477,89.505L181.477,89.505z"/>
</g>
</svg>
