<?xml version="1.0" encoding="utf-8"?>
<!-- Generator: Adobe Illustrator 16.0.0, SVG Export Plug-In . SVG Version: 6.00 Build 0)  -->
<!DOCTYPE svg PUBLIC "-//W3C//DTD SVG 1.1//EN" "http://www.w3.org/Graphics/SVG/1.1/DTD/svg11.dtd">
<svg version="1.1" id="Capa_1" xmlns="http://www.w3.org/2000/svg" xmlns:xlink="http://www.w3.org/1999/xlink" x="0px" y="0px"
	 width="200px" height="104px" viewBox="0 0 200 104" enable-background="new 0 0 200 104" xml:space="preserve">
<g>
	<polygon fill="#FFFFFF" points="42.783,63.61 42.783,67.11 20.914,67.11 20.914,43.058 24.85,43.058 24.85,63.61 	"/>
	<polygon fill="#FFFFFF" points="39.721,51.804 44.095,43.496 39.939,43.496 36.659,51.804 	"/>
	<path fill="#FFFFFF" d="M75.476,47.007c-1.418-2.23-3.49-4.105-5.928-5.385c-2.439-1.278-5.246-1.959-8.053-1.959
		c-2.806,0-5.613,0.681-8.052,1.959c-2.439,1.279-4.511,3.154-5.929,5.385s-2.184,4.817-2.184,7.403s0.766,5.174,2.184,7.405
		c1.418,2.23,3.49,4.105,5.929,5.387c2.439,1.277,5.246,1.959,8.052,1.959c2.808,0,5.614-0.682,8.053-1.959
		c2.438-1.279,4.51-3.154,5.928-5.387c1.418-2.231,2.184-4.819,2.184-7.405S76.895,49.237,75.476,47.007L75.476,47.007
		L75.476,47.007L75.476,47.007z M72.074,60.3c-1.059,1.752-2.607,3.227-4.435,4.234c-1.827,1.006-3.933,1.543-6.039,1.543
		s-4.212-0.537-6.04-1.543c-1.827-1.008-3.375-2.482-4.433-4.234c-1.058-1.749-1.627-3.775-1.627-5.8s0.569-4.049,1.627-5.799
		c1.059-1.751,2.606-3.228,4.433-4.233c1.828-1.007,3.934-1.545,6.04-1.545s4.212,0.538,6.039,1.545
		c1.827,1.006,3.375,2.482,4.435,4.233c1.058,1.75,1.627,3.774,1.627,5.799S73.132,58.551,72.074,60.3L72.074,60.3L72.074,60.3
		L72.074,60.3z"/>
	<path fill="#FFFFFF" d="M105.112,53.431c-0.711,1.566-2.058,2.473-3.111,3.021c-1.054,0.549-1.813,0.737-2.578,0.71l0,0
		l7.653,9.949h-4.373l-7.402-9.621h-9.656v9.621h-3.936V43.058h15.746l0,0c1.59,0,3.205,0.314,4.629,1.115
		c1.425,0.801,2.655,2.02,3.235,3.741C105.897,49.636,105.823,51.864,105.112,53.431L105.112,53.431z M100.71,53.267
		c0.829-0.701,1.319-1.854,1.276-2.996c-0.041-1.144-0.617-2.275-1.441-2.965c-0.824-0.689-1.876-0.748-2.872-0.748l0,0H85.645
		v7.434h12.028l0,0C98.736,53.99,99.881,53.966,100.71,53.267L100.71,53.267z"/>
	<polygon fill="#FFFFFF" points="127.853,53.335 127.853,56.615 114.513,56.615 114.513,63.61 132.444,63.61 132.444,67.11 
		110.576,67.11 110.576,43.058 132.444,43.058 132.444,46.558 114.513,46.558 114.513,53.335 	"/>
	<polygon fill="#FFFFFF" points="128.071,39.342 122.167,39.342 119.761,42.401 	"/>
	<path fill="#FFFFFF" d="M140.155,60.987l-3.118,6.123h-3.937l12.248-24.053h3.935L161.53,67.11h-3.938l-3.114-6.123H140.155
		L140.155,60.987z M147.315,46.924l-5.604,11.002h11.204L147.315,46.924L147.315,46.924z"/>
	<polygon fill="#FFFFFF" points="185.367,63.61 185.367,67.11 163.499,67.11 163.499,43.058 167.435,43.058 167.435,63.61 	"/>
	<path fill="#FFFFFF" d="M183.663,47.885l-0.033-0.575l0,0c-0.007-0.104,0.002-0.211-0.04-0.33c-0.043-0.121-0.116-0.25-0.192-0.336
		c-0.078-0.086-0.158-0.125-0.244-0.137c0.162-0.056,0.306-0.166,0.406-0.331c0.104-0.165,0.166-0.381,0.162-0.614
		c-0.004-0.234-0.072-0.484-0.197-0.668c-0.27-0.395-0.74-0.461-1.152-0.441l0,0h-1.742v4.02h0.676v-1.652h1.01l0,0
		c0.109,0.002,0.295-0.014,0.479,0.13c0.243,0.288,0.137,0.666,0.18,0.987c0.004,0.191,0.021,0.373,0.102,0.535l0,0h0.76v-0.125l0,0
		C183.692,48.29,183.681,48.088,183.663,47.885L183.663,47.885L183.663,47.885L183.663,47.885z M182.827,46.116
		c-0.211,0.134-0.428,0.134-0.576,0.131l0,0h-0.954v-1.223l0,0c0.416,0.004,0.836-0.019,1.248,0.015
		c0.163,0.021,0.353,0.112,0.446,0.317C183.079,45.623,183.082,45.908,182.827,46.116L182.827,46.116L182.827,46.116L182.827,46.116
		z"/>
	<path fill="#FFFFFF" d="M185.134,44.752c-0.296-0.512-0.729-0.944-1.24-1.24c-0.514-0.296-1.104-0.454-1.697-0.454
		c-0.59,0-1.182,0.158-1.692,0.454c-0.515,0.296-0.944,0.729-1.239,1.24c-0.298,0.513-0.455,1.104-0.455,1.695
		c0,0.592,0.157,1.183,0.455,1.694c0.295,0.512,0.729,0.944,1.239,1.239c0.513,0.297,1.104,0.456,1.692,0.456
		c0.595,0,1.186-0.159,1.697-0.456c0.512-0.295,0.944-0.728,1.24-1.239c0.295-0.512,0.454-1.104,0.454-1.694
		S185.429,45.265,185.134,44.752L185.134,44.752L185.134,44.752L185.134,44.752z M184.728,47.922
		c-0.252,0.435-0.619,0.802-1.057,1.054c-0.436,0.25-0.938,0.385-1.441,0.385c-0.5,0-1.004-0.135-1.438-0.385
		c-0.438-0.252-0.805-0.619-1.057-1.054s-0.387-0.938-0.387-1.438c0-0.502,0.135-1.002,0.387-1.438
		c0.252-0.435,0.619-0.803,1.057-1.053c0.436-0.251,0.938-0.386,1.438-0.386c0.504,0,1.008,0.135,1.441,0.386
		c0.438,0.25,0.805,0.618,1.057,1.053s0.385,0.937,0.385,1.438S184.979,47.487,184.728,47.922L184.728,47.922L184.728,47.922
		L184.728,47.922z"/>
</g>
</svg>
