<?xml version="1.0" encoding="utf-8"?>
<!-- Generator: Adobe Illustrator 16.0.0, SVG Export Plug-In . SVG Version: 6.00 Build 0)  -->
<!DOCTYPE svg PUBLIC "-//W3C//DTD SVG 1.1//EN" "http://www.w3.org/Graphics/SVG/1.1/DTD/svg11.dtd">
<svg version="1.1" id="Capa_1" xmlns="http://www.w3.org/2000/svg" xmlns:xlink="http://www.w3.org/1999/xlink" x="0px" y="0px"
	 width="200px" height="102.5px" viewBox="0 0 200 102.5" enable-background="new 0 0 200 102.5" xml:space="preserve">
<path fill="#FFFFFF" d="M140.678,54.418c-0.566,0-1.145,0.02-1.721,0.047v-0.416c0.354-0.166,0.586-0.293,0.686-0.39l0.115-0.192
	c0.059-0.154,0.09-0.484,0.107-1.01c0.029-0.758,0.049-1.213,0.049-1.356V46.58c0-0.757-0.02-1.504-0.049-2.23
	c-0.02-0.524-0.061-0.846-0.127-0.941c-0.068-0.097-0.176-0.174-0.322-0.223c-0.146-0.039-0.559-0.078-1.24-0.088v-0.525
	c1.426,0.028,2.307,0.049,2.646,0.049c0.371,0,1.223-0.021,2.531-0.049v0.523c-0.703,0.01-1.123,0.049-1.279,0.088
	c-0.146,0.049-0.256,0.117-0.313,0.203c-0.066,0.115-0.105,0.389-0.129,0.814c-0.01,0.106-0.027,0.902-0.049,2.376v5.646
	c0,0.591,0.012,1.065,0.049,1.435c0.666,0.039,0.742,0.049,1.398,0.049c1.66,0,2.9-0.098,3.564-0.3
	c0.078-0.166,0.146-0.358,0.205-0.573l0.354-1.396h0.576c-0.127,0.834-0.256,1.813-0.381,2.93c-0.236,0.05-0.432,0.067-0.566,0.087
	c-0.305,0.01-0.783,0.01-1.408,0.01L140.678,54.418L140.678,54.418z"/>
<path fill="#FFFFFF" d="M151.551,54.418l-2.705,0.047v-0.521c0.682-0.01,1.104-0.049,1.25-0.1c0.154-0.049,0.254-0.115,0.313-0.192
	c0.066-0.116,0.115-0.378,0.137-0.805c0.01-0.128,0.02-0.923,0.049-2.396v-3.87c0-0.757-0.02-1.504-0.049-2.23
	c-0.021-0.524-0.061-0.846-0.129-0.941c-0.066-0.097-0.176-0.174-0.32-0.223c-0.146-0.039-0.566-0.078-1.25-0.088v-0.525
	c1.113,0.028,1.982,0.049,2.588,0.049c0.576,0,1.438-0.021,2.568-0.049v0.523c-0.691,0.01-1.104,0.049-1.25,0.088
	c-0.156,0.049-0.254,0.117-0.313,0.203c-0.068,0.115-0.115,0.379-0.127,0.814c-0.01,0.106-0.027,0.902-0.061,2.376v3.871
	c0,0.767,0.021,1.513,0.029,2.229c0.021,0.522,0.059,0.846,0.127,0.94c0.068,0.099,0.176,0.175,0.322,0.224
	c0.156,0.05,0.576,0.089,1.27,0.099v0.522C152.762,54.437,151.941,54.418,151.551,54.418L151.551,54.418L151.551,54.418z
	 M152.252,50.449v-3.871c0.031-1.474,0.051-2.27,0.061-2.376L152.252,50.449L152.252,50.449z"/>
<path fill="#FFFFFF" d="M167.436,54.767l-0.227-0.224l-0.137-0.125c-0.039-0.029-0.146-0.138-0.332-0.343
	c-0.488-0.532-0.85-0.931-1.074-1.2l-1.133-1.389l-6.242-7.169v6.498c0,0.556,0.02,1.203,0.059,1.96
	c0.02,0.466,0.059,0.757,0.117,0.864l0.186,0.163c0.195,0.078,0.598,0.128,1.211,0.138v0.522c-0.508-0.028-1.084-0.049-1.699-0.049
	c-0.684,0-1.416,0.021-2.217,0.049V53.94c0.615-0.01,1.025-0.06,1.221-0.146l0.178-0.153c0.059-0.116,0.098-0.407,0.127-0.884
	c0.027-0.737,0.049-1.367,0.049-1.901v-6.817c0-0.185-0.01-0.312-0.039-0.359c-0.049-0.098-0.146-0.223-0.322-0.357
	c-0.098-0.088-0.225-0.146-0.361-0.176c-0.137-0.02-0.447-0.039-0.918-0.049v-0.525c1.008,0.028,1.65,0.049,1.916,0.049
	c0.438,0,0.879-0.021,1.316-0.049c0.488,0.611,0.852,1.066,1.086,1.367l1.799,2.125l2.615,3.045c0.83,0.971,1.506,1.736,2.023,2.291
	c0.32,0.367,0.586,0.658,0.811,0.861v-6.09c0-0.554-0.02-1.192-0.049-1.922c-0.029-0.465-0.066-0.757-0.117-0.862l-0.186-0.164
	c-0.195-0.078-0.605-0.117-1.213-0.127v-0.524c0.693,0.028,1.396,0.049,2.109,0.049c0.664,0,1.279-0.021,1.826-0.049v0.523
	c-0.615,0.01-1.016,0.049-1.211,0.127l-0.176,0.175c-0.061,0.104-0.107,0.396-0.127,0.883c-0.029,0.728-0.049,1.366-0.049,1.901
	v4.023c0,0.815,0.02,2.34,0.049,4.569L167.436,54.767L167.436,54.767z"/>
<path fill="#FFFFFF" d="M174.039,54.418l-2.693,0.047v-0.521c0.684-0.01,1.094-0.049,1.25-0.1c0.145-0.049,0.254-0.115,0.313-0.192
	c0.068-0.116,0.107-0.378,0.129-0.805c0.008-0.128,0.027-0.923,0.047-2.396v-3.87c0-0.757-0.01-1.504-0.047-2.23
	c-0.021-0.524-0.061-0.846-0.129-0.941c-0.059-0.097-0.166-0.174-0.313-0.223c-0.156-0.039-0.566-0.078-1.25-0.088v-0.525
	c1.111,0.028,1.973,0.049,2.576,0.049c0.586,0,1.447-0.021,2.57-0.049v0.523c-0.684,0.01-1.104,0.049-1.25,0.088
	c-0.146,0.049-0.256,0.117-0.305,0.203c-0.078,0.115-0.115,0.379-0.137,0.814c-0.01,0.106-0.02,0.902-0.049,2.376v3.871
	c0,0.767,0.01,1.513,0.029,2.229c0.01,0.522,0.059,0.846,0.127,0.94c0.066,0.097,0.176,0.175,0.32,0.224
	c0.146,0.05,0.564,0.089,1.262,0.099v0.522C175.25,54.437,174.441,54.418,174.039,54.418L174.039,54.418z"/>
<path fill="#FFFFFF" d="M182.215,54.368c-0.779-0.214-1.455-0.524-2.041-0.932c-0.586-0.397-1.064-0.853-1.438-1.349
	c-0.369-0.504-0.654-1.047-0.85-1.641c-0.195-0.582-0.283-1.232-0.283-1.931c0-1.774,0.652-3.239,1.953-4.403
	c1.311-1.165,3.096-1.746,5.361-1.746c0.529,0,1.025,0.029,1.484,0.088c0.449,0.059,1.006,0.163,1.662,0.328
	c0.654,0.165,1.055,0.262,1.201,0.291c-0.127,0.303-0.227,0.602-0.283,0.893c-0.1,0.476-0.156,1.029-0.195,1.649h-0.525
	l-0.012-0.979c-0.059-0.544-0.381-0.951-0.957-1.224c-0.588-0.262-1.436-0.396-2.551-0.396c-0.84,0.02-1.553,0.115-2.129,0.302
	c-0.586,0.192-1.104,0.494-1.543,0.911c-0.451,0.407-0.813,0.932-1.096,1.57c-0.283,0.632-0.432,1.427-0.432,2.396
	c0,1.678,0.539,3.036,1.633,4.057c1.086,1.026,2.521,1.53,4.309,1.53c0.801,0,1.545-0.104,2.238-0.31
	c0.469-0.146,0.938-0.368,1.396-0.67l0.146,0.175l-0.342,0.785c-0.686,0.319-1.357,0.563-2.014,0.709
	c-0.664,0.145-1.377,0.223-2.158,0.223C183.848,54.697,182.998,54.592,182.215,54.368L182.215,54.368z"/>
<path fill="#FFFFFF" d="M130.371,54.368c-0.781-0.214-1.455-0.524-2.041-0.932c-0.586-0.397-1.064-0.853-1.438-1.349
	c-0.371-0.504-0.654-1.047-0.852-1.641c-0.193-0.582-0.281-1.232-0.281-1.931c0-1.774,0.652-3.239,1.953-4.403
	c1.311-1.165,3.098-1.746,5.354-1.746c0.537,0,1.035,0.029,1.494,0.088c0.449,0.059,1.006,0.163,1.662,0.328
	c0.652,0.165,1.055,0.262,1.199,0.291c-0.127,0.303-0.225,0.602-0.281,0.893c-0.1,0.476-0.156,1.029-0.195,1.649h-0.529
	l-0.008-0.979c-0.059-0.544-0.383-0.951-0.957-1.224c-0.588-0.262-1.438-0.396-2.551-0.396c-0.84,0.02-1.555,0.115-2.131,0.302
	c-0.586,0.192-1.104,0.494-1.543,0.911c-0.449,0.407-0.813,0.932-1.094,1.57c-0.283,0.632-0.432,1.427-0.432,2.396
	c0,1.678,0.537,3.036,1.621,4.057c1.096,1.026,2.531,1.53,4.311,1.53c0.811,0,1.553-0.104,2.246-0.31
	c0.471-0.146,0.93-0.368,1.396-0.67l0.145,0.175l-0.342,0.785c-0.684,0.319-1.355,0.563-2.02,0.709
	c-0.656,0.145-1.369,0.223-2.15,0.223C132.002,54.697,131.152,54.592,130.371,54.368L130.371,54.368z"/>
<path fill="#FFFFFF" d="M73.875,54.64c-0.078-0.214-0.156-0.388-0.215-0.505l-0.605-1.223l-4.21-8.265v5.83
	c0,0.756,0.019,1.493,0.068,2.211c0.01,0.522,0.06,0.835,0.127,0.933c0.059,0.104,0.176,0.174,0.323,0.223
	c0.146,0.05,0.576,0.089,1.27,0.099v0.533l-2.129-0.067l-2.218,0.067v-0.533c0.694-0.01,1.114-0.049,1.27-0.099
	c0.157-0.049,0.263-0.116,0.323-0.193c0.068-0.105,0.107-0.378,0.126-0.805c0.009-0.116,0.02-0.902,0.049-2.366v-3.842
	c0-0.747-0.019-1.483-0.049-2.214c-0.02-0.512-0.059-0.834-0.126-0.931c-0.069-0.096-0.176-0.163-0.323-0.212
	s-0.576-0.078-1.27-0.088v-0.563c0.615,0.047,1.212,0.066,1.769,0.066c0.577,0,1.114-0.021,1.642-0.066
	c0.517,1.125,0.986,2.095,1.416,2.93l3.352,6.498l3.019-5.955c0.821-1.621,1.368-2.773,1.65-3.473
	c0.617,0.047,1.143,0.066,1.574,0.066c0.391,0,1.025-0.021,1.904-0.066v0.563c-0.704,0.01-1.123,0.039-1.27,0.088
	c-0.156,0.049-0.253,0.116-0.312,0.202c-0.079,0.106-0.127,0.37-0.137,0.797c-0.01,0.104-0.02,0.901-0.039,2.356v3.842
	c0,0.756,0.01,1.493,0.039,2.211c0.019,0.523,0.058,0.835,0.126,0.932c0.069,0.105,0.176,0.174,0.323,0.223
	c0.147,0.051,0.576,0.09,1.27,0.1v0.533c-1.182-0.051-2.022-0.067-2.511-0.067c-0.391,0-1.259,0.021-2.598,0.067v-0.533
	c0.694-0.01,1.124-0.049,1.28-0.1c0.146-0.049,0.254-0.115,0.303-0.192c0.078-0.116,0.118-0.378,0.137-0.805
	c0-0.116,0.019-0.902,0.039-2.366v-6.112l-3.039,6.024c-0.478,0.932-0.849,1.688-1.124,2.26c-0.195,0.418-0.489,1.076-0.879,1.988
	L73.875,54.64L73.875,54.64z"/>
<path fill="#FFFFFF" d="M94.577,54.418l-2.843,0.059v-0.533c0.665-0.01,1.065-0.027,1.202-0.061
	c0.146-0.027,0.234-0.066,0.283-0.127l0.079-0.191c0-0.115-0.041-0.281-0.118-0.477l-1.094-2.549h-5.119l-0.948,2.143
	c-0.166,0.389-0.254,0.67-0.254,0.845l0.069,0.192c0.068,0.066,0.167,0.115,0.302,0.146c0.216,0.051,0.597,0.078,1.144,0.078v0.533
	c-0.997-0.039-1.74-0.059-2.238-0.059c-0.566,0-1.191,0.02-1.875,0.059v-0.533c0.459,0,0.752-0.021,0.87-0.049
	c0.118-0.039,0.225-0.1,0.323-0.186c0.097-0.078,0.234-0.301,0.419-0.67c0.098-0.203,0.479-0.99,1.143-2.348l2.208-4.705
	c0.245-0.514,0.762-1.668,1.554-3.462h0.557l3.78,8.38c0.616,1.358,1.017,2.203,1.221,2.553c0.108,0.202,0.234,0.328,0.362,0.387
	c0.137,0.061,0.429,0.1,0.899,0.1v0.533C95.583,54.437,94.937,54.418,94.577,54.418L94.577,54.418L94.577,54.418z M87.27,49.828
	h4.464l-2.208-5.016L87.27,49.828L87.27,49.828z"/>
<path fill="#FFFFFF" d="M100.76,54.418c-0.664,0-1.553,0.02-2.647,0.059v-0.533c0.684-0.01,1.104-0.039,1.25-0.088
	c0.155-0.049,0.253-0.117,0.302-0.193c0.079-0.115,0.127-0.379,0.137-0.806c0.01-0.116,0.029-0.901,0.058-2.356v-0.971
	c-0.126-0.252-0.244-0.477-0.361-0.669c-0.088-0.136-0.381-0.622-0.899-1.437l-2.247-3.151c-0.273-0.438-0.478-0.699-0.615-0.815
	c-0.108-0.086-0.255-0.154-0.431-0.203c-0.175-0.039-0.41-0.067-1.114-0.088v-0.533c1.163,0.037,1.505,0.058,2.091,0.058
	c0.605,0,2.159-0.021,3.253-0.058v0.533c-0.684,0.02-1.28,0.049-1.397,0.088c-0.118,0.049-0.176,0.125-0.186,0.222
	c-0.01,0.098,0.147,0.418,0.449,0.94l2.629,4.221l2.802-4.221c0.354-0.522,0.52-0.844,0.527-0.94c0-0.097-0.059-0.173-0.166-0.222
	c-0.117-0.039-0.625-0.068-1.299-0.088v-0.533c1.084,0.037,1.729,0.058,2.334,0.058c0.586,0,0.896-0.021,2.063-0.058v0.533
	c-0.703,0.02-0.957,0.049-1.133,0.088c-0.188,0.049-0.332,0.115-0.449,0.203c-0.146,0.115-0.381,0.377-0.693,0.814l-2.58,3.666
	c-0.496,0.775-0.78,1.251-0.84,1.426c-0.068,0.176-0.098,0.34-0.098,0.494V50.5c0,0.756,0.01,1.481,0.05,2.2
	c0.021,0.523,0.06,0.834,0.126,0.931c0.061,0.099,0.176,0.177,0.322,0.226c0.139,0.049,0.559,0.078,1.24,0.088v0.533
	C102.285,54.437,101.454,54.418,100.76,54.418L100.76,54.418z"/>
<path fill="#FFFFFF" d="M110.246,54.272c-0.801-0.281-1.475-0.709-2.031-1.263c-0.549-0.563-0.967-1.241-1.252-2.036
	c-0.291-0.796-0.438-1.591-0.438-2.367c0-0.883,0.146-1.697,0.422-2.435c0.283-0.748,0.742-1.416,1.387-2.019
	c0.646-0.593,1.377-1.038,2.199-1.339c0.811-0.3,1.748-0.445,2.793-0.445c0.967,0,1.848,0.127,2.639,0.377
	c0.791,0.264,1.445,0.604,1.953,1.029c0.508,0.428,0.898,0.893,1.191,1.396c0.227,0.377,0.41,0.813,0.537,1.328
	c0.137,0.516,0.193,1.067,0.193,1.648c0,1.872-0.662,3.425-1.99,4.676c-1.33,1.242-3,1.862-5.021,1.862
	C111.896,54.688,111.037,54.543,110.246,54.272L110.246,54.272L110.246,54.272z M110.49,43.658
	c-0.703,0.398-1.229,0.971-1.582,1.717c-0.361,0.748-0.537,1.592-0.537,2.543c0,0.523,0.061,1.058,0.166,1.609
	c0.117,0.543,0.254,1.02,0.43,1.406c0.273,0.67,0.646,1.232,1.096,1.679c0.459,0.456,0.967,0.796,1.521,1.009
	c0.559,0.203,1.186,0.313,1.857,0.313c0.947,0,1.768-0.215,2.461-0.65s1.213-1.047,1.553-1.843c0.354-0.785,0.52-1.707,0.52-2.745
	c0-0.883-0.125-1.697-0.371-2.445c-0.146-0.455-0.354-0.862-0.604-1.229c-0.254-0.369-0.547-0.699-0.898-0.972
	c-0.352-0.28-0.801-0.515-1.357-0.697c-0.557-0.186-1.152-0.282-1.797-0.282C112.004,43.066,111.193,43.272,110.49,43.658
	L110.49,43.658z"/>
<path fill="#FFFFFF" d="M35.981,78.096c-6.047-2.271-10.091-6.092-11.108-12.504c-0.596,0.291-1.231,0.563-1.895,0.813
	c-5.861-2.199-9.457-6.148-9.457-13.211V42.61h18.923v5.89h-2.179v-3.727H15.69v9.72c0,3.677,0.685,8.226,7.288,11.155
	c6.604-2.93,7.287-7.479,7.287-11.155v-2.765h-3.448v10.061c-0.597,0.61-1.3,1.202-2.149,1.756
	c-0.029-0.418-0.039-0.854-0.039-1.302V49.547h13.618v2.183h-5.803v1.466c0,5.354-2.071,8.915-5.617,11.282
	c0.126,4.297,1.621,9.524,9.154,12.871c7.922-3.521,9.173-9.13,9.173-13.541V51.729h-3.586v2.765c0,2.455,0.323,5.316,2.492,7.809
	v1.484c-2.97-2.355-4.67-5.73-4.67-10.592V42.61h18.923v10.584c0,7.062-3.595,11.011-9.457,13.211
	c-0.615-0.231-1.211-0.483-1.778-0.758C46.053,72.031,42.018,75.834,35.981,78.096L35.981,78.096L35.981,78.096z M41.568,49.547
	h5.765v12.697c0,0.902-0.05,1.756-0.137,2.57c0.508,0.293,1.055,0.574,1.661,0.834c6.604-2.93,7.288-7.479,7.288-11.155v-9.72
	H41.568V49.547L41.568,49.547z"/>
</svg>
