<?xml version="1.0" encoding="utf-8"?>
<!-- Generator: Adobe Illustrator 16.0.0, SVG Export Plug-In . SVG Version: 6.00 Build 0)  -->
<!DOCTYPE svg PUBLIC "-//W3C//DTD SVG 1.1//EN" "http://www.w3.org/Graphics/SVG/1.1/DTD/svg11.dtd">
<svg version="1.1" id="Capa_1" xmlns="http://www.w3.org/2000/svg" xmlns:xlink="http://www.w3.org/1999/xlink" x="0px" y="0px"
	 width="200px" height="200px" viewBox="0 0 200 200" enable-background="new 0 0 200 200" xml:space="preserve">
<path fill-rule="evenodd" clip-rule="evenodd" fill="#FFFFFF" d="M139.282,94.185c-0.566,0-1.143,0.019-1.719,0.048v-0.417
	c0.352-0.165,0.586-0.292,0.684-0.389l0.117-0.192c0.058-0.156,0.088-0.486,0.107-1.01c0.029-0.758,0.049-1.213,0.049-1.358v-4.521
	c0-0.756-0.02-1.503-0.049-2.23c-0.02-0.524-0.06-0.845-0.127-0.941c-0.068-0.097-0.176-0.174-0.323-0.223
	c-0.146-0.039-0.557-0.078-1.239-0.088V82.34c1.425,0.028,2.305,0.048,2.646,0.048c0.371,0,1.222-0.02,2.53-0.048v0.523
	c-0.703,0.01-1.123,0.049-1.279,0.088c-0.147,0.049-0.255,0.117-0.313,0.203c-0.067,0.116-0.106,0.389-0.127,0.815
	c-0.01,0.106-0.029,0.902-0.049,2.376v5.646c0,0.591,0.01,1.066,0.049,1.435c0.665,0.039,0.742,0.049,1.397,0.049
	c1.66,0,2.901-0.098,3.565-0.3c0.079-0.166,0.146-0.359,0.206-0.573l0.352-1.396h0.576c-0.127,0.834-0.255,1.813-0.381,2.93
	c-0.235,0.049-0.431,0.067-0.566,0.087c-0.304,0.01-0.782,0.01-1.407,0.01L139.282,94.185L139.282,94.185z"/>
<path fill-rule="evenodd" clip-rule="evenodd" fill="#FFFFFF" d="M150.156,94.185l-2.706,0.048v-0.523
	c0.683-0.01,1.104-0.049,1.25-0.098c0.155-0.049,0.254-0.117,0.313-0.194c0.068-0.116,0.117-0.378,0.137-0.805
	c0.01-0.126,0.02-0.922,0.048-2.396v-3.871c0-0.756-0.019-1.503-0.048-2.23c-0.02-0.524-0.059-0.845-0.128-0.941
	c-0.067-0.097-0.176-0.174-0.321-0.223c-0.146-0.039-0.567-0.078-1.25-0.088V82.34c1.113,0.028,1.982,0.048,2.588,0.048
	c0.576,0,1.437-0.02,2.569-0.048v0.523c-0.693,0.01-1.104,0.049-1.25,0.088c-0.157,0.049-0.254,0.117-0.313,0.203
	c-0.068,0.116-0.116,0.379-0.126,0.815c-0.01,0.106-0.029,0.902-0.06,2.376v3.871c0,0.766,0.021,1.513,0.03,2.23
	c0.02,0.523,0.059,0.845,0.126,0.941c0.069,0.097,0.176,0.174,0.323,0.223c0.156,0.049,0.576,0.088,1.27,0.098v0.523
	C151.366,94.204,150.547,94.185,150.156,94.185L150.156,94.185L150.156,94.185z M150.858,90.217v-3.871
	c0.03-1.474,0.05-2.27,0.06-2.376L150.858,90.217L150.858,90.217z"/>
<path fill-rule="evenodd" clip-rule="evenodd" fill="#FFFFFF" d="M166.04,94.534l-0.225-0.224l-0.137-0.125
	c-0.039-0.029-0.147-0.136-0.332-0.341c-0.488-0.533-0.85-0.931-1.074-1.202l-1.134-1.387l-6.242-7.169v6.498
	c0,0.555,0.019,1.203,0.059,1.96c0.02,0.466,0.059,0.757,0.117,0.864l0.185,0.164c0.196,0.078,0.598,0.127,1.212,0.137v0.523
	c-0.508-0.029-1.084-0.048-1.699-0.048c-0.685,0-1.417,0.019-2.218,0.048v-0.523c0.615-0.01,1.025-0.059,1.221-0.146l0.176-0.154
	c0.059-0.116,0.099-0.407,0.128-0.883c0.029-0.738,0.048-1.368,0.048-1.902v-6.818c0-0.184-0.01-0.311-0.039-0.359
	c-0.048-0.098-0.146-0.223-0.322-0.357c-0.097-0.088-0.224-0.146-0.361-0.176c-0.137-0.02-0.449-0.039-0.918-0.049V82.34
	c1.007,0.028,1.65,0.048,1.915,0.048c0.439,0,0.879-0.02,1.318-0.048c0.488,0.611,0.85,1.066,1.085,1.367l1.798,2.125l2.617,3.045
	c0.83,0.971,1.505,1.736,2.022,2.291c0.322,0.367,0.586,0.658,0.811,0.862V85.94c0-0.554-0.02-1.193-0.049-1.922
	c-0.029-0.465-0.067-0.757-0.117-0.863l-0.186-0.164c-0.195-0.078-0.605-0.117-1.211-0.127V82.34
	c0.693,0.028,1.396,0.048,2.109,0.048c0.665,0,1.279-0.02,1.827-0.048v0.523c-0.615,0.01-1.016,0.049-1.211,0.127l-0.176,0.175
	c-0.06,0.105-0.108,0.396-0.128,0.883c-0.028,0.728-0.048,1.366-0.048,1.901v4.024c0,0.815,0.02,2.339,0.048,4.569L166.04,94.534
	L166.04,94.534z"/>
<path fill-rule="evenodd" clip-rule="evenodd" fill="#FFFFFF" d="M172.644,94.185l-2.695,0.048v-0.523
	c0.684-0.01,1.095-0.049,1.25-0.098c0.146-0.049,0.254-0.117,0.313-0.194c0.068-0.116,0.108-0.378,0.128-0.805
	c0.009-0.126,0.028-0.922,0.048-2.396v-3.871c0-0.756-0.01-1.503-0.048-2.23c-0.02-0.524-0.06-0.845-0.128-0.941
	c-0.059-0.097-0.166-0.174-0.313-0.223c-0.155-0.039-0.566-0.078-1.25-0.088V82.34c1.114,0.028,1.973,0.048,2.579,0.048
	c0.586,0,1.446-0.02,2.569-0.048v0.523c-0.684,0.01-1.104,0.049-1.25,0.088c-0.147,0.049-0.255,0.117-0.304,0.203
	c-0.078,0.116-0.116,0.379-0.137,0.815c-0.01,0.106-0.02,0.902-0.049,2.376v3.871c0,0.766,0.01,1.513,0.029,2.23
	c0.01,0.523,0.059,0.845,0.127,0.941s0.176,0.174,0.322,0.223c0.147,0.049,0.566,0.088,1.261,0.098v0.523
	C173.855,94.204,173.046,94.185,172.644,94.185L172.644,94.185z"/>
<path fill-rule="evenodd" clip-rule="evenodd" fill="#FFFFFF" d="M180.821,94.136c-0.781-0.214-1.456-0.524-2.042-0.932
	c-0.586-0.397-1.064-0.853-1.436-1.349c-0.371-0.504-0.655-1.047-0.851-1.639c-0.195-0.582-0.283-1.232-0.283-1.931
	c0-1.774,0.654-3.239,1.953-4.403c1.311-1.165,3.097-1.746,5.364-1.746c0.528,0,1.025,0.029,1.484,0.088
	c0.449,0.058,1.006,0.163,1.661,0.328c0.654,0.165,1.056,0.262,1.201,0.291c-0.126,0.302-0.225,0.602-0.282,0.893
	c-0.099,0.475-0.157,1.029-0.196,1.649h-0.527l-0.01-0.979c-0.059-0.543-0.381-0.951-0.957-1.223
	c-0.587-0.262-1.436-0.397-2.55-0.397c-0.841,0.02-1.554,0.116-2.13,0.302c-0.586,0.192-1.104,0.494-1.543,0.911
	c-0.45,0.407-0.812,0.931-1.095,1.571c-0.283,0.631-0.431,1.426-0.431,2.396c0,1.678,0.538,3.036,1.632,4.055
	c1.085,1.028,2.521,1.532,4.309,1.532c0.801,0,1.544-0.106,2.237-0.31c0.469-0.146,0.938-0.368,1.397-0.67l0.146,0.175l-0.341,0.785
	c-0.685,0.32-1.358,0.564-2.013,0.709c-0.664,0.145-1.378,0.223-2.159,0.223C182.452,94.465,181.603,94.359,180.821,94.136
	L180.821,94.136z"/>
<path fill-rule="evenodd" clip-rule="evenodd" fill="#FFFFFF" d="M128.976,94.136c-0.781-0.214-1.455-0.524-2.041-0.932
	c-0.586-0.397-1.065-0.853-1.437-1.349c-0.371-0.504-0.655-1.047-0.851-1.639c-0.195-0.582-0.282-1.232-0.282-1.931
	c0-1.774,0.653-3.239,1.953-4.403c1.31-1.165,3.097-1.746,5.354-1.746c0.537,0,1.034,0.029,1.494,0.088
	c0.449,0.058,1.006,0.163,1.661,0.328c0.653,0.165,1.055,0.262,1.2,0.291c-0.126,0.302-0.224,0.602-0.282,0.893
	c-0.099,0.475-0.156,1.029-0.195,1.649h-0.528l-0.009-0.979c-0.059-0.543-0.382-0.951-0.957-1.223
	c-0.588-0.262-1.437-0.397-2.551-0.397c-0.84,0.02-1.554,0.116-2.13,0.302c-0.586,0.192-1.104,0.494-1.543,0.911
	c-0.45,0.407-0.812,0.931-1.094,1.571c-0.284,0.631-0.431,1.426-0.431,2.396c0,1.678,0.537,3.036,1.621,4.055
	c1.095,1.028,2.531,1.532,4.31,1.532c0.811,0,1.553-0.106,2.246-0.31c0.47-0.146,0.929-0.368,1.397-0.67l0.146,0.175l-0.341,0.785
	c-0.684,0.32-1.358,0.564-2.021,0.709c-0.655,0.145-1.369,0.223-2.15,0.223C130.607,94.465,129.757,94.359,128.976,94.136
	L128.976,94.136z"/>
<path fill-rule="evenodd" clip-rule="evenodd" fill="#FFFFFF" d="M72.48,94.407c-0.078-0.213-0.156-0.387-0.215-0.504L71.66,92.68
	l-4.21-8.264v5.83c0,0.756,0.019,1.493,0.068,2.211c0.01,0.524,0.06,0.835,0.127,0.932c0.059,0.105,0.176,0.174,0.323,0.223
	c0.146,0.049,0.576,0.088,1.27,0.098v0.533l-2.129-0.067l-2.218,0.067v-0.533c0.694-0.01,1.114-0.049,1.27-0.098
	c0.157-0.049,0.263-0.117,0.323-0.194c0.068-0.106,0.107-0.378,0.126-0.805c0.009-0.116,0.02-0.902,0.049-2.366v-3.842
	c0-0.747-0.019-1.483-0.049-2.213c-0.02-0.513-0.059-0.834-0.126-0.931c-0.069-0.096-0.176-0.164-0.323-0.212
	c-0.147-0.049-0.576-0.078-1.27-0.088v-0.563c0.615,0.047,1.212,0.067,1.769,0.067c0.577,0,1.114-0.021,1.642-0.067
	c0.517,1.125,0.986,2.095,1.416,2.93l3.352,6.498l3.019-5.955c0.821-1.621,1.368-2.774,1.65-3.473
	c0.617,0.047,1.143,0.067,1.574,0.067c0.391,0,1.025-0.021,1.904-0.067v0.563c-0.704,0.01-1.123,0.039-1.27,0.088
	c-0.156,0.048-0.253,0.116-0.312,0.202c-0.079,0.106-0.127,0.37-0.137,0.797c-0.01,0.104-0.02,0.901-0.039,2.356v3.842
	c0,0.756,0.01,1.493,0.039,2.211c0.019,0.524,0.058,0.835,0.126,0.932c0.069,0.105,0.176,0.174,0.323,0.223s0.576,0.088,1.27,0.098
	v0.533c-1.182-0.049-2.022-0.067-2.511-0.067c-0.391,0-1.259,0.019-2.598,0.067v-0.533c0.694-0.01,1.124-0.049,1.28-0.098
	c0.146-0.049,0.254-0.117,0.303-0.194c0.078-0.116,0.118-0.378,0.137-0.805c0-0.116,0.019-0.902,0.039-2.366v-6.112l-3.039,6.024
	c-0.478,0.932-0.849,1.688-1.124,2.26c-0.195,0.418-0.489,1.076-0.879,1.988H72.48L72.48,94.407z"/>
<path fill-rule="evenodd" clip-rule="evenodd" fill="#FFFFFF" d="M93.182,94.185l-2.843,0.058v-0.533
	c0.665-0.01,1.065-0.029,1.202-0.059c0.146-0.029,0.234-0.068,0.283-0.127l0.079-0.193c0-0.115-0.041-0.281-0.118-0.475
	l-1.094-2.551h-5.119l-0.948,2.143c-0.166,0.389-0.254,0.67-0.254,0.845l0.069,0.193c0.068,0.067,0.167,0.116,0.302,0.146
	c0.216,0.049,0.597,0.078,1.144,0.078v0.533c-0.997-0.039-1.74-0.058-2.238-0.058c-0.566,0-1.191,0.019-1.875,0.058v-0.533
	c0.459,0,0.752-0.02,0.87-0.049c0.118-0.039,0.225-0.098,0.323-0.185c0.097-0.078,0.234-0.3,0.419-0.669
	c0.098-0.204,0.479-0.99,1.143-2.348l2.208-4.705c0.245-0.514,0.762-1.668,1.554-3.462h0.557l3.78,8.38
	c0.616,1.358,1.017,2.203,1.221,2.553c0.108,0.202,0.234,0.328,0.362,0.387c0.137,0.059,0.429,0.098,0.899,0.098v0.533
	C94.188,94.204,93.542,94.185,93.182,94.185L93.182,94.185L93.182,94.185z M85.875,89.596h4.464l-2.208-5.016L85.875,89.596
	L85.875,89.596z"/>
<path fill-rule="evenodd" clip-rule="evenodd" fill="#FFFFFF" d="M99.365,94.185c-0.664,0-1.553,0.019-2.647,0.058v-0.533
	c0.684-0.01,1.104-0.039,1.25-0.088c0.155-0.049,0.253-0.117,0.302-0.194c0.079-0.116,0.127-0.378,0.137-0.805
	c0.01-0.116,0.029-0.902,0.058-2.356v-0.971c-0.126-0.252-0.244-0.476-0.361-0.669c-0.088-0.136-0.381-0.622-0.899-1.437
	l-2.247-3.151c-0.273-0.438-0.478-0.699-0.615-0.815c-0.108-0.087-0.255-0.154-0.431-0.203c-0.175-0.039-0.41-0.068-1.114-0.088
	v-0.533c1.163,0.038,1.505,0.058,2.091,0.058c0.605,0,2.159-0.02,3.253-0.058v0.533c-0.684,0.02-1.28,0.049-1.397,0.088
	c-0.118,0.049-0.176,0.126-0.186,0.222c-0.01,0.098,0.147,0.418,0.449,0.941l2.629,4.22l2.803-4.22
	c0.352-0.523,0.519-0.844,0.527-0.941c0-0.096-0.058-0.173-0.166-0.222c-0.117-0.039-0.625-0.068-1.299-0.088v-0.533
	c1.084,0.038,1.729,0.058,2.335,0.058c0.586,0,0.898-0.02,2.062-0.058v0.533c-0.704,0.02-0.957,0.049-1.133,0.088
	c-0.187,0.049-0.333,0.116-0.45,0.203c-0.146,0.116-0.381,0.378-0.693,0.815l-2.58,3.666c-0.497,0.776-0.781,1.251-0.84,1.426
	c-0.068,0.175-0.098,0.34-0.098,0.494v0.642c0,0.756,0.01,1.482,0.05,2.201c0.02,0.523,0.059,0.834,0.126,0.931
	c0.06,0.097,0.176,0.175,0.323,0.224c0.137,0.049,0.557,0.078,1.24,0.088v0.533C100.89,94.204,100.059,94.185,99.365,94.185
	L99.365,94.185z"/>
<path fill-rule="evenodd" clip-rule="evenodd" fill="#FFFFFF" d="M108.852,94.04c-0.801-0.281-1.476-0.709-2.032-1.262
	c-0.548-0.563-0.967-1.242-1.251-2.037c-0.292-0.795-0.439-1.591-0.439-2.367c0-0.883,0.147-1.697,0.421-2.434
	c0.283-0.748,0.742-1.417,1.387-2.019c0.645-0.593,1.377-1.038,2.198-1.339c0.811-0.3,1.749-0.445,2.794-0.445
	c0.967,0,1.847,0.126,2.638,0.377c0.791,0.263,1.445,0.603,1.954,1.029c0.508,0.427,0.898,0.892,1.191,1.396
	c0.226,0.378,0.41,0.814,0.537,1.328c0.137,0.516,0.195,1.068,0.195,1.649c0,1.872-0.664,3.425-1.992,4.676
	c-1.329,1.242-3,1.862-5.022,1.862C110.502,94.456,109.643,94.31,108.852,94.04L108.852,94.04L108.852,94.04z M109.095,83.426
	c-0.702,0.398-1.23,0.971-1.582,1.717c-0.361,0.748-0.537,1.592-0.537,2.543c0,0.523,0.059,1.057,0.166,1.609
	c0.117,0.543,0.254,1.019,0.43,1.406c0.274,0.67,0.646,1.232,1.094,1.679c0.46,0.456,0.968,0.796,1.524,1.009
	c0.557,0.203,1.183,0.311,1.856,0.311c0.948,0,1.768-0.214,2.462-0.65c0.693-0.437,1.212-1.047,1.553-1.843
	c0.352-0.785,0.518-1.707,0.518-2.745c0-0.883-0.126-1.697-0.371-2.445c-0.146-0.455-0.352-0.863-0.605-1.23
	c-0.253-0.369-0.547-0.699-0.898-0.971c-0.352-0.281-0.801-0.515-1.357-0.698c-0.557-0.185-1.153-0.282-1.798-0.282
	C110.61,82.834,109.799,83.04,109.095,83.426L109.095,83.426z"/>
<path fill-rule="evenodd" clip-rule="evenodd" fill="#FFFFFF" d="M34.586,117.863c-6.047-2.271-10.091-6.092-11.108-12.504
	c-0.596,0.291-1.231,0.563-1.895,0.814c-5.861-2.201-9.457-6.15-9.457-13.211V82.378h18.923v5.889H28.87v-3.726H14.295v9.72
	c0,3.677,0.685,8.225,7.288,11.155c6.604-2.93,7.287-7.478,7.287-11.155v-2.765h-3.448v10.06c-0.597,0.611-1.3,1.203-2.149,1.756
	c-0.029-0.418-0.039-0.854-0.039-1.301V89.315h13.618v2.182h-5.803v1.466c0,5.354-2.071,8.915-5.617,11.282
	c0.126,4.297,1.621,9.525,9.154,12.871c7.922-3.521,9.173-9.129,9.173-13.541V91.497h-3.586v2.765c0,2.455,0.323,5.316,2.492,7.809
	v1.484c-2.97-2.357-4.67-5.732-4.67-10.592V82.378h18.923v10.584c0,7.062-3.595,11.01-9.457,13.211
	c-0.615-0.232-1.211-0.484-1.778-0.758C44.658,111.799,40.623,115.602,34.586,117.863L34.586,117.863L34.586,117.863z
	 M40.173,89.315h5.765v12.697c0,0.902-0.05,1.756-0.137,2.57c0.508,0.293,1.055,0.574,1.661,0.834
	c6.604-2.93,7.288-7.478,7.288-11.155v-9.72H40.173V89.315L40.173,89.315z"/>
</svg>
