<?xml version="1.0" encoding="utf-8"?>
<!-- Generator: Adobe Illustrator 16.0.0, SVG Export Plug-In . SVG Version: 6.00 Build 0)  -->
<!DOCTYPE svg PUBLIC "-//W3C//DTD SVG 1.1//EN" "http://www.w3.org/Graphics/SVG/1.1/DTD/svg11.dtd">
<svg version="1.1" id="Capa_1" xmlns="http://www.w3.org/2000/svg" xmlns:xlink="http://www.w3.org/1999/xlink" x="0px" y="0px"
	 width="200px" height="100px" viewBox="0 0 200 100" enable-background="new 0 0 200 100" xml:space="preserve">
<g>
	<path fill="#FFFFFF" d="M18.594,46.48h-2.086V34.463c0-0.95,0.058-2.111,0.175-3.485h-0.05c-0.2,0.808-0.379,1.386-0.537,1.736
		L9.975,46.48H8.951L2.842,32.814c-0.175-0.4-0.354-1.012-0.537-1.836h-0.05c0.067,0.716,0.1,1.886,0.1,3.51V46.48H0.332V28.567
		h2.773l5.496,12.491c0.425,0.958,0.7,1.674,0.825,2.149H9.5c0.358-0.982,0.645-1.715,0.862-2.198l5.608-12.442h2.624V46.48z"/>
	<path fill="#FFFFFF" d="M33.309,40.597h-9.031c0.033,1.424,0.417,2.523,1.149,3.298c0.732,0.774,1.741,1.162,3.022,1.162
		c1.441,0,2.765-0.475,3.973-1.424v1.924c-1.125,0.817-2.611,1.224-4.46,1.224c-1.807,0-3.227-0.581-4.259-1.743
		c-1.032-1.161-1.549-2.795-1.549-4.902c0-1.99,0.565-3.612,1.692-4.865c1.129-1.253,2.53-1.88,4.204-1.88
		c1.674,0,2.969,0.542,3.885,1.624c0.916,1.083,1.374,2.586,1.374,4.509V40.597z M31.21,38.86c-0.008-1.182-0.294-2.103-0.855-2.76
		c-0.563-0.658-1.343-0.987-2.342-0.987c-0.966,0-1.786,0.346-2.461,1.037c-0.674,0.692-1.091,1.595-1.249,2.711H31.21z"/>
	<path fill="#FFFFFF" d="M47.324,46.48h-2.049v-2.173h-0.049c-0.95,1.649-2.416,2.473-4.397,2.473c-1.607,0-2.891-0.572-3.854-1.718
		c-0.96-1.144-1.442-2.704-1.442-4.677c0-2.115,0.533-3.81,1.599-5.084c1.066-1.274,2.486-1.911,4.26-1.911
		c1.757,0,3.035,0.692,3.835,2.074h0.049v-7.92h2.049V46.48z M45.275,40.697v-1.886c0-1.032-0.341-1.907-1.024-2.623
		s-1.549-1.075-2.598-1.075c-1.249,0-2.231,0.458-2.948,1.375c-0.716,0.916-1.074,2.182-1.074,3.797
		c0,1.474,0.343,2.638,1.031,3.491c0.685,0.854,1.608,1.28,2.766,1.28c1.141,0,2.066-0.413,2.78-1.236
		C44.919,42.995,45.275,41.955,45.275,40.697z"/>
	<path fill="#FFFFFF" d="M52.521,30.441c-0.367,0-0.679-0.125-0.937-0.375c-0.258-0.25-0.387-0.566-0.387-0.95
		c0-0.382,0.129-0.701,0.387-0.955s0.57-0.381,0.937-0.381c0.375,0,0.692,0.127,0.956,0.381c0.261,0.254,0.393,0.573,0.393,0.955
		c0,0.367-0.132,0.679-0.393,0.937C53.213,30.313,52.896,30.441,52.521,30.441z M53.52,46.48h-2.048V33.689h2.048V46.48z"/>
	<path fill="#FFFFFF" d="M66.823,46.48h-2.048v-1.999h-0.05c-0.892,1.532-2.204,2.298-3.935,2.298c-1.274,0-2.271-0.337-2.992-1.012
		c-0.721-0.674-1.081-1.569-1.081-2.686c0-2.39,1.407-3.781,4.222-4.172l3.835-0.538c0-2.173-0.879-3.26-2.636-3.26
		c-1.541,0-2.931,0.524-4.172,1.574v-2.099c1.257-0.799,2.706-1.199,4.347-1.199c3.006,0,4.509,1.591,4.509,4.771V46.48z
		 M64.775,40.01l-3.085,0.424c-0.95,0.133-1.667,0.369-2.149,0.706s-0.725,0.935-0.725,1.792c0,0.625,0.223,1.136,0.667,1.53
		c0.446,0.396,1.039,0.594,1.781,0.594c1.016,0,1.855-0.355,2.517-1.068c0.663-0.712,0.993-1.613,0.993-2.705V40.01z"/>
	<path fill="#FFFFFF" d="M81.813,28.567v1.799h-1.749v14.315h1.749v1.799h-5.596v-1.799h1.749V30.366h-1.749v-1.799H81.813z"/>
	<path fill="#FFFFFF" d="M95.117,46.48h-2.049v-7.295c0-2.715-0.991-4.072-2.973-4.072c-1.024,0-1.872,0.385-2.542,1.156
		s-1.006,1.743-1.006,2.917v7.295h-2.048V33.689h2.048v2.123h0.05c0.966-1.615,2.365-2.423,4.197-2.423
		c1.399,0,2.469,0.452,3.21,1.355c0.742,0.904,1.112,2.209,1.112,3.917V46.48z"/>
	<path fill="#FFFFFF" d="M109.032,33.689l-5.097,12.791h-2.012l-4.846-12.791h2.249l3.248,9.293
		c0.241,0.683,0.392,1.279,0.449,1.786h0.051c0.082-0.641,0.217-1.219,0.399-1.736l3.397-9.343H109.032z"/>
	<path fill="#FFFFFF" d="M121.36,40.597h-9.03c0.033,1.424,0.417,2.523,1.149,3.298s1.741,1.162,3.022,1.162
		c1.441,0,2.765-0.475,3.973-1.424v1.924c-1.124,0.817-2.611,1.224-4.46,1.224c-1.806,0-3.227-0.581-4.26-1.743
		c-1.032-1.161-1.549-2.795-1.549-4.902c0-1.99,0.565-3.612,1.692-4.865c1.129-1.253,2.53-1.88,4.204-1.88
		c1.673,0,2.969,0.542,3.885,1.624c0.916,1.083,1.373,2.586,1.373,4.509V40.597z M119.263,38.86
		c-0.008-1.182-0.294-2.103-0.854-2.76c-0.564-0.658-1.344-0.987-2.343-0.987c-0.968,0-1.787,0.346-2.462,1.037
		c-0.674,0.692-1.091,1.595-1.249,2.711H119.263z"/>
	<path fill="#FFFFFF" d="M123.685,46.018V43.82c1.116,0.824,2.344,1.236,3.685,1.236c1.8,0,2.698-0.6,2.698-1.799
		c0-0.341-0.077-0.631-0.229-0.868c-0.155-0.237-0.364-0.447-0.625-0.631c-0.264-0.183-0.571-0.347-0.925-0.493
		c-0.354-0.146-0.735-0.298-1.143-0.456c-0.567-0.225-1.064-0.451-1.493-0.681c-0.43-0.229-0.786-0.487-1.075-0.774
		c-0.286-0.287-0.503-0.614-0.649-0.98c-0.146-0.366-0.218-0.794-0.218-1.286c0-0.6,0.137-1.131,0.412-1.593
		c0.274-0.462,0.642-0.85,1.099-1.162c0.458-0.313,0.98-0.547,1.568-0.706c0.586-0.158,1.192-0.237,1.817-0.237
		c1.106,0,2.099,0.191,2.974,0.575v2.073c-0.942-0.616-2.024-0.924-3.248-0.924c-0.383,0-0.729,0.044-1.037,0.131
		s-0.572,0.21-0.794,0.368c-0.22,0.159-0.391,0.349-0.511,0.569c-0.122,0.221-0.183,0.464-0.183,0.731
		c0,0.333,0.061,0.611,0.183,0.836c0.12,0.225,0.297,0.425,0.53,0.6c0.232,0.175,0.517,0.333,0.849,0.475
		c0.334,0.142,0.713,0.296,1.138,0.462c0.565,0.217,1.073,0.439,1.523,0.668c0.45,0.23,0.833,0.487,1.148,0.774
		c0.317,0.288,0.562,0.619,0.731,0.994c0.171,0.375,0.257,0.82,0.257,1.336c0,0.633-0.141,1.183-0.42,1.649
		c-0.278,0.467-0.65,0.854-1.117,1.162s-1.004,0.537-1.611,0.687s-1.244,0.225-1.911,0.225
		C125.791,46.78,124.65,46.526,123.685,46.018z"/>
	<path fill="#FFFFFF" d="M141.247,46.355c-0.482,0.267-1.119,0.4-1.91,0.4c-2.24,0-3.36-1.249-3.36-3.747v-7.57h-2.198v-1.749h2.198
		v-3.123l2.048-0.662v3.785h3.223v1.749h-3.223v7.208c0,0.858,0.146,1.47,0.438,1.836c0.292,0.367,0.774,0.549,1.449,0.549
		c0.517,0,0.962-0.142,1.336-0.424V46.355z"/>
	<path fill="#FFFFFF" d="M162.146,46.48h-2.049v-7.345c0-1.415-0.217-2.439-0.655-3.072c-0.437-0.633-1.173-0.95-2.205-0.95
		c-0.874,0-1.618,0.399-2.229,1.2c-0.613,0.799-0.919,1.757-0.919,2.873v7.295h-2.049v-7.595c0-2.515-0.969-3.772-2.91-3.772
		c-0.899,0-1.641,0.377-2.224,1.13c-0.583,0.754-0.875,1.735-0.875,2.942v7.295h-2.048V33.689h2.048v2.024h0.051
		c0.907-1.549,2.231-2.324,3.972-2.324c0.875,0,1.637,0.243,2.286,0.73c0.65,0.488,1.095,1.126,1.337,1.917
		c0.95-1.765,2.365-2.648,4.247-2.648c2.814,0,4.222,1.736,4.222,5.209V46.48z"/>
	<path fill="#FFFFFF" d="M176.299,40.597h-9.032c0.034,1.424,0.418,2.523,1.15,3.298s1.74,1.162,3.022,1.162
		c1.441,0,2.765-0.475,3.973-1.424v1.924c-1.125,0.817-2.61,1.224-4.46,1.224c-1.807,0-3.227-0.581-4.26-1.743
		c-1.031-1.161-1.549-2.795-1.549-4.902c0-1.99,0.564-3.612,1.692-4.865c1.129-1.253,2.53-1.88,4.204-1.88s2.968,0.542,3.885,1.624
		c0.916,1.083,1.374,2.586,1.374,4.509V40.597z M174.2,38.86c-0.008-1.182-0.294-2.103-0.854-2.76
		c-0.564-0.658-1.344-0.987-2.343-0.987c-0.967,0-1.786,0.346-2.462,1.037c-0.675,0.692-1.091,1.595-1.249,2.711H174.2z"/>
	<path fill="#FFFFFF" d="M190.015,46.48h-2.049v-7.295c0-2.715-0.991-4.072-2.973-4.072c-1.024,0-1.872,0.385-2.542,1.156
		c-0.671,0.771-1.006,1.743-1.006,2.917v7.295h-2.049V33.689h2.049v2.123h0.05c0.967-1.615,2.365-2.423,4.196-2.423
		c1.399,0,2.47,0.452,3.211,1.355c0.741,0.904,1.112,2.209,1.112,3.917V46.48z"/>
	<path fill="#FFFFFF" d="M199.808,46.355c-0.482,0.267-1.12,0.4-1.911,0.4c-2.241,0-3.36-1.249-3.36-3.747v-7.57h-2.198v-1.749
		h2.198v-3.123l2.049-0.662v3.785h3.223v1.749h-3.223v7.208c0,0.858,0.146,1.47,0.438,1.836c0.292,0.367,0.774,0.549,1.449,0.549
		c0.516,0,0.961-0.142,1.336-0.424V46.355z"/>
	<path fill="#FFFFFF" d="M65.085,68.513c-1.317,0.546-2.691,0.818-4.123,0.818c-2.226,0-4.04-0.747-5.445-2.244
		c-1.405-1.494-2.106-3.445-2.106-5.853c0-2.644,0.761-4.76,2.282-6.354c1.522-1.593,3.456-2.39,5.803-2.39
		c1.249,0,2.445,0.2,3.588,0.602v1.192c-1.144-0.515-2.347-0.772-3.611-0.772c-2.044,0-3.705,0.693-4.985,2.078
		c-1.28,1.386-1.919,3.229-1.919,5.53c0,2.218,0.61,3.968,1.833,5.252c1.223,1.283,2.773,1.926,4.65,1.926
		c1.499,0,2.842-0.293,4.031-0.874V68.513z"/>
	<path fill="#FFFFFF" d="M73.148,69.331c-1.696,0-3.038-0.559-4.026-1.676c-0.988-1.116-1.481-2.569-1.481-4.354
		c0-1.931,0.517-3.44,1.55-4.531c1.033-1.09,2.394-1.635,4.083-1.635c1.657,0,2.967,0.541,3.929,1.624
		c0.962,1.081,1.442,2.58,1.442,4.497c0,1.808-0.491,3.272-1.471,4.395C76.193,68.771,74.851,69.331,73.148,69.331z M73.227,58.089
		c-1.371,0-2.462,0.46-3.276,1.386c-0.814,0.922-1.221,2.204-1.221,3.85c0,1.521,0.397,2.743,1.192,3.667
		c0.795,0.922,1.881,1.386,3.259,1.386c1.4,0,2.479-0.454,3.237-1.362c0.757-0.908,1.135-2.169,1.135-3.782
		c0-1.657-0.377-2.93-1.13-3.814C75.671,58.531,74.604,58.089,73.227,58.089z"/>
	<path fill="#FFFFFF" d="M96.109,69.047v-6.995c0-1.462-0.23-2.486-0.687-3.078c-0.458-0.59-1.184-0.885-2.175-0.885
		c-0.916,0-1.707,0.393-2.373,1.182c-0.667,0.784-0.999,1.773-0.999,2.963v6.813H88.83v-7.075c0-2.589-0.985-3.883-2.953-3.883
		c-0.946,0-1.734,0.396-2.362,1.186c-0.628,0.792-0.942,1.814-0.942,3.073v6.699h-1.045V57.419h1.045v1.931h0.045
		c0.81-1.477,1.995-2.215,3.554-2.215c0.849,0,1.573,0.242,2.175,0.731c0.602,0.488,1.008,1.131,1.221,1.926
		c0.363-0.84,0.884-1.494,1.561-1.96c0.678-0.465,1.414-0.697,2.209-0.697c2.543,0,3.815,1.573,3.815,4.725v7.188H96.109z"/>
	<path fill="#FFFFFF" d="M101.73,66.98h-0.045v7.415h-1.046V57.419h1.046v2.396h0.045c0.416-0.856,1.013-1.517,1.788-1.982
		c0.775-0.465,1.631-0.697,2.561-0.697c1.477,0,2.63,0.508,3.458,1.526c0.829,1.02,1.243,2.402,1.243,4.152
		c0,1.943-0.474,3.518-1.425,4.717c-0.95,1.201-2.205,1.801-3.764,1.801C103.851,69.331,102.563,68.548,101.73,66.98z
		 M101.686,62.654v1.465c0,1.165,0.366,2.166,1.101,3.002c0.734,0.838,1.7,1.256,2.896,1.256c1.188,0,2.153-0.509,2.896-1.528
		c0.742-1.018,1.112-2.354,1.112-4.014c0-1.453-0.34-2.609-1.021-3.463c-0.681-0.856-1.591-1.283-2.726-1.283
		c-1.355,0-2.403,0.454-3.146,1.362S101.686,61.427,101.686,62.654z"/>
	<path fill="#FFFFFF" d="M120.614,69.047V66.72h-0.045c-0.371,0.794-0.91,1.428-1.617,1.9c-0.709,0.475-1.493,0.711-2.356,0.711
		c-1.105,0-1.979-0.312-2.623-0.931c-0.644-0.623-0.966-1.407-0.966-2.352c0-2.03,1.343-3.257,4.031-3.68l3.576-0.533
		c0-2.498-0.938-3.747-2.815-3.747c-1.279,0-2.523,0.513-3.735,1.544v-1.261c0.431-0.34,1.016-0.633,1.754-0.873
		c0.738-0.244,1.434-0.364,2.084-0.364c1.196,0,2.121,0.37,2.776,1.113c0.655,0.739,0.982,1.818,0.982,3.236v7.563H120.614z
		 M117.413,63.256c-1.219,0.173-2.075,0.456-2.567,0.845c-0.49,0.39-0.737,1.024-0.737,1.903c0,0.688,0.229,1.256,0.688,1.703
		c0.457,0.445,1.096,0.67,1.913,0.67c1.12,0,2.052-0.415,2.793-1.244c0.742-0.83,1.112-1.899,1.112-3.207V62.79L117.413,63.256z"/>
	<path fill="#FFFFFF" d="M133.062,69.047v-6.769c0-2.793-1.008-4.189-3.021-4.189c-1.121,0-2.041,0.411-2.76,1.23
		c-0.719,0.822-1.079,1.838-1.079,3.05v6.678h-1.045V57.419h1.045v2.111h0.045c0.849-1.599,2.173-2.396,3.976-2.396
		c1.257,0,2.218,0.418,2.884,1.253c0.667,0.839,0.999,2.031,0.999,3.584v7.075H133.062z"/>
	<path fill="#FFFFFF" d="M140.442,71.421c-0.424,1.044-0.894,1.818-1.408,2.327c-0.515,0.507-1.177,0.761-1.987,0.761
		c-0.341,0-0.644-0.055-0.908-0.158v-1.045c0.272,0.104,0.591,0.159,0.953,0.159c0.932,0,1.666-0.645,2.204-1.931l1.079-2.577
		l-4.406-11.538h1.17l3.508,9.47c0.077,0.205,0.129,0.359,0.159,0.466c0.03,0.144,0.065,0.273,0.103,0.387h0.045l0.273-0.783
		l3.747-9.539h1.136L140.442,71.421z"/>
</g>
</svg>
