<?xml version="1.0" encoding="utf-8"?>
<!-- Generator: Adobe Illustrator 16.0.0, SVG Export Plug-In . SVG Version: 6.00 Build 0)  -->
<!DOCTYPE svg PUBLIC "-//W3C//DTD SVG 1.1//EN" "http://www.w3.org/Graphics/SVG/1.1/DTD/svg11.dtd">
<svg version="1.1" id="Capa_1" xmlns="http://www.w3.org/2000/svg" xmlns:xlink="http://www.w3.org/1999/xlink" x="0px" y="0px"
	 width="200px" height="102.875px" viewBox="0 0 200 102.875" enable-background="new 0 0 200 102.875" xml:space="preserve">
<g>
	<path fill="#FFFFFF" d="M87.784,44.466c5.437-13.425-4.735-17.064-11.374-17.06H54.454c1.831,1.259,1.529,2.919,1.172,3.944
		L42.834,72.235c-0.512,1.62-2.421,3.318-3.449,3.589l17.776-0.006c-0.977-0.179-2.378-1.565-1.874-3.469l4.645-14.787
		C59.933,57.563,81.312,60.448,87.784,44.466z M70.511,31.15c2.318,0,8.763,0.31,4.609,12.497
		c-4.36,12.794-14.015,10.162-14.015,10.162l7.114-22.659C68.22,31.15,70.427,31.15,70.511,31.15z"/>
	<path fill="#FFFFFF" d="M101.993,75.824l11.948-0.006c-3.824-1.228-9.482-4.843-11.73-7.418c1.82-1.994,4.072-4.489,4.482-9.575
		h-6.203c0,0,1.194,0.685,1.194,2.138c0,1.349-0.536,3.201-1.585,4.519c-1.813-2.692-3.756-5.766-4.435-10.269
		c2.426-1.214,5.849-2.521,8.569-4.9c2.573-2.259,3.17-4.386,3.211-5.776c0-0.062,0-0.114,0-0.175c0-1.449-0.568-2.815-1.613-3.856
		c-1.795-1.78-4.636-2.508-7.6-1.952c-2.393,0.45-4.43,1.721-5.449,2.671c-3.617,3.374-4.083,8.96-4.083,11.481
		c0,0.614,0.027,1.081,0.052,1.353c-0.206,0.082-0.577,0.223-0.577,0.223c-2.633,0.969-9.676,2.855-12.199,8.642
		c-0.322,0.73-0.777,2.316-0.777,4.167c0,1.59,0.335,3.363,1.365,4.98c1.775,2.772,4.794,4.528,9.61,4.445
		c5.246-0.089,10.402-3.668,11.329-4.321C98.419,73.036,100.765,75.241,101.993,75.824z M101.99,43.493
		c-0.621,3.9-5.662,7.827-6.896,8.363c-0.219-2.191-0.124-5.645,1.717-8.471c1.215-1.869,2.815-2.694,4.117-2.241
		C101.961,41.496,102.088,42.463,101.99,43.493z M94.97,69.533c-0.706,0.441-3.475,1.846-6.086,2.094
		c-2.407,0.224-6.416-0.711-6.408-5.541c0.004-4.126,4.494-7.143,6.917-8.191C90.401,61.895,92.608,66.404,94.97,69.533z"/>
	<path fill="#FFFFFF" d="M138.331,31.201c7.102-1.7,12.964,3.855,13.492,4.236l2.032-6.454c-2.814-0.842-23.201-7.748-37.6,8.709
		c-8.854,10.121-11.031,30.854,0.205,36.412c12.036,5.947,25.313-0.916,26.288-1.392l5.5-17.488c0.59-2.113,1.935-3.495,4.306-4.372
		h-19.098c2.789,1.162,2.585,3.263,2.358,4.121l-5.484,17.488c-0.731,0.147-16.077,3.976-7.487-22.884
		C124.697,43.813,129.875,33.235,138.331,31.201z"/>
</g>
</svg>
