<?xml version="1.0" encoding="utf-8"?>
<!-- Generator: Adobe Illustrator 16.0.0, SVG Export Plug-In . SVG Version: 6.00 Build 0)  -->
<!DOCTYPE svg PUBLIC "-//W3C//DTD SVG 1.1//EN" "http://www.w3.org/Graphics/SVG/1.1/DTD/svg11.dtd">
<svg version="1.1" id="Capa_1" xmlns="http://www.w3.org/2000/svg" xmlns:xlink="http://www.w3.org/1999/xlink" x="0px" y="0px"
	 width="200px" height="200px" viewBox="0 0 200 200" enable-background="new 0 0 200 200" xml:space="preserve">
<g>
	<path fill-rule="evenodd" clip-rule="evenodd" fill="#FFFFFF" d="M84.417,89.674c9.046-22.339-7.88-28.395-18.926-28.387H28.958
		c3.047,2.095,2.544,4.857,1.95,6.563L9.624,135.881c-0.853,2.695-4.029,5.52-5.739,5.97l29.578-0.01
		c-1.624-0.297-3.957-2.604-3.118-5.77l7.73-24.604C38.075,111.467,73.649,116.267,84.417,89.674z M55.676,67.518
		c3.857,0,14.582,0.514,7.669,20.793c-7.254,21.289-23.319,16.907-23.319,16.907l11.837-37.7
		C51.864,67.518,55.537,67.518,55.676,67.518z"/>
	<path fill-rule="evenodd" clip-rule="evenodd" fill="#FFFFFF" d="M108.06,141.851l19.882-0.01
		c-6.364-2.042-15.78-8.057-19.52-12.344c3.029-3.315,6.777-7.468,7.46-15.93H105.56c0,0,1.987,1.137,1.987,3.555
		c0,2.245-0.892,5.326-2.636,7.519c-3.019-4.479-6.251-9.592-7.38-17.085c4.038-2.021,9.733-4.194,14.259-8.153
		c4.281-3.761,5.274-7.299,5.343-9.611c0-0.102,0-0.191,0-0.293c0-2.41-0.946-4.685-2.685-6.416
		c-2.987-2.961-7.713-4.172-12.646-3.247c-3.98,0.749-7.37,2.863-9.064,4.444c-6.018,5.615-6.793,14.91-6.793,19.104
		c0,1.022,0.045,1.799,0.086,2.251c-0.342,0.137-0.96,0.371-0.96,0.371c-4.381,1.612-16.1,4.751-20.297,14.38
		c-0.536,1.213-1.293,3.852-1.293,6.933c0,2.643,0.558,5.594,2.271,8.287c2.954,4.612,7.978,7.534,15.99,7.396
		c8.729-0.146,17.31-6.104,18.851-7.19C102.113,137.211,106.016,140.881,108.06,141.851z M108.056,88.055
		c-1.034,6.488-9.421,13.022-11.475,13.914c-0.364-3.646-0.206-9.392,2.857-14.094c2.022-3.11,4.684-4.483,6.85-3.729
		C108.009,84.731,108.218,86.341,108.056,88.055z M96.375,131.385c-1.174,0.733-5.782,3.07-10.128,3.483
		c-4.006,0.371-10.675-1.182-10.662-9.221c0.008-6.865,7.478-11.884,11.509-13.629C88.772,118.675,92.445,126.178,96.375,131.385z"
		/>
	<path fill-rule="evenodd" clip-rule="evenodd" fill="#FFFFFF" d="M168.523,67.602c11.817-2.83,21.572,6.414,22.45,7.049
		l3.382-10.74c-4.681-1.402-38.603-12.892-62.564,14.492c-14.732,16.84-18.351,51.337,0.344,60.587
		c20.027,9.896,42.117-1.523,43.741-2.316l9.151-29.1c0.982-3.515,3.22-5.812,7.165-7.274h-31.778
		c4.64,1.935,4.301,5.43,3.924,6.857l-9.125,29.101c-1.218,0.244-26.753,6.613-12.459-38.078
		C145.839,88.587,154.454,70.987,168.523,67.602z"/>
</g>
</svg>
