<?xml version="1.0" encoding="utf-8"?>
<!-- Generator: Adobe Illustrator 16.0.0, SVG Export Plug-In . SVG Version: 6.00 Build 0)  -->
<!DOCTYPE svg PUBLIC "-//W3C//DTD SVG 1.1//EN" "http://www.w3.org/Graphics/SVG/1.1/DTD/svg11.dtd">
<svg version="1.1" id="Capa_1" xmlns="http://www.w3.org/2000/svg" xmlns:xlink="http://www.w3.org/1999/xlink" x="0px" y="0px"
	 width="200px" height="100px" viewBox="0 1.438 200 100" enable-background="new 0 1.438 200 100" xml:space="preserve">
<g>
	<path fill="#FFFFFF" d="M90.44,46c5.033-12.429-4.384-15.798-10.53-15.794H59.583c1.695,1.166,1.415,2.703,1.085,3.651
		L48.824,71.709c-0.474,1.501-2.241,3.072-3.193,3.323l16.458-0.005c-0.904-0.166-2.201-1.449-1.735-3.212l4.3-13.689
		C64.655,58.126,84.448,60.798,90.44,46z M74.448,33.673c2.146,0,8.113,0.287,4.267,11.57C74.678,57.088,65.74,54.65,65.74,54.65
		l6.586-20.978C72.327,33.673,74.37,33.673,74.448,33.673z"/>
	<path fill="#FFFFFF" d="M103.595,75.032l11.062-0.005c-3.54-1.138-8.779-4.484-10.86-6.868c1.686-1.846,3.771-4.156,4.15-8.864
		h-5.743c0,0,1.104,0.634,1.104,1.979c0,1.25-0.495,2.964-1.466,4.185c-1.68-2.492-3.479-5.339-4.107-9.508
		c2.246-1.124,5.416-2.334,7.933-4.536c2.383-2.091,2.935-4.061,2.973-5.347c0-0.058,0-0.106,0-0.163
		c0-1.341-0.525-2.606-1.493-3.57c-1.661-1.647-4.292-2.322-7.036-1.807c-2.215,0.416-4.102,1.593-5.044,2.473
		c-3.349,3.124-3.78,8.294-3.78,10.629c0,0.568,0.024,1.001,0.048,1.252c-0.191,0.076-0.535,0.207-0.535,0.207
		c-2.438,0.896-8.958,2.643-11.293,8c-0.298,0.677-0.719,2.145-0.719,3.858c0,1.473,0.31,3.113,1.263,4.61
		c1.644,2.566,4.438,4.192,8.897,4.115c4.857-0.082,9.631-3.396,10.489-4C100.285,72.451,102.458,74.493,103.595,75.032z
		 M103.592,45.1c-0.575,3.611-5.242,7.246-6.385,7.743c-0.203-2.029-0.114-5.227,1.59-7.843c1.124-1.73,2.606-2.494,3.812-2.075
		C103.564,43.251,103.683,44.146,103.592,45.1z M97.093,69.208c-0.654,0.409-3.217,1.709-5.635,1.938
		c-2.228,0.208-5.94-0.658-5.932-5.13c0.003-3.819,4.161-6.612,6.404-7.583C92.862,62.137,94.906,66.312,97.093,69.208z"/>
	<path fill="#FFFFFF" d="M137.236,33.72c6.576-1.574,12.002,3.569,12.491,3.921l1.882-5.975c-2.605-0.779-21.48-7.173-34.812,8.063
		c-8.197,9.37-10.212,28.564,0.19,33.71c11.143,5.506,23.436-0.848,24.338-1.288l5.092-16.19c0.546-1.956,1.792-3.236,3.987-4.048
		h-17.682c2.582,1.075,2.393,3.021,2.183,3.815l-5.077,16.19c-0.676,0.136-14.885,3.682-6.932-21.186
		C124.614,45.396,129.408,35.603,137.236,33.72z"/>
</g>
</svg>
