<?xml version="1.0" encoding="utf-8"?>
<!-- Generator: Adobe Illustrator 16.0.0, SVG Export Plug-In . SVG Version: 6.00 Build 0)  -->
<!DOCTYPE svg PUBLIC "-//W3C//DTD SVG 1.1//EN" "http://www.w3.org/Graphics/SVG/1.1/DTD/svg11.dtd">
<svg version="1.1" id="Capa_1" xmlns="http://www.w3.org/2000/svg" xmlns:xlink="http://www.w3.org/1999/xlink" x="0px" y="0px"
	 width="200px" height="100.167px" viewBox="0 0 200 100.167" enable-background="new 0 0 200 100.167" xml:space="preserve">
<g>
	<g>
		<g>
			<path fill="#FFFFFF" d="M58.681,59.135h-3.217l-4.515-6.359h-8.42v6.359h-2.766V42.453h13.156c1.751,0,3.125,0.472,4.125,1.417
				c0.998,0.944,1.498,2.223,1.498,3.836c0,1.413-0.407,2.55-1.222,3.41c-0.752,0.798-1.79,1.305-3.111,1.521L58.681,59.135z
				 M52.506,50.287c2.135,0,3.203-0.86,3.203-2.581c0-1.844-1.153-2.765-3.457-2.765h-9.723v5.346H52.506z"/>
			<path fill="#FFFFFF" d="M80.454,59.135H62.99V42.453h16.82v2.488H65.754v4.287h9.77v2.487h-9.77v4.932h14.7V59.135z"/>
			<path fill="#FFFFFF" d="M100.27,59.135H84.624V42.453h2.765v14.193h12.879v2.488H100.27z"/>
			<path fill="#FFFFFF" d="M122.205,59.135h-3.024l-1.923-3.732h-11.236l-1.923,3.732h-3.023l8.826-16.682h3.48L122.205,59.135z
				 M115.914,52.914l-4.248-8.083l-4.303,8.083H115.914z"/>
			<path fill="#FFFFFF" d="M141.721,44.942h-7.975v14.192h-2.764V44.942h-7.973v-2.489h18.711V44.942z"/>
			<path fill="#FFFFFF" d="M162.435,59.135h-17.467V42.453h16.82v2.488h-14.055v4.287h9.77v2.487h-9.77v4.932h14.702L162.435,59.135
				L162.435,59.135z"/>
			<path fill="#FFFFFF" d="M177.156,42.453c2.903,0,5.204,0.771,6.902,2.315c1.696,1.543,2.545,3.614,2.545,6.209
				c0,2.379-0.897,4.364-2.695,5.944c-1.676,1.475-3.749,2.212-6.223,2.212h-11.082V42.453H177.156z M177.918,56.646
				c1.66,0,3.021-0.535,4.09-1.607c1.065-1.072,1.6-2.447,1.6-4.129c0-1.789-0.571-3.23-1.715-4.325
				c-1.145-1.095-2.646-1.642-4.506-1.642h-8.018v11.704H177.918L177.918,56.646z"/>
		</g>
	</g>
	<g>
		<polygon fill="#FFFFFF" points="22.994,57.468 22.994,50.863 28.846,50.863 30.186,50.863 31.265,50.863 31.265,42.199 
			14.395,42.199 14.395,59.135 22.994,59.135 22.994,58.153 		"/>
		<rect x="23.713" y="51.549" fill="#FFFFFF" width="7.553" height="7.585"/>
	</g>
</g>
</svg>
