<?xml version="1.0" encoding="utf-8"?>
<!-- Generator: Adobe Illustrator 16.0.0, SVG Export Plug-In . SVG Version: 6.00 Build 0)  -->
<!DOCTYPE svg PUBLIC "-//W3C//DTD SVG 1.1//EN" "http://www.w3.org/Graphics/SVG/1.1/DTD/svg11.dtd">
<svg width="200" height="100" xmlns="http://www.w3.org/2000/svg">
 <!-- Created with SVG-edit - http://svg-edit.googlecode.com/ -->
 <defs>
  <linearGradient id="svg_1">
   <stop offset="0" stop-color="#FF0000"/>
   <stop offset="1" stop-color="#00ffff"/>
  </linearGradient>
 </defs>
 <g>
  <title>Layer 1</title>
  <g id="svg_83">
   <g transform="matrix(0.762586 0 0 0.762586 -297.135 -196.551)" id="svg_61">
    <path id="svg_62" d="m446.00217,318.24631l39.76099,0c0,0 9.34003,6.565 6.93597,16.646c0,0 -1.84998,12.48199 -18.86395,14.23999l-39.34903,0l5.505,-19.88101l16.55203,0.09003c0.00098,-0.00101 -7.85901,-4.89902 -10.54102,-11.095z" fill="#FFFFFF"/>
    <path id="svg_63" d="m499.44919,318.24631l53.63394,0c0,0 -0.74103,4.62399 -9.52502,8.41498l5.64099,17.66202l1.479,4.80899l-22.65399,0l-6.28699,-21.453l-6.104,21.453l-24.59799,0l8.41406,-30.88599z" fill="#FFFFFF"/>
    <path id="svg_64" d="m556.50415,318.24631l53.63196,0c0,0 -2.495,7.48898 -12.11298,10.07898c0,0 -3.97601,2.035 -18.86401,1.664l-1.75702,-5.85001l-7.02795,24.992l-22.37701,0l8.50702,-30.88498z" fill="#FFFFFF"/>
    <g id="svg_65">
     <polygon id="svg_66" points="501.854 293.464 478.552 293.464 499.496 301.956" fill="#FFFFFF"/>
     <path id="svg_67" d="m468.38113,293.46429c0,0 -12.39197,-0.647 -19.23395,7.582c0,0 -6.56604,7.21399 -3.79205,13.41l50.67401,0l2.48303,-8.94901l-30.13104,-12.043z" fill="#FFFFFF"/>
    </g>
    <g id="svg_68">
     <path id="svg_69" d="m546.29712,295.8533c-1.953,-1.04501 -4.815,-2.13501 -8.56396,-2.401l-5.45605,16.28699l14.02002,-13.88599z" fill="#FFFFFF"/>
     <polygon id="svg_70" points="503.443 303.556 522.568 311.311 505.792 294.95 505.792 294.949" fill="#FFFFFF"/>
     <polygon id="svg_71" points="534.588 293.451 524.232 293.451 529.175 308.999" fill="#FFFFFF"/>
     <path id="svg_72" d="m554.0481,303.9953c-0.88495,-2.06702 -2.33698,-4.164 -4.66394,-6l-13.50104,13.41l18.16498,-7.41z" fill="#FFFFFF"/>
     <path id="svg_73" d="m538.00916,314.4563l16.82996,0c0,0 0.88501,-3.061 0.24103,-6.90601l-17.07098,6.90601z" fill="#FFFFFF"/>
     <polygon id="svg_74" points="520.256 293.451 509.807 293.451 525.619 309.276" fill="#FFFFFF"/>
     <polygon id="svg_75" points="500.466 314.456 520.902 314.456 502.477 307.09" fill="#FFFFFF"/>
    </g>
    <g id="svg_76">
     <polygon id="svg_77" points="579.899 293.451 563.439 293.451 561.302 301.037" fill="#FFFFFF"/>
     <path id="svg_78" d="m601.26013,295.6843c0,0 -0.59802,-1.798 -11.35901,-2.22l-29.87,12.08301l-2.51001,8.909l53.81702,0c0,0 3.60596,-11.56 -10.078,-18.772z" fill="#FFFFFF"/>
    </g>
    <g id="svg_79">
     <g id="svg_80">
      <g id="svg_81">
       <path id="svg_82" d="m617.20612,298.15131l0,-2.022l1.354,0c0.68402,0 1.41498,0.14999 1.41498,0.95599c0,1.00998 -0.74695,1.06601 -1.586,1.06601l-1.18298,0m0,0.84299l1.14703,0l1.71997,2.81702l1.104,0l-1.86096,-2.86502c0.96698,-0.121 1.69495,-0.625 1.69495,-1.802c0,-1.289 -0.76495,-1.85098 -2.30402,-1.85098l-2.48499,0l0,6.51801l0.98303,0l0,-2.81702l0.00098,0zm1.20404,5.19699c3.073,0 5.69897,-2.37997 5.69897,-5.64697c0,-3.25 -2.62598,-5.63501 -5.69897,-5.63501c-3.12903,0 -5.75305,2.38501 -5.75305,5.63501c0,3.26797 2.62402,5.64697 5.75305,5.64697zm-4.62805,-5.64697c0,-2.68802 2.039,-4.69403 4.62805,-4.69403c2.55701,0 4.57397,2.00601 4.57397,4.69403c0,2.71399 -2.01801,4.71298 -4.57397,4.71298c-2.58905,0 -4.62805,-1.99899 -4.62805,-4.71298z" fill="#FFFFFF"/>
      </g>
     </g>
    </g>
   </g>
  </g>
 </g>
</svg>