<?xml version="1.0" encoding="utf-8"?>
<!-- Generator: Adobe Illustrator 16.0.0, SVG Export Plug-In . SVG Version: 6.00 Build 0)  -->
<!DOCTYPE svg PUBLIC "-//W3C//DTD SVG 1.1//EN" "http://www.w3.org/Graphics/SVG/1.1/DTD/svg11.dtd">
<svg version="1.1" id="Capa_1" xmlns="http://www.w3.org/2000/svg" xmlns:xlink="http://www.w3.org/1999/xlink" x="0px" y="0px"
	 width="200px" height="100px" viewBox="0 0 200 100" enable-background="new 0 0 200 100" xml:space="preserve">
<g>
	<title>Layer 1</title>
	<g id="svg_83">
		<g id="svg_61" transform="matrix(0.762586 0 0 0.762586 -297.135 -196.551)">
			<path id="svg_62" fill="#FFFFFF" d="M441.215,320.869h39.761c0,0,9.34,6.565,6.936,16.646c0,0-1.85,12.482-18.864,14.24h-39.349
				l5.505-19.881l16.552,0.09C451.756,331.963,443.897,327.065,441.215,320.869z"/>
			<path id="svg_63" fill="#FFFFFF" d="M494.661,320.869h53.635c0,0-0.743,4.625-9.525,8.415l5.64,17.662l1.48,4.809h-22.654
				l-6.288-21.454l-6.105,21.454h-24.598L494.661,320.869z"/>
			<path id="svg_64" fill="#FFFFFF" d="M551.716,320.869h53.634c0,0-2.495,7.488-12.114,10.079c0,0-3.975,2.035-18.863,1.664
				l-1.757-5.85l-7.028,24.992H543.21L551.716,320.869z"/>
			<g id="svg_65">
				<polygon id="svg_66" fill="#FFFFFF" points="497.066,296.087 473.765,296.087 494.708,304.578 				"/>
				<path id="svg_67" fill="#FFFFFF" d="M463.594,296.087c0,0-12.392-0.647-19.234,7.582c0,0-6.566,7.214-3.792,13.41h50.674
					l2.483-8.949L463.594,296.087z"/>
			</g>
			<g id="svg_68">
				<path id="svg_69" fill="#FFFFFF" d="M541.509,298.476c-1.952-1.045-4.815-2.135-8.565-2.401l-5.455,16.287L541.509,298.476z"/>
				<polygon id="svg_70" fill="#FFFFFF" points="498.656,306.179 517.78,313.934 501.004,297.572 501.004,297.572 				"/>
				<polygon id="svg_71" fill="#FFFFFF" points="529.8,296.073 519.445,296.073 524.388,311.622 				"/>
				<path id="svg_72" fill="#FFFFFF" d="M549.262,306.618c-0.886-2.067-2.338-4.164-4.664-6l-13.503,13.41L549.262,306.618z"/>
				<path id="svg_73" fill="#FFFFFF" d="M533.221,317.079h16.83c0,0,0.886-3.061,0.241-6.906L533.221,317.079z"/>
				<polygon id="svg_74" fill="#FFFFFF" points="515.469,296.073 505.02,296.073 520.833,311.898 				"/>
				<polygon id="svg_75" fill="#FFFFFF" points="495.678,317.078 516.115,317.078 497.689,309.712 				"/>
			</g>
			<g id="svg_76">
				<polygon id="svg_77" fill="#FFFFFF" points="575.112,296.073 558.651,296.073 556.515,303.66 				"/>
				<path id="svg_78" fill="#FFFFFF" d="M596.472,298.307c0,0-0.597-1.798-11.359-2.22l-29.869,12.083l-2.51,8.909h53.816
					C606.551,317.079,610.157,305.519,596.472,298.307z"/>
			</g>
			<g id="svg_79">
				<g id="svg_80">
					<g id="svg_81">
						<path id="svg_82" fill="#FFFFFF" d="M612.418,300.774v-2.022h1.355c0.684,0,1.414,0.15,1.414,0.956
							c0,1.01-0.745,1.066-1.585,1.066H612.418 M612.418,301.617h1.147l1.721,2.817h1.104l-1.862-2.865
							c0.968-0.121,1.696-0.625,1.696-1.802c0-1.289-0.766-1.85-2.305-1.85h-2.484v6.518h0.984V301.617L612.418,301.617z
							 M613.622,306.814c3.073,0,5.699-2.38,5.699-5.647c0-3.25-2.625-5.635-5.699-5.635c-3.127,0-5.752,2.385-5.752,5.635
							C607.87,304.435,610.495,306.814,613.622,306.814z M608.994,301.167c0-2.688,2.039-4.694,4.628-4.694
							c2.559,0,4.574,2.006,4.574,4.694c0,2.714-2.018,4.713-4.574,4.713C611.033,305.88,608.994,303.881,608.994,301.167z"/>
					</g>
				</g>
			</g>
		</g>
	</g>
</g>
</svg>
