<?xml version="1.0" encoding="utf-8"?>
<!-- Generator: Adobe Illustrator 16.0.0, SVG Export Plug-In . SVG Version: 6.00 Build 0)  -->
<!DOCTYPE svg PUBLIC "-//W3C//DTD SVG 1.1//EN" "http://www.w3.org/Graphics/SVG/1.1/DTD/svg11.dtd">
<svg version="1.1" id="Capa_1" xmlns="http://www.w3.org/2000/svg" xmlns:xlink="http://www.w3.org/1999/xlink" x="0px" y="0px"
	 width="200px" height="102.5px" viewBox="0 0 200 102.5" enable-background="new 0 0 200 102.5" xml:space="preserve">
<g>
	<path fill="#FFFFFF" d="M131.126,50.927c0.015,5.729-3.166,8.804-9.147,8.816c-5.865,0.014-9.185-3.125-9.195-8.716l-0.025-10.156
		l6.596-0.016l0.022,9.828c0.007,2.73,0.763,3.924,2.54,3.918c1.771-0.004,2.629-1.091,2.621-4.205l-0.021-9.553l6.59-0.017
		L131.126,50.927"/>
	<polygon fill="#FFFFFF" points="36.532,45.757 36.565,59.568 29.903,59.584 29.871,45.771 24.288,45.787 24.276,41.083 
		42.097,41.041 42.109,45.744 	"/>
	<path fill="#FFFFFF" d="M53.333,45.232l-1.621,6.353l3.325-0.008L53.333,45.232z M57.657,59.52l-1.125-3.388l-6.264,0.015
		L49.1,59.54l-6.641,0.017l6.697-18.531l8.434-0.02l6.706,18.499L57.657,59.52z"/>
	<path fill="#FFFFFF" d="M152.523,57.85l-2.01-4.793c-1.178,0.893-2.359,1.691-4.301,1.695c-2.615,0.008-4.363-2.136-4.372-4.766
		c-0.007-2.652,1.521-4.891,4.244-4.896c1.722-0.005,3.215,0.85,4.418,1.803l1.959-4.701c-2.198-1.103-4.407-1.773-7.446-1.769
		c-5.593,0.015-9.842,3.857-9.826,9.527c0.015,5.981,4.164,9.75,10.066,9.735C148.503,59.678,150.798,58.917,152.523,57.85"/>
	<polygon fill="#FFFFFF" points="167.516,59.256 163.316,52.523 163.334,59.266 156.869,59.28 156.824,40.768 163.29,40.751 
		163.307,47.536 167.201,40.743 174.434,40.725 168.382,49.869 175.262,59.236 	"/>
	<path fill="#FFFFFF" d="M13.192,60c4.196-0.01,8.551-1.511,8.54-6.252c-0.011-4.264-3.646-5.422-6.486-6.028
		c-2.132-0.458-3.161-0.67-3.163-1.526c-0.002-1.127,1.441-1.224,2.208-1.225c1.92-0.006,3.717,0.776,5.251,1.709l1.717-4.221
		c-2.26-0.964-4.995-1.729-7.561-1.723c-4.356,0.011-7.752,2.129-7.742,6.356c0.008,3.472,2.643,4.8,5.552,5.509
		c2.007,0.489,3.293,0.643,3.295,1.633c0.002,0.996-0.983,1.298-1.935,1.301c-2.125,0.005-4.13-0.908-5.395-1.984l-2.074,4.096
		C7.659,59.098,10.412,60.008,13.192,60"/>
	<path fill="#FFFFFF" d="M185.063,59.589c4.201-0.009,8.547-1.51,8.535-6.251c-0.01-4.264-3.649-5.422-6.479-6.029
		c-2.139-0.457-3.157-0.668-3.16-1.525c-0.003-1.128,1.438-1.223,2.204-1.225c1.92-0.006,3.715,0.776,5.255,1.709l1.725-4.222
		c-2.27-0.963-5.01-1.728-7.57-1.722c-4.35,0.011-7.752,2.129-7.741,6.357c0.008,3.469,2.646,4.799,5.544,5.508
		c2.021,0.488,3.299,0.644,3.303,1.634c0.004,0.995-0.98,1.297-1.939,1.3c-2.119,0.005-4.137-0.909-5.383-1.984l-2.078,4.096
		C179.54,58.686,182.289,59.598,185.063,59.589"/>
	<path fill="#FFFFFF" d="M81.848,52.55c2.253-0.839,3.495-3.123,3.49-5.259c-0.01-4.361-3.011-6.346-7.257-6.334L68.08,40.98
		l0.044,18.51l6.427-0.018l-0.013-5.479l1.618-0.007l3.35,5.478l6.925-0.019L81.848,52.55 M78.831,47.338
		c0.002,1.211-0.769,1.926-2.025,1.93l-2.279,0.006l-0.01-3.875l2.296-0.006c1.224-0.004,2.014,0.619,2.017,1.885L78.831,47.338z"/>
	<path fill="#FFFFFF" d="M104.327,49.957c2.411-0.523,3.59-1.885,3.585-4.137c-0.008-3.158-2.371-4.932-6.528-4.922l-10.562,0.025
		l0.044,18.523l10.147-0.025c4.889-0.012,7.322-1.744,7.313-5.24C108.322,51.771,106.791,50.15,104.327,49.957 M97.183,44.922
		l2.326-0.006c1.229-0.002,2.028,0.523,2.03,1.616v0.05c0.003,1.025-0.771,1.635-2.043,1.639l-2.305,0.006L97.183,44.922z
		 M101.654,53.68c0.003,1.094-0.793,1.729-2.094,1.732l-2.353,0.005l-0.008-3.479l2.382-0.004c1.25-0.004,2.071,0.557,2.073,1.693
		V53.68z"/>
</g>
</svg>
