<?xml version="1.0" encoding="utf-8"?>
<!-- Generator: Adobe Illustrator 16.0.0, SVG Export Plug-In . SVG Version: 6.00 Build 0)  -->
<!DOCTYPE svg PUBLIC "-//W3C//DTD SVG 1.1//EN" "http://www.w3.org/Graphics/SVG/1.1/DTD/svg11.dtd">
<svg version="1.1" id="Capa_1" xmlns="http://www.w3.org/2000/svg" xmlns:xlink="http://www.w3.org/1999/xlink" x="0px" y="0px"
	 width="200px" height="200px" viewBox="0 0 200 200" enable-background="new 0 0 200 200" xml:space="preserve">
<g>
	<path fill="#FFFFFF" d="M131.626,95.927c0.015,5.729-3.166,8.803-9.148,8.816c-5.865,0.014-9.184-3.125-9.196-8.716l-0.025-10.156
		l6.595-0.016l0.023,9.829c0.007,2.73,0.762,3.923,2.54,3.918c1.771-0.004,2.629-1.091,2.621-4.205l-0.022-9.553l6.59-0.017
		L131.626,95.927"/>
	<polygon fill="#FFFFFF" points="37.032,90.757 37.065,104.568 30.403,104.584 30.371,90.772 24.788,90.787 24.776,86.083 
		42.597,86.041 42.609,90.744 	"/>
	<path fill="#FFFFFF" d="M53.833,90.232l-1.621,6.353l3.325-0.008L53.833,90.232z M58.157,104.519l-1.125-3.387l-6.264,0.015
		l-1.168,3.392l-6.641,0.016l6.697-18.53l8.434-0.02l6.706,18.499L58.157,104.519z"/>
	<path fill="#FFFFFF" d="M153.023,102.849l-2.009-4.793c-1.177,0.892-2.36,1.691-4.3,1.695c-2.616,0.008-4.365-2.136-4.372-4.765
		c-0.007-2.653,1.521-4.891,4.244-4.897c1.721-0.005,3.215,0.849,4.418,1.803l1.959-4.701c-2.199-1.103-4.409-1.774-7.447-1.769
		c-5.592,0.014-9.841,3.857-9.826,9.527c0.014,5.982,4.164,9.75,10.067,9.736C149.003,104.678,151.298,103.917,153.023,102.849"/>
	<polygon fill="#FFFFFF" points="168.015,104.256 163.817,97.523 163.834,104.265 157.369,104.28 157.324,85.767 163.79,85.751 
		163.806,92.536 167.701,85.743 174.934,85.725 168.882,94.869 175.762,104.236 	"/>
	<path fill="#FFFFFF" d="M13.692,105c4.196-0.01,8.551-1.511,8.54-6.252c-0.011-4.264-3.646-5.422-6.486-6.028
		c-2.132-0.458-3.161-0.67-3.163-1.527c-0.002-1.127,1.441-1.223,2.208-1.224c1.92-0.006,3.717,0.776,5.251,1.709l1.717-4.221
		c-2.26-0.964-4.995-1.728-7.561-1.723c-4.356,0.011-7.752,2.129-7.742,6.357c0.008,3.471,2.643,4.8,5.552,5.508
		c2.007,0.49,3.293,0.643,3.295,1.634c0.002,0.996-0.983,1.297-1.935,1.3c-2.125,0.005-4.13-0.908-5.395-1.984l-2.074,4.095
		C8.159,104.097,10.912,105.008,13.692,105"/>
	<path fill="#FFFFFF" d="M185.562,104.589c4.202-0.009,8.548-1.51,8.536-6.251c-0.01-4.264-3.65-5.422-6.479-6.029
		c-2.139-0.457-3.157-0.669-3.16-1.526c-0.003-1.128,1.438-1.223,2.204-1.225c1.92-0.005,3.715,0.777,5.255,1.709l1.724-4.221
		c-2.269-0.963-5.009-1.727-7.569-1.722c-4.35,0.011-7.753,2.129-7.743,6.357c0.008,3.47,2.645,4.8,5.544,5.509
		c2.021,0.488,3.299,0.643,3.302,1.633c0.003,0.996-0.98,1.297-1.938,1.3c-2.12,0.005-4.136-0.909-5.383-1.985l-2.078,4.096
		C180.04,103.686,182.789,104.597,185.562,104.589"/>
	<path fill="#FFFFFF" d="M82.348,97.55c2.253-0.839,3.495-3.123,3.49-5.259c-0.01-4.362-3.011-6.345-7.257-6.334L68.58,85.98
		l0.044,18.51l6.427-0.017l-0.013-5.48l1.618-0.006l3.35,5.477l6.925-0.018L82.348,97.55 M79.331,92.338
		c0.002,1.211-0.769,1.926-2.025,1.93l-2.279,0.005l-0.01-3.875l2.296-0.005c1.224-0.004,2.014,0.619,2.017,1.885L79.331,92.338z"/>
	<path fill="#FFFFFF" d="M104.827,94.957c2.411-0.524,3.59-1.885,3.585-4.136c-0.008-3.159-2.371-4.933-6.528-4.922l-10.562,0.025
		l0.044,18.523l10.147-0.025c4.889-0.012,7.324-1.744,7.315-5.24C108.823,96.771,107.291,95.151,104.827,94.957 M97.683,89.922
		l2.326-0.006c1.229-0.002,2.028,0.524,2.03,1.616v0.05c0.003,1.025-0.771,1.635-2.043,1.639l-2.305,0.005L97.683,89.922z
		 M102.154,98.68c0.003,1.093-0.793,1.729-2.094,1.732l-2.353,0.005l-0.008-3.479l2.382-0.005c1.25-0.004,2.071,0.557,2.073,1.694
		V98.68z"/>
</g>
</svg>
