<?xml version="1.0" encoding="utf-8"?>
<!-- Generator: Adobe Illustrator 16.0.0, SVG Export Plug-In . SVG Version: 6.00 Build 0)  -->
<!DOCTYPE svg PUBLIC "-//W3C//DTD SVG 1.1//EN" "http://www.w3.org/Graphics/SVG/1.1/DTD/svg11.dtd">
<svg version="1.1" id="Capa_1" xmlns="http://www.w3.org/2000/svg" xmlns:xlink="http://www.w3.org/1999/xlink" x="0px" y="0px"
	 width="200px" height="100px" viewBox="0 1.25 200 100" enable-background="new 0 1.25 200 100" xml:space="preserve">
<g>
	<path fill="#FFFFFF" d="M129.748,52.894c0.014,5.479-3.028,8.42-8.749,8.433c-5.608,0.013-8.784-2.989-8.794-8.337l-0.024-9.713
		l6.31-0.016l0.021,9.4c0.007,2.611,0.73,3.754,2.43,3.748c1.693-0.004,2.515-1.044,2.507-4.022l-0.02-9.137l6.303-0.016
		L129.748,52.894"/>
	<polygon fill="#FFFFFF" points="39.275,47.949 39.307,61.158 32.935,61.174 32.904,47.962 27.564,47.978 27.553,43.479 
		44.598,43.438 44.609,47.937 	"/>
	<path fill="#FFFFFF" d="M55.344,47.447l-1.551,6.077l3.181-0.008L55.344,47.447z M59.48,61.112l-1.076-3.24l-5.991,0.014
		l-1.117,3.246l-6.352,0.016l6.406-17.724l8.066-0.019l6.414,17.693L59.48,61.112z"/>
	<path fill="#FFFFFF" d="M150.214,59.515l-1.923-4.584c-1.127,0.854-2.257,1.617-4.114,1.621c-2.5,0.008-4.172-2.042-4.182-4.558
		c-0.007-2.537,1.455-4.678,4.06-4.683c1.647-0.005,3.074,0.813,4.226,1.725l1.873-4.497c-2.102-1.055-4.214-1.696-7.121-1.692
		c-5.35,0.015-9.413,3.689-9.397,9.112c0.014,5.722,3.982,9.326,9.627,9.312C146.368,61.264,148.563,60.535,150.214,59.515"/>
	<polygon fill="#FFFFFF" points="164.553,60.859 160.536,54.421 160.553,60.869 154.37,60.882 154.327,43.177 160.511,43.161 
		160.527,49.65 164.252,43.153 171.169,43.136 165.381,51.882 171.961,60.841 	"/>
	<path fill="#FFFFFF" d="M16.952,61.571c4.014-0.009,8.179-1.444,8.168-5.979c-0.01-4.078-3.487-5.186-6.203-5.765
		c-2.039-0.438-3.023-0.641-3.025-1.46c-0.002-1.078,1.378-1.17,2.112-1.172c1.836-0.005,3.555,0.743,5.022,1.635l1.642-4.038
		c-2.162-0.922-4.777-1.653-7.231-1.648c-4.167,0.011-7.415,2.036-7.405,6.079c0.007,3.321,2.528,4.592,5.31,5.27
		c1.92,0.467,3.15,0.615,3.152,1.562c0.002,0.953-0.94,1.241-1.851,1.244c-2.032,0.005-3.95-0.868-5.16-1.897l-1.983,3.917
		C11.66,60.708,14.293,61.579,16.952,61.571"/>
	<path fill="#FFFFFF" d="M181.335,61.178c4.019-0.008,8.175-1.443,8.163-5.979c-0.009-4.078-3.489-5.186-6.196-5.766
		c-2.045-0.438-3.02-0.639-3.022-1.458c-0.003-1.079,1.375-1.17,2.108-1.172c1.836-0.006,3.553,0.742,5.025,1.634l1.65-4.038
		c-2.171-0.921-4.792-1.653-7.24-1.646c-4.161,0.01-7.415,2.036-7.403,6.08c0.007,3.317,2.53,4.589,5.302,5.269
		c1.933,0.466,3.155,0.615,3.16,1.563c0.004,0.951-0.938,1.24-1.855,1.243c-2.026,0.004-3.956-0.87-5.148-1.898l-1.987,3.918
		C176.053,60.314,178.683,61.187,181.335,61.178"/>
	<path fill="#FFFFFF" d="M82.617,54.445c2.155-0.802,3.342-2.986,3.337-5.029c-0.009-4.171-2.879-6.07-6.94-6.058l-9.565,0.022
		l0.042,17.704l6.147-0.017l-0.012-5.241l1.548-0.007l3.204,5.239L87,61.041L82.617,54.445 M79.731,49.461
		c0.002,1.158-0.735,1.842-1.937,1.846l-2.18,0.005l-0.009-3.706l2.196-0.006c1.171-0.003,1.926,0.592,1.929,1.803L79.731,49.461z"
		/>
	<path fill="#FFFFFF" d="M104.117,51.966c2.306-0.5,3.433-1.803,3.429-3.957c-0.008-3.02-2.269-4.717-6.244-4.707L91.2,43.325
		l0.042,17.716l9.705-0.023c4.676-0.012,7.003-1.668,6.994-5.011C107.938,53.701,106.474,52.15,104.117,51.966 M97.284,47.15
		l2.224-0.006c1.176-0.002,1.94,0.5,1.942,1.546v0.047c0.003,0.98-0.738,1.564-1.954,1.568l-2.205,0.006L97.284,47.15z
		 M101.561,55.526c0.003,1.046-0.759,1.654-2.003,1.657l-2.25,0.005l-0.007-3.328l2.278-0.004c1.196-0.004,1.981,0.533,1.983,1.619
		V55.526z"/>
</g>
</svg>
