<?xml version="1.0" encoding="utf-8"?>
<!-- Generator: Adobe Illustrator 16.0.0, SVG Export Plug-In . SVG Version: 6.00 Build 0)  -->
<!DOCTYPE svg PUBLIC "-//W3C//DTD SVG 1.1//EN" "http://www.w3.org/Graphics/SVG/1.1/DTD/svg11.dtd">
<svg version="1.1" id="Capa_1" xmlns="http://www.w3.org/2000/svg" xmlns:xlink="http://www.w3.org/1999/xlink" x="0px" y="0px"
	 width="200px" height="100px" viewBox="0 0 200 100" enable-background="new 0 0 200 100" xml:space="preserve">
<g>
	<path fill="#FFFFFF" d="M64.397,28.89h-6.269V48.3h-2.543V28.89h-6.253v-2.301h15.064V28.89z"/>
	<path fill="#FFFFFF" d="M76.736,41.169H65.79c0.04,1.726,0.505,3.058,1.393,3.997c0.889,0.939,2.109,1.409,3.664,1.409
		c1.746,0,3.352-0.576,4.814-1.727v2.332c-1.362,0.989-3.164,1.483-5.404,1.483c-2.19,0-3.912-0.704-5.163-2.112
		c-1.252-1.408-1.878-3.389-1.878-5.942c0-2.412,0.684-4.378,2.052-5.897s3.066-2.279,5.095-2.279c2.029,0,3.599,0.656,4.709,1.968
		c1.11,1.313,1.665,3.134,1.665,5.466V41.169z M74.192,39.064c-0.01-1.433-0.355-2.549-1.037-3.346
		c-0.681-0.797-1.627-1.196-2.838-1.196c-1.172,0-2.165,0.419-2.983,1.257c-0.817,0.838-1.322,1.933-1.514,3.286H74.192z"/>
	<path fill="#FFFFFF" d="M82.974,48.3h-2.482V25.347h2.482V48.3z"/>
	<path fill="#FFFFFF" d="M98.568,47.588c-1.191,0.717-2.604,1.075-4.239,1.075c-2.21,0-3.994-0.719-5.352-2.157
		c-1.358-1.438-2.037-3.303-2.037-5.595c0-2.553,0.732-4.605,2.195-6.154c1.464-1.549,3.417-2.324,5.859-2.324
		c1.363,0,2.563,0.252,3.604,0.757v2.543c-1.15-0.808-2.382-1.211-3.694-1.211c-1.585,0-2.884,0.568-3.898,1.704
		c-1.015,1.135-1.521,2.626-1.521,4.474c0,1.817,0.477,3.25,1.431,4.3c0.954,1.05,2.233,1.575,3.838,1.575
		c1.353,0,2.624-0.449,3.815-1.348V47.588z"/>
	<path fill="#FFFFFF" d="M108.803,48.663c-2.291,0-4.119-0.724-5.488-2.173c-1.367-1.448-2.051-3.368-2.051-5.761
		c0-2.604,0.711-4.638,2.135-6.102c1.424-1.463,3.346-2.195,5.768-2.195c2.313,0,4.117,0.712,5.414,2.135
		c1.297,1.423,1.945,3.397,1.945,5.92c0,2.473-0.699,4.454-2.098,5.942C113.029,47.919,111.154,48.663,108.803,48.663z
		 M108.984,34.522c-1.594,0-2.855,0.543-3.785,1.628c-0.928,1.085-1.393,2.581-1.393,4.489c0,1.837,0.471,3.286,1.408,4.345
		c0.939,1.06,2.195,1.59,3.77,1.59c1.605,0,2.84-0.52,3.703-1.56c0.863-1.039,1.293-2.518,1.293-4.436
		c0-1.938-0.43-3.432-1.293-4.481S110.59,34.522,108.984,34.522z"/>
	<path fill="#FFFFFF" d="M148.35,48.648c-0.574,0-1.082-0.079-1.521-0.235s-0.846-0.378-1.219-0.666
		c-0.373-0.287-0.734-0.638-1.082-1.052s-0.715-0.883-1.098-1.408c-0.404,0.434-0.871,0.853-1.4,1.256
		c-0.531,0.404-1.119,0.763-1.764,1.075c-0.646,0.313-1.354,0.563-2.121,0.75c-0.766,0.187-1.6,0.28-2.498,0.28
		c-1.09,0-2.088-0.137-2.998-0.409c-0.908-0.272-1.686-0.674-2.33-1.204c-0.646-0.529-1.148-1.183-1.508-1.96
		c-0.357-0.777-0.537-1.67-0.537-2.68c0-1.544,0.439-2.864,1.318-3.959c0.877-1.095,2.119-1.991,3.725-2.688
		c-0.303-0.222-0.605-0.482-0.91-0.78c-0.303-0.297-0.572-0.636-0.809-1.014c-0.238-0.379-0.43-0.797-0.576-1.257
		c-0.146-0.459-0.219-0.961-0.219-1.506c0-0.797,0.143-1.504,0.432-2.12c0.287-0.616,0.684-1.136,1.188-1.56
		c0.506-0.424,1.1-0.744,1.787-0.961c0.686-0.217,1.428-0.326,2.225-0.326c0.789,0,1.508,0.109,2.158,0.326
		c0.65,0.217,1.211,0.527,1.682,0.931c0.469,0.404,0.834,0.888,1.098,1.454c0.262,0.565,0.393,1.196,0.393,1.893
		c0,1.211-0.346,2.218-1.037,3.021c-0.691,0.802-1.729,1.486-3.111,2.051c0.697,0.272,1.328,0.605,1.893,1
		c0.564,0.394,1.088,0.833,1.566,1.317c0.48,0.484,0.926,1.004,1.34,1.56s0.824,1.13,1.227,1.726
		c0.818-1.141,1.434-2.397,1.848-3.77s0.621-2.811,0.621-4.315c0-0.384-0.023-0.744-0.068-1.083s-0.109-0.674-0.189-1.007h2.408
		c0.08,0.333,0.129,0.648,0.143,0.946c0.016,0.298,0.033,0.653,0.053,1.067c0,0.918-0.096,1.842-0.287,2.771
		c-0.191,0.929-0.449,1.83-0.771,2.703c-0.324,0.873-0.699,1.703-1.129,2.491c-0.428,0.787-0.881,1.509-1.355,2.165
		c0.354,0.484,0.678,0.906,0.971,1.264c0.291,0.358,0.588,0.659,0.885,0.901s0.605,0.421,0.924,0.537
		c0.318,0.116,0.678,0.174,1.082,0.174c0.303,0,0.611-0.04,0.924-0.121c0.313-0.081,0.637-0.182,0.969-0.303v2.301
		c-0.363,0.142-0.744,0.248-1.143,0.318S148.732,48.648,148.35,48.648z M135.646,46.498c0.768,0,1.475-0.083,2.121-0.25
		c0.645-0.167,1.24-0.389,1.785-0.667c0.545-0.277,1.041-0.6,1.484-0.969s0.848-0.754,1.211-1.158
		c-0.615-0.959-1.184-1.779-1.703-2.46s-1.045-1.269-1.574-1.764s-1.096-0.918-1.695-1.272c-0.602-0.353-1.295-0.681-2.082-0.984
		c-0.637,0.252-1.223,0.532-1.756,0.84c-0.535,0.308-0.998,0.671-1.387,1.09s-0.693,0.906-0.916,1.461
		c-0.221,0.555-0.332,1.207-0.332,1.953c0,0.687,0.125,1.292,0.379,1.817c0.252,0.525,0.598,0.961,1.037,1.31
		c0.438,0.348,0.951,0.611,1.535,0.788C134.34,46.41,134.971,46.498,135.646,46.498z M139.432,31.04
		c0-0.505-0.094-0.934-0.279-1.287c-0.188-0.353-0.424-0.646-0.711-0.878c-0.289-0.232-0.609-0.401-0.963-0.507
		s-0.701-0.159-1.045-0.159c-0.988,0-1.777,0.268-2.369,0.803c-0.59,0.535-0.891,1.262-0.9,2.18c0,0.414,0.063,0.802,0.189,1.166
		c0.127,0.364,0.303,0.702,0.529,1.015c0.229,0.313,0.492,0.59,0.795,0.833s0.627,0.449,0.969,0.621
		c1.273-0.444,2.221-0.961,2.848-1.552C139.119,32.683,139.432,31.938,139.432,31.04z"/>
	<path fill="#FFFFFF" d="M46.219,55.398v1.027h-1.599v14.323h1.599v1.028H41.89v-1.028h1.6V56.426h-1.6v-1.027H46.219z"/>
	<path fill="#FFFFFF" d="M48.287,71.194v-1.29c1.172,0.746,2.36,1.119,3.563,1.119c1.279,0,2.25-0.265,2.912-0.794
		c0.663-0.529,0.994-1.27,0.994-2.222c0-0.837-0.223-1.506-0.668-2.004c-0.445-0.499-1.411-1.179-2.896-2.039
		c-1.66-0.967-2.711-1.776-3.152-2.428c-0.442-0.65-0.663-1.402-0.663-2.256c0-1.157,0.449-2.14,1.348-2.946
		c0.898-0.808,2.099-1.211,3.599-1.211c0.975,0,1.949,0.164,2.924,0.491v1.188c-0.959-0.434-1.983-0.65-3.072-0.65
		c-1.112,0-1.993,0.281-2.645,0.845s-0.977,1.279-0.977,2.147c0,0.838,0.223,1.504,0.668,1.999s1.407,1.169,2.885,2.021
		c1.53,0.868,2.549,1.639,3.055,2.313c0.507,0.674,0.76,1.448,0.76,2.324c0,1.256-0.436,2.28-1.308,3.072s-2.104,1.188-3.695,1.188
		c-0.563,0-1.213-0.087-1.947-0.263C49.236,71.625,48.674,71.423,48.287,71.194z"/>
	<path fill="#FFFFFF" d="M61.559,65.21v6.567h-1.131V55.398h3.952c1.683,0,2.97,0.39,3.86,1.171c0.892,0.78,1.337,1.921,1.337,3.421
		c0,1.522-0.497,2.773-1.491,3.752c-0.993,0.979-2.385,1.468-4.175,1.468H61.559z M61.559,56.438v7.732h2.33
		c1.478,0,2.601-0.352,3.369-1.057c0.77-0.704,1.154-1.699,1.154-2.986c0-2.46-1.413-3.689-4.238-3.689H61.559z"/>
	<path fill="#FFFFFF" d="M80.691,65.21v6.567H79.56V55.398h3.952c1.683,0,2.97,0.39,3.86,1.171c0.892,0.78,1.337,1.921,1.337,3.421
		c0,1.522-0.497,2.773-1.491,3.752c-0.993,0.979-2.385,1.468-4.175,1.468H80.691z M80.691,56.438v7.732h2.33
		c1.478,0,2.601-0.352,3.369-1.057c0.77-0.704,1.154-1.699,1.154-2.986c0-2.46-1.413-3.689-4.238-3.689H80.691z"/>
	<path fill="#FFFFFF" d="M97.573,61.178c-0.35-0.251-0.761-0.377-1.233-0.377c-0.921,0-1.694,0.476-2.318,1.428
		c-0.625,0.952-0.937,2.304-0.937,4.055v5.494h-1.028V60.081h1.028v2.593h0.046c0.266-0.891,0.688-1.584,1.268-2.079
		c0.578-0.494,1.249-0.742,2.01-0.742c0.435,0,0.823,0.068,1.165,0.206V61.178z"/>
	<path fill="#FFFFFF" d="M104.004,72.063c-1.705,0-3.055-0.562-4.049-1.685s-1.49-2.583-1.49-4.38c0-1.942,0.52-3.461,1.559-4.558
		c1.04-1.097,2.409-1.645,4.106-1.645c1.668,0,2.984,0.544,3.953,1.633c0.967,1.089,1.449,2.597,1.449,4.523
		c0,1.82-0.492,3.293-1.479,4.42S105.717,72.063,104.004,72.063z M104.084,60.755c-1.379,0-2.477,0.465-3.295,1.394
		c-0.818,0.93-1.229,2.22-1.229,3.872c0,1.53,0.4,2.761,1.2,3.689c0.798,0.929,1.892,1.394,3.277,1.394
		c1.41,0,2.494-0.457,3.256-1.371c0.762-0.913,1.143-2.182,1.143-3.803c0-1.668-0.379-2.947-1.137-3.838
		C106.541,61.2,105.469,60.755,104.084,60.755z"/>
	<path fill="#FFFFFF" d="M116.27,71.777h-0.959l-4.523-11.696h1.178l3.482,9.31c0.168,0.449,0.285,0.856,0.355,1.222h0.045
		c0.1-0.479,0.209-0.872,0.332-1.177l3.598-9.354h1.141L116.27,71.777z"/>
	<path fill="#FFFFFF" d="M123.545,57.135c-0.227,0-0.43-0.084-0.604-0.252c-0.176-0.167-0.264-0.381-0.264-0.64
		c0-0.251,0.09-0.455,0.268-0.611c0.18-0.155,0.379-0.233,0.6-0.233c0.236,0,0.445,0.076,0.623,0.229
		c0.18,0.152,0.27,0.357,0.27,0.616c0,0.244-0.088,0.453-0.264,0.629C123.998,57.047,123.789,57.135,123.545,57.135z
		 M123.031,71.777V60.081h1.051v11.696H123.031z"/>
	<path fill="#FFFFFF" d="M136.133,71.777v-2.124h-0.045c-0.381,0.738-0.943,1.324-1.691,1.759c-0.746,0.434-1.586,0.65-2.523,0.65
		c-1.439,0-2.613-0.525-3.523-1.576s-1.365-2.501-1.365-4.352c0-1.889,0.496-3.417,1.49-4.586s2.283-1.753,3.867-1.753
		c1.75,0,3,0.72,3.746,2.158h0.045v-7.492h1.051v17.315H136.133z M136.133,64.661c0-1.089-0.344-2.012-1.033-2.77
		s-1.615-1.137-2.781-1.137c-1.227,0-2.238,0.471-3.037,1.411c-0.801,0.94-1.201,2.232-1.201,3.878c0,1.614,0.361,2.86,1.08,3.74
		c0.721,0.88,1.646,1.319,2.781,1.319c1.332,0,2.365-0.413,3.096-1.239s1.096-1.833,1.096-3.021V64.661z"/>
	<path fill="#FFFFFF" d="M141.182,65.975c0,1.607,0.371,2.863,1.113,3.77s1.762,1.359,3.057,1.359c1.309,0,2.588-0.483,3.836-1.45
		v1.119c-1.209,0.86-2.561,1.29-4.055,1.29c-1.508,0-2.725-0.54-3.654-1.621c-0.93-1.082-1.393-2.608-1.393-4.581
		c0-1.705,0.484-3.143,1.455-4.312s2.234-1.753,3.787-1.753c1.453,0,2.57,0.51,3.346,1.53c0.777,1.021,1.166,2.414,1.166,4.181
		v0.468H141.182z M148.742,65.016c-0.045-1.348-0.369-2.395-0.971-3.142c-0.602-0.746-1.432-1.119-2.49-1.119
		c-1.096,0-2.004,0.368-2.723,1.103c-0.721,0.734-1.164,1.787-1.332,3.158H148.742z"/>
	<path fill="#FFFFFF" d="M158.258,61.178c-0.35-0.251-0.762-0.377-1.234-0.377c-0.92,0-1.693,0.476-2.318,1.428
		s-0.936,2.304-0.936,4.055v5.494h-1.029V60.081h1.029v2.593h0.045c0.266-0.891,0.689-1.584,1.268-2.079
		c0.578-0.494,1.25-0.742,2.01-0.742c0.436,0,0.824,0.068,1.166,0.206V61.178z"/>
</g>
</svg>
